<svg xmlns="http://www.w3.org/2000/svg" width="288.5" height="48.01" viewBox="0 0 288.5 48.01"><defs><style>.cls-1{fill:none;stroke:#110b05;stroke-linecap:round;stroke-miterlimit:10;stroke-width:4px;}</style></defs><title>hover-btn-p</title><g id="Слой_2" data-name="Слой 2"><g id="Capa_1" data-name="Capa 1"><path class="cls-1" d="M2,24.51c3.57-10.11,6.63-17.33,8-17,2.72.66-3,30.56-1,31,2.27.49,11.73-36.31,13-36s-8,39.44-6,40C17.7,43,29.23,2,31,2.51s-8.32,42.36-6,43,15.92-43.59,18-43-8.32,41.65-7,42,13.18-42.45,15-42-7.66,42.6-6,43,13.28-43.42,15-43-7.68,42.59-6,43,13.28-43.42,15-43-7.63,42.61-6,43S76,2,78,2.51s-6.92,42.55-5,43,13.33-43.4,15-43-7.63,42.61-6,43S95,2,97,2.51s-6.88,42.57-5,43S104.74,2,107,2.51c1.75.37-7.2,41.45-5,42s14.35-43,16.5-42.5-7.29,43.71-6,44,12-44.42,14-44-5.9,43.61-4,44,12-44.4,14-44-5.68,43.67-4,44,11.26-44.33,13-44-5.56,42.71-4,43,10.44-42.3,12-42-5.69,42.67-4,43,11.34-44.33,13-44-6,42.59-4,43,12.37-43.36,14-43-6.94,42.55-5,43,12.71-42.51,15-42-5.17,41.78-4,42,9-42.39,12-42-.83,42.82,1,43,7.35-44.17,9-44-2.24,43.73,0,44,8.85-44.27,11-44-2.3,42.7,0,43,9.31-42.25,11-42-3.69,41.74-2,42,9.28-43.26,11-43-4.24,43.62-2,44,11.13-44.34,13-44-4.92,42.65-3,43,11-43.36,13-43-4.91,42.65-3,43,11-43.36,13-43-4.81,42.67-3,43,10.32-41.31,12-41-4.73,39.68-3,40,9.42-35.31,11-35c1.4.28-4.06,28.17-1,29,1.49.4,4.56-5.71,8-14"/></g></g></svg>