<svg id="im-here" xmlns="http://www.w3.org/2000/svg" width="123.21" height="144.26" viewBox="0 0 123.21 144.26"><defs><style>#im-here .cls-1{fill-rule:evenodd;}#im-here .cls-2,#im-here .cls-3,#im-here .cls-4,#im-here .cls-5{fill:none;stroke-linecap:round;}#im-here .cls-2,#im-here .cls-3,#im-here .cls-4,#im-here .cls-5,#im-here .cls-6{stroke:#000;}#im-here .cls-2,#im-here .cls-3{stroke-linejoin:round;}#im-here .cls-2{stroke-width:1.3px;}#im-here .cls-3,#im-here .cls-4{stroke-width:2px;}#im-here .cls-4,#im-here .cls-5{stroke-linejoin:bevel;}#im-here .cls-5{stroke-width:1.68px;}#im-here .cls-6{stroke-miterlimit:10;stroke-width:0.5px;}</style></defs><g><g><path class="cls-1" d="M11.46,36.64,11,35.39a35,35,0,0,0-1.31-3.62,64.23,64.23,0,0,1-2.67-7C5.61,21,4.22,17.17,3.22,13.25a16.87,16.87,0,0,0-1.06-2.57.75.75,0,0,0-1-.44c-.46.18-.32.55-.22.92.22.85.43,1.7.61,2.55S1.75,15.24,2,16c.47,1.59,1.06,3.15,1.54,4.73l1.88,6.18c.12.4.19.81.34,1.19.56,1.42,1.21,2.81,1.76,4.23a13,13,0,0,0,1,2.86A27.34,27.34,0,0,1,10.3,39c1,2,1.59,4.21,2.67,6.22a24.74,24.74,0,0,1,1.75,4.18c.56,1.77,1.83,3.17,2.47,4.91a84.85,84.85,0,0,0,3.63,7.75l.12.25a18.64,18.64,0,0,1,1.34,3.31,6.63,6.63,0,0,0,1.54,3.23,1.24,1.24,0,0,1,.17.52c.65,2.68,2.28,5,3.3,7.57.8,1.94,1.89,3.79,2.83,5.68.34.66.5,1.4.89,2,.88,1.4,1.89,2.73,2,4.43,0,.26.34.56.59.75a6.31,6.31,0,0,1,2,3.12,8.17,8.17,0,0,0,.6,1.39l3.15,5.21c.3.49.29,1.25.69,1.55,1.12.83,1.32,2.1,2,3.13.88,1.34,1.71,2.69,2.5,4.08a35.68,35.68,0,0,0,2.59,4,9.15,9.15,0,0,1,.46.85l1.19,1.94.31-.18c-6.56-11.27-13.28-22.45-18.8-34.23a8.51,8.51,0,0,1,1,1.56c.79,1.41,1.64,2.79,2.39,4.22l2.38,4.43c.78,1.48,1.59,2.95,2.45,4.39,1.17,2,2.42,4,3.67,6,.8,1.28,1.49,2.62,2.3,3.89l3,4.77,3.16,4.7,3.44,5c.38.56.76,1.13,1.17,1.66s.87,1.17,1.35,1.72c1.12,1.29,2.24,2.58,3.45,3.79s2,2.3,2.93,3.49a24.84,24.84,0,0,0,3.24,3.22,6.06,6.06,0,0,1,.89,1.05c0,.06,0,.17,0,.28l-.73.52a6.09,6.09,0,0,0,.8,1.24c.89.88,1.84,1.71,2.78,2.55.35.31.76.67,1.23.34s.4-.85.12-1.33c-.12-.2-.27-.38-.37-.58a14,14,0,0,0-2.9-3.44L65.29,131l-1.44-1.58-1.38-1.63c-1-1.24-2.1-2.43-3.09-3.69.84.56,1.58,1.19,2.34,1.79a2.46,2.46,0,0,0,.85.24c0-.32.15-.68,0-.94a5.11,5.11,0,0,0-1-1.3c-.58-.57-1.22-1.09-1.78-1.69-1.56-1.72-3.13-3.43-4.56-5.26-.95-1.2-1.93-2.38-2.83-3.61l-2.72-3.71c-.93-1.25-1.78-2.56-2.63-3.86-1.37-2.06-2.58-4.21-3.9-6.3-1.51-2.35-3-4.73-4.44-7.11-.69-1.19-1.26-2.45-1.92-3.65C33.68,82.92,30.62,77,27.81,71c-1.21-2.53-2.19-5.15-3.33-7.7-2-4.71-4.07-9.42-6-14.18C16.37,43.78,14.27,38.44,12.34,33c-1.1-3.06-2.19-6.13-3.11-9.24-1.1-3.73-2-7.5-3-11.26A24.7,24.7,0,0,1,5.47,8.8C5.25,5.9,4.09,3.25,3.19.53c-.12-.37-.33-.65-1-.48a5.9,5.9,0,0,0,.14,1.61c.57,1.64.06,3.45,1.06,5a6.11,6.11,0,0,0,.88,3.77,3.65,3.65,0,0,1,.33,1.19,6.87,6.87,0,0,0,.73,2.48A11.16,11.16,0,0,1,6,16.47c.44,1.76.82,3.54,1.34,5.28s1.15,3.35,1.67,5c.39,1.27.7,2.55,1,3.83l1.65,5.92ZM23,63.31c-.86-1.73-1.7-3.46-2.5-5.22-1-2.23-2-4.43-2.91-6.7-1.15-2.85-2.19-5.74-3.23-8.62-.42-1.16-.8-2.34-1.16-3.52a1.47,1.47,0,0,1,.11-1.14,7.4,7.4,0,0,1,.35.7c.79,2.1,1.49,4.24,2.43,6.29a31.4,31.4,0,0,1,1.95,5.69,3.79,3.79,0,0,0,.51,1,6.62,6.62,0,0,1,.59.93l1.65,4.45c.13.34.28.67.43,1,1,2.29,2.06,4.58,3.13,6.85l-.21.12A18.23,18.23,0,0,1,23,63.31ZM3.69,18.38a16.29,16.29,0,0,1,2.22,6.5C4.56,22.88,4.44,20.55,3.69,18.38ZM9.47,33.63l-.27.09c-1.09-2.45-2.51-4.8-2.85-7.51l.34-.09C7.59,28.63,8.53,31.13,9.47,33.63Zm58,101.95c.79,0,1.06.28,1.06.85ZM25.33,67.35l-.11.05-.33-.65.08,0ZM10.09,36l.12-.07.27.45-.16.08Z" transform="translate(-0.81)"/><path class="cls-1" d="M39.77,135.35a3,3,0,0,0,1.78.31,44,44,0,0,1,4.62.07c1.7.13,3.38.36,5.06.64s3.41.69,5.11,1.08c1.44.33,2.87.7,4.3,1.07,0,0,0,.17.06.26s-.1.18-.13.17c-.8-.13-1.58-.3-2.38-.4-1.59-.18-3.2-.28-4.79-.5s-3.09-.5-4.63-.78a4.69,4.69,0,0,1-1.48-.41,1.38,1.38,0,0,0-1.12-.11,1.08,1.08,0,0,1-.41.07c-.79-.09-1.57-.18-2.35-.29-1.08-.16-2.15-.31-3.22-.52-.61-.12-1.2-.38-1.81-.47a1.89,1.89,0,0,0-1,.21c-.13.05-.27.4-.4.62.08.2.14.54.25.58s.49,0,.73.06c1.66.27,3.32.52,5,.84a55.11,55.11,0,0,1,5.74,1.07,41.41,41.41,0,0,0,4.91.93c1.69.3,3.39.56,5.08.87,1,.19,2,.49,3,.68l6.25,1.09c1.46.27,2.92.6,4.37.94l2.36.59.94.23.15-1.19.41-3.33.43-3.44c.05-.43,0-.87.11-1.3.18-.88.47-1.74.64-2.62.22-1.11.32-2.22.57-3.32s.62-2,.89-3,.51-2.05.72-3.08a10.83,10.83,0,0,0,.09-1.48c-.17.14-.27.18-.28.23-.33,1-.67,2-1,3-.19.65-.28,1.31-.46,2s-.4,1.23-.56,1.84-.6,1.19-.28,1.82c0,.07-.05.15-.07.22-.37,1.45-.77,2.91-1.11,4.36a7.29,7.29,0,0,1-.52,2.4c0,.05,0,.11,0,.17a12.17,12.17,0,0,1,0,1.86c-.11.71-.38,1.4-.57,2.11a1.08,1.08,0,0,0,0,.62,2.19,2.19,0,0,1,.11,1.05v.06h0a2,2,0,0,1-.73-.4.68.68,0,0,0-.38-.09,9.1,9.1,0,0,1-1-.11l-3-.73c-1.07-.24-2.14-.45-3.22-.66-.63-.12-1.27-.2-1.9-.29l-2.18-.34s0-.16-.11-.38a3,3,0,0,1,.5-.05c.34,0,.67.1,1,.12.91.05,1.82.06,2.73.14,1.25.11,2.48.25,3.72.39s2.6.28,3.89.47l.86.15-2,1.74c0-.71.11-1.42.13-2.13l.16-5.61c0-.85.13-1.7.17-2.55,0-1.15,0-2.3.09-3.44.17-2.11.41-4.22.63-6.33l.7-6.49a16.64,16.64,0,0,0,0-1.93,2.46,2.46,0,0,0-.12-.52c-.67,0-1.14-.05-1.19.25a2.68,2.68,0,0,0-.1.9c.16.91-.75,1.77-.21,2.69a3,3,0,0,0-.54,1.94,8.17,8.17,0,0,1-.26,1.52c0,.3,0,.6,0,.9-.11.85-.34,1.69-.37,2.54s-.17,1.88-.17,2.82a25.93,25.93,0,0,0-.18,3.43,15.85,15.85,0,0,1,0,2.53c0,1.07-.11,2.14-.17,3.21s-.14,1.88-.14,2.82.12,1.66.11,2.49l0,.95,3.65-3.2c-1.42-.24-2.82-.52-4.25-.68-1.2-.13-2.34-.56-3.54-.68s-2.4-.48-3.61-.69c-.91-.16-1.83-.27-2.74-.41a12.65,12.65,0,0,1-1.62-.28c-.56-.16-1.09-.52-1.66-.64-.88-.19-1.79-.24-2.68-.36a2.93,2.93,0,0,1-.43-.17c-.78-.24-1.55-.52-2.34-.7a12.68,12.68,0,0,0-1.63-.13l-3.21-.31c-.11,0-.22-.07-.33-.09a6,6,0,0,0-1.11-.18c-.41,0-.85.16-1.26.15-.74,0-1.47-.1-2.2-.17s-1.73.12-2.5-.44c-.15-.11-.36,0-.55,0C39.33,135,39.53,135.2,39.77,135.35Zm21.61,4.94,0-.17.18.07,0,.18Z" transform="translate(-0.81)"/><path class="cls-3 letter-s" d="M62,80.64l.92,13.69" transform="translate(-0.81)"/><path class="cls-3 letter-s" d="M66.26,80.08l.13,7.23" transform="translate(-0.81)"/><path class="cls-3 letter-s" d="M69.63,95c.05-1.56.14-4.36.21-7.35,0,0,.06-2.83.06-4.5,0-1.05,0-1.58,0-1.58,0-.47-.06-.75,0-.77s.22.3.58,1.21.71,1.89.75,2c.3.86.59,1.59.85,2.25.07.17.15.38.25.69,0,.14.08.25.13.42a2.47,2.47,0,0,0,.21.67.68.68,0,0,0,.27.29.29.29,0,0,0,.23,0c.09,0,.11-.16.15-.31a5.33,5.33,0,0,1,.21-.52s.11-.28.27-.67.21-.46.35-.77.25-.6.44-1c.37-.88.38-.79.69-1.54.39-.95.41-1.17.69-1.71a4.72,4.72,0,0,0,.27-.58,5.55,5.55,0,0,1,.23-.69s0,.17.06.81,0,.79,0,.79,0,.18,0,1.13c0,.69,0,1.17,0,1.44,0,1.39,0,3.57,0,3.92,0,1.3,0,3.39.1,6.77" transform="translate(-0.81)"/><path class="cls-3 letter-s" d="M86.53,79.69,86.32,95.9" transform="translate(-0.81)"/><path class="cls-3 letter-s" d="M86.8,89.25l3.52,0" transform="translate(-0.81)"/><path class="cls-3 letter-s" d="M90.72,79.54c-.15,2.57-.23,5.28-.23,8.13s.09,5.44.23,8" transform="translate(-0.81)"/><path class="cls-3 letter-s" d="M97.69,80.94a12.07,12.07,0,0,1-2.27,0c-.19,0-.39,0-.58,0-.38,0-.54,0-.65.06a.5.5,0,0,0-.1.29,1.4,1.4,0,0,0,0,.48,15,15,0,0,1,0,2.63c0,1.65,0,2.23,0,4.73,0,3.9.19,5.45.17,5.75a3.5,3.5,0,0,0,0,.38.31.31,0,0,0,.06.21.29.29,0,0,0,.21.06,3.42,3.42,0,0,1,.52.13,5.24,5.24,0,0,0,1,.06,8,8,0,0,0,1.13-.08c.25,0,.46-.09.63-.12" transform="translate(-0.81)"/><path class="cls-3 letter-s" d="M94.42,89.08l2.83-.44" transform="translate(-0.81)"/><path class="cls-3 letter-s" d="M101,96.13c0-4.63.09-7.26.17-8.83,0,0,.14-3.12.14-5.81V80.9a.75.75,0,0,1,0-.37,1.28,1.28,0,0,1,.21-.29,1.29,1.29,0,0,1,.23-.25c.1-.06.19,0,.46,0,.49,0,.42,0,.58,0a2,2,0,0,1,.6.19,2,2,0,0,1,.52.4,2.7,2.7,0,0,1,.46.63,3.17,3.17,0,0,1,.27.63,3.37,3.37,0,0,1,.13.79,4.19,4.19,0,0,1,0,.75,4.78,4.78,0,0,1-.12.69,5.19,5.19,0,0,1-.19.67,4.82,4.82,0,0,1-.33.71,8,8,0,0,1-.46.73,3.56,3.56,0,0,1-.46.6,2.35,2.35,0,0,1-.73.42l-.23.06a2.21,2.21,0,0,1-.37,0h-.29a2.48,2.48,0,0,1,1.15,0,2.68,2.68,0,0,1,.35.15,1.64,1.64,0,0,1,.33.21,1.58,1.58,0,0,1,.31.38,3.2,3.2,0,0,1,.25.46,4.51,4.51,0,0,1,.19.5c.2.69.18,2.69.38,4.15.11.84.32,1.68.29,1.69a.8.8,0,0,1-.06-.19" transform="translate(-0.81)"/><path class="cls-4 letter-s" d="M111.94,95.36a8.66,8.66,0,0,1-1.69.25c-.6,0-.69-.05-1.06,0a1,1,0,0,1-.4,0,1.75,1.75,0,0,1-.27-.12,1,1,0,0,1-.28-.17.53.53,0,0,1,0-.41c0-.26,0-.53,0-.8,0-1,0-2.06,0-3.09.06-1.57.11-2.93,0-4.62-.07-1.36,0-2.73-.16-4.09,0-.08,0-.23,0-.53a.78.78,0,0,1,.06-.39.61.61,0,0,1,.27-.25.91.91,0,0,1,.44-.06l.58,0h1.16l.89,0" transform="translate(-0.81)"/><path class="cls-4 letter-s" d="M108.56,89.06l2.56-.41" transform="translate(-0.81)"/><path class="cls-4 letter-s" d="M115.12,79.82c.06.59.15,1.41.25,2.4.11,1.16.33,4.92.38,7,0,.93.06,2.3.14,4" transform="translate(-0.81)"/><path class="cls-5 letter-s" d="M115.88,95.54v.08" transform="translate(-0.81)"/><path class="cls-6" d="M116,95.54" transform="translate(-0.81)"/><path id="last-line" class="cls-2" d="M63.57,98.14c5.3.52,12.64,1.18,21.41,1.78,20.24,1.38,34.09,1.45,34.09,1.63,0,.37-58,0-58,0a189.42,189.42,0,0,1,22,.66,168,168,0,0,1,40.34,8.74" transform="translate(-0.81)"/></g></g></svg>