<svg xmlns="http://www.w3.org/2000/svg" width="166.6" height="52">
  <defs>
    <style>
      .cls-1,.cls-2{fill:#160c03;fill-rule:evenodd}.cls-2{fill:#fff}.cls-5{letter-spacing:0}.cls-6{letter-spacing:-.01em}
      .text-p {font-family: 'AllerDisplay, sans-serif';}
      @font-face {
      font-family: 'AllerDisplay';
      src: url('AllerDisplay.eot?#iefix') format('embedded-opentype'),  url('AllerDisplay.woff') format('woff'), url('AllerDisplay.ttf')  format('truetype'), url('AllerDisplay.svg#AllerDisplay') format('svg');
      font-weight: normal;
      font-style: normal;
      }
    </style>
  </defs>
  <g id="Слой_2" data-name="Слой 2">
    <g id="Слой_1-2" data-name="Слой 1">
      <path d="M33.2 45v-.3l.2.1c0 .3-.1.5-.2.3zM33.4 46.5c.2-.6.4-.7.8-.3-.1.8-.6.4-.8.3zM33.4 45l.1.2v-.6a2.4 2.4 0 0 1 .2.7c-.2 0-.3.3-.3-.3zM36 46.4c0-.3 0-.5.2-.4 0 .4-.1.4-.2.4zM36.5 37.5c0-.5.3 0 .3-.2.2.3-.3.3-.3.2zM37.6 41.2c0 .2.2.4.2-.1 0 .2.3 0 .3.5a.8.8 0 0 0 .2-.5c.2.1.3.3.4-.1v.6a1.3 1.3 0 0 0-1.2.5v-.9zM38.6 40.7c0-.4.4.5.3-.1 0-.4.2.2.1.5 0-.2 0-.1 0 0-.2-.1-.2-.4-.4-.4zM39.2 44.4a3.9 3.9 0 0 1 .3.2c0 .3-.2 0-.2.4a.8.8 0 0 1-.1-.6zM39.4 43.3a1.7 1.7 0 0 0 0-.4c.1-.2.2.3.2 0v.3c.1 0 .1-.4.3-.4v.5c0 .3-.1 0-.1-.2 0 .1-.2 0-.1.3h-.3zM40.3 38.8c.2.3-.2.7-.3.1v.4c-.3.2-.4-.1-.6.3.1-1.3.7-.4.9-.8zM39.8 45.8l.4-.2c-.1.2-.3.5-.4.2zM40.3 44c.2.2.2 0 .4 0-.1.3.1.2.1.5a.5.5 0 0 1-.5-.5zM40.4 43c.2 0 0-.2 0-.2 0-.2.1 0 .2-.3 0 .3.2.6 0 .7 0 .3 0-.1.1 0 0 .4-.2.3-.4.3 0-.5.2 0 .1-.5zM40.8 46.2c0-.4.1-.3.2-.4v.4c-.1 0-.1-.1-.2 0zM40.8 36.5c0-.4.1-.2.2-.2v.3c0 .1-.1 0-.2 0zM41.2 40.8c0-.3.2-.3.3-.1s-.1 0-.2 0v.2h-.1zM41.5 35l-.1.6c-.1-.2 0-.7.1-.5zM41.5 36.1c.1-.1.3-.4.3.2a1.1 1.1 0 0 0-.3-.1zM42.2 44.3v.2l-.2.4a1 1 0 0 1 0-.6c0 .4 0 0 .2 0zM42.6 43l.1-.2c0-.2.2.5.3 0 0 0 0 .6.1.5 0 .4 0 .3-.2.2.1-.6-.1-.2-.3-.4zM44.1 43.4v-.2-.1c.1.4.3 0 .4.2 0 .4-.2 0-.4.1zM44.3 43c.1-.5.3 0 .5-.2-.1.6-.3 0-.5.3z" class="cls-1"/>
      <path d="M6.2 38v1a1.5 1.5 0 0 1 0-.4v.2c0 .1 0 .5-.2.7.3.1 0 .5 0 .7.3-.4.2-1.5.4-.8l-.2.6v.3c0 .1 0 .2-.2.1a3.2 3.2 0 0 1 0 1c.1 0 .2.1.2.3-.2.2 0 .1 0 .5V42v.4c-.1-.1.1-.3.1-.4a4.6 4.6 0 0 1 0 1c.2 0 .2 0 .2.4-.2 0 0 .6-.2.8v.2c0 .1.2-.3.2 0v.3s0-.2-.1 0 .1.1.2.1v-.5c0 .4.1 0 .1.3v.8c-.2 0-.2-.2-.2-.2 0 .4-.1.4-.2.6s.2-.3.3 0v.4c.1.4.3.3.4.6a2.6 2.6 0 0 1 .4-.3v.3c.2 0 .1-.5.3-.6l.2.6c0-.7.2 0 .4 0v-.6l.1.4c.2-.2.1 0 .1-.4l.1.5c.2-.2.3 0 .5 0 0-.2 0-.6.2-.6 0 .4.1.8.3.5-.1 0 0-.1 0 0l-.1-.4c.1.2.2.1.3.5a4.4 4.4 0 0 1 .1-.6c0 .8.3.3.4.3.1-.1.3.3.3.3l.5-.1c.2 0 .4.3.6.2s.2-.3.2-.3c.5-.2.9.2 1.2.4.1 0 0-.3.2-.3 0 .4.1-.1.1.5.6-.1.7.3 1.2-.3.6.4 1.6-.4 1.8.5l.2-.3c.4.5.8.2 1.1 0v.4l.2-.6c.2 1 .8-.1 1.1.5.2 0 .6-.4.8-.2v-.3c.2.8.9-.1 1.1.5a1.5 1.5 0 0 1 .1-.4c.2.2.5.4.6-.1.2.8.4.1.8.4.4-.6.8-.2 1.3 0 0-.3.4.2.4-.4.8.5 1.4.1 2 .2v-.4c.5.5 1.6-.5 2-.1.3.2.7-.3.7.5 0-.8.3-.4.4-1.2.3 0 .7-.4 1-.2 0 .3-.2.2-.2.4.3.2.8-.5 1 .1 0-.5 0 0 .1.1.3-1.4 1-.4 1.3-1 0 .8.3-.2.3.4l.2-.4V45a1.5 1.5 0 0 1 0-.4c.2-.1.7-.5.4 0h.3c0 .6.2.4.2 1 .1-.7.3 0 .5-.7-.1.5.3.5.4.2.1.8.2 0 .4.3v.3c0-.1 0 0 0 0v-.3c0 .2 0 .3.2.2 0-.7.3 0 .5-.5.2.3.4 1.3.4.5v.4c.2-.2.2 0 .3-.3 0-.6.2-.5.4-.6v-.6l-.2.4c-.3-.8-.5.1-.7 0v-.5c-.2-.2-.1.4-.2.5 0-.4-.2.3-.2-.1.2-1.6.8-.8 1.2-1 0 .8.3.4.5.6.2-.6.8-.3.9 0l-.2.2.3.4.1-.6c.1 0 .2.3.3 0 0 .2-.2.5 0 .6 0-.3.2.4 0 .6 0-.1.2-.2.2-.5s-.1-.3 0-.7c-.2-.4-.4 0-.5-.4s0-.4 0-.7c-.2.1-.5-.2-.6-.4l-.2.6c-.1-.3-.4 0-.5-.4-.2 1-.6.4-.6-.3v.4c-.2-.4-.5.3-.6-.6.1.6-.1.8-.2.7V43s-.3-.1-.4.2c-.2-.4-.5-.1-.7-.7-.1.3-.3.1-.3-.3.1-.2.3-.4.5 0v-.8c-.2 0-.3-.2-.3-.8.2.1.1-.3.2-.3a1 1 0 0 1 .3 1v.2l.3-.3v.6c.1-.1 0 .4 0 .4.3 0 .6-.8 1-1.2v-.3c0-.3.3-.4.5 0a1.8 1.8 0 0 1 0-.7c.2.6.5-.4.5.1 0-.3.1-.3.2-.4a1.5 1.5 0 0 0 0 .3c0-.2.1-.2.2-.1-.1-.5-.2-.2-.3-.6 0 .5-.1.2-.2.6-.3-.5-.7-1-1-.3 0-.5-.3-.3-.2-.8-.2 0-.1.5-.3.4a2.3 2.3 0 0 1-.3-.7c0 .2 0 .3-.2.2a3 3 0 0 1 0-.7c-.4 0-.6.9-.7-.2.2 0 .4 0 .5-.3.1.5.2.1.4.2v-.5c.2.2.2-.2.2-.4 0 .2 0 .7.2.9 0-.2 0-.7.2-.4 0 .1-.2.4-.1.6 0-.5 0 0 .1.1 0-.2.2 0 .2-.3s-.1.1-.2-.2v-.3c.3.2.5-.6.7-.9-.1.5.2.6.3.3v.5a4.6 4.6 0 0 1 .1-.6c.1.1 0 .3 0 .4 0-.1.1 0 .2 0v.2c0-.7-.3-.1-.2-.7.3-.4.4.3.7.5q-.2 0-.1.4s.2.3.2 0v-.6c.1 0 0-.2.3-.1 0 .4.2.3 0 .6l.2-.3c0 .7.2 0 0 .3v-.9c-.1 0-.2 0-.3-.2s.3-.1.4-.4v.6c.2 0 .2 0 .2-.4v-.2a.9.9 0 0 0 .3.9s0-.7 0-.4v.3c0 .2.2 0 .2-.2v-.6c.1.3.3.3.3.3a3.4 3.4 0 0 1-.3-1.2c-.2 0-.5.5-.5-.1v-.3c-.1.4-.4 0-.4-.2.2-.3-.2-.2-.3.5-.3-.8-.8.3-1-.6-.1.3 0 .6-.2.8a.9.9 0 0 1 .1-.8c0-.3-.1 0-.2-.1v.4l-.3.3V34c-.5-.2-.8-.5-1.3 0v-.4c-.2-.1-.2.2-.3.3 0-.3-.3-.1-.5-.2s-.5 0-.8-.2a.5.5 0 0 1 0 .4c-2-.7-4-.3-6-.6v.6l-.1-.6c-.5 0-.7.3-1 0a1.4 1.4 0 0 1-1.5 0h-4.8v.4l-.2-.4c-1.3 0-3 .2-4.5 0-.4 0-.8-.3-1.2 0-.2 0 0 0 0 0-.6-.6-1.5.3-2-.4-.6.4-1.2-.5-1.6.1-.7-.4-1.4 0-2 0a1.8 1.8 0 0 0 .2.7l-.2.3c.2-.6-.2-.5-.1-1-.2 0-.2-.1-.4 0a4.2 4.2 0 0 1 0 .6c0-.8-.6-.7-.7-.2a1.5 1.5 0 0 0-.1-.4 1.5 1.5 0 0 1 0 .4c-.2-.7-.5.2-.5.2a.7.7 0 0 0 0-.3c-.2-.3-.4.4-.9.6v.5c0 .2-.1 0-.2-.2.1.7 0 .8.2 1.2 0 0-.1-.2-.1 0s.1 0 .1.4l-.2-.4c-.1.6.1.3.1.6-.1.2 0 .3 0 .4s-.1 0 0 .4c.4.1.2 1.3.4 1.1zm32.2-3.6v.7c.2.1.2-.2.3-.2 0-.2-.2.4 0 .7-.3 0-.5-.3-.5.2-.1 0 0-1.5.2-1.4zM6.6 42.5c-.2-.1 0-.1 0 0V42c.1-.3.2.3.3.6h-.3zm0-4.5c0-.2.2 0 .3.1s-.1.3-.1.1c0 .1 0 .3-.2.3s0-.2 0-.3V38zm.4 6.7c0-.2.1-.2 0-.4h.3a.8.8 0 0 1-.2.5l-.1-.1zm.2-4a2.8 2.8 0 0 1 0 .7c-.2 0-.2-.8 0-.7zm.7 5c-.2-.1 0-.7.1-.3v.2h-.1zm.2-9.2l-.1-.2c0-.5.2-.1.4-.6 0 .5-.2.6-.3.8zm.5 8.9c0-.4.1.5.1-.1v.6c-.1 0 0-.5-.2-.5zm2.1.6c0-.1 0-.2 0 0 .1 0 0-.6.2-.5V45.7s-.1.5-.2.2zm13.4-.9c.4 0 .3.5 0 0zm4 .7c0-.7.2-.1.3-.3.2 0-.1.7-.3.3zm2.9-3.5c.1-.1.4 0 .4.4-.2.3-.4.2-.4-.4zm.1 1.8c.3.1.5.2.6.5 0 .4-.3 0-.5.3-.1 0 0-.4 0-.8zm.9-1.7a2 2 0 0 1 0-.6c.2 0 .2 0 .3.4 0 .4-.2.4-.4.2zm1-2.4c0-.3.1 0 .2-.1 0 .5-.1.3-.2.1zm.2.4c.2-.1.2.1.3.2a5 5 0 0 0 0 .7c-.1 0-.1-.2-.3-.1a5 5 0 0 1 0-.8zm.5-2h.2l-.1.6a1.1 1.1 0 0 1 0-.6zm.5 6s-.2-.1-.2.3l-.2-.2c.2-.2 0-.7.3-.7 0 .4.2.4 0 .7l.1-.2zm.5-9.1c0-.6.1 0 .2-.4v.3c.1.2 0 0-.2 0zm.8 6v-.5c.2-.1.2 0 .3.1 0 .4-.2.1-.2.3zm.8-6.1c.1-.7.3-.3.5-.4v.5c-.1 0-.1.1 0 .1-.2.2-.3-.5-.5-.3zm.8.2c.1-.1.3.5.2 0 .1 0 .2.2.2.6-.2-.3-.2.2-.4.2v-.9zm-.3.1c.1-.2.2-.4.3-.3 0 .3-.2.4-.2.3zm.7-.6c0-.2.3-.3.4 0 0 .4-.1.5-.3.5s0-.5 0-.5zm.4 1.7v-.4c0 .1 0-.2.2 0 0 .3-.2 0-.2.3zm1.2-1h-.2a1.4 1.4 0 0 0 0-.4c0 .2.1 0 .2.2v.2z" class="cls-1"/>
      <path d="M38.3 44.7s-.3.2-.3 0c0-.4.2-.2.3 0zM35.5 37.5c0-.1 0 0 0 0v-.4c.2 0 0 .8.1.6v.3l-.1-.5zM39.7 35.8c0-.3.3 0 .3-.7.2.7-.2.8-.3.7zM30.6 46.5s0 .6-.1.5v-.1c0-.3-.2-.1-.2-.3 0-.3.3-.3.3 0zM31.2 47.1V47c0-.3-.1.1-.2-.1a1.7 1.7 0 0 0 0-.5c.6.4.7-.3 1.3 0v-.5c0 .1.3.2.4.5.1-.5.4-.5.6 0-.2.2-.4-.2-.5.3-.6-.8-1 1-1.5 0v.4zM34.3 46.4a.6.6 0 0 1 .2-.6v.4c.3 0 .5 0 .5-.4.3.2.5.4.7.2-.2 1-.7 0-1.2.7 0-.4-.2-.5-.2-.3zM36.6 41.8v-1c0 .4.2.8.3.7a3.6 3.6 0 0 1 0 .6c-.2 0 0-.4 0-.6-.2.2-.2 0-.3.3zM38 39.3a1.6 1.6 0 0 0 0 .2v.5c0-.3.4 0 .4-.6 0 .6.2 0 .2.2s-.4 0-.2.3c.2 0 .2-.2.3 0v-.7l.3.6.3-.4v.5c.2-.3 0-.7.2-.9-.2.2-.2.1-.3-.3-.1-.1 0 .4-.2.5-.1-.5-.5.2-.5-.5-.2-.3-.2.5-.5 0l.1.3c-.1.4-.2.1-.4.5.1 0 0 .4.2.3s0-.5.1-.5zm.2.5v-.6.6zM39.8 34c-.1.2-.1 0-.2 0a1.4 1.4 0 0 0 0-.4c.1 0 .1.5.3.5v.9c0 .5-.1-.3-.2-.3v-.1a2 2 0 0 0 0-.6zM40.1 44.9v-.1l-.1-.4c-.1-.1 0 0 .2-.2.1 0 .2.3.1.6v-.3l-.2.4zM40.2 35.7l.2-1.1s0 1-.2 1zM40.7 39.6h-.1V39c.1 0 .3.3.3 0 .2.4-.1.4-.2.1v.5zM40.6 35.8v-.4c.1.2.1 0 .3.2a1.4 1.4 0 0 1-.3.2zM40.7 45.5s.3-.8.2-1.1l.1-.2c.2.1 0 .4.1.8 0-.4-.2-.3-.2.3 0 .1-.1.4-.2.2zM41.3 43.8c-.2.1-.1-.4-.2-.4.3-.3.4-.3.8-.4l-.1.8c-.1-.3-.5 0-.4-.6l-.1.6zM41.4 39.3c0-.2 0-.1 0 0v-.4s0 .5.2.4c0 .3-.1.2-.2 0zM41.9 35.8c.1-.2.1.6.1 0l.1.2c.1 0-.2.3-.2-.2zM42 34.7c0 .5.3.5.5.6 0 .3-.2 0-.3.2 0-.4-.2-.3-.3 0v-.6c.1.3 0 .1.1-.2zM42 44c0-.2.2-.3.2.3-.2 0-.2-.3-.2-.4zM42 39.6v-.1-.1-.5l.3.5c-.1.2-.2 0-.3.2zM42 43c.2.1.2-.1.4 0-.1.6.1.4.1 1-.1.2-.2-.2-.2 0a3.6 3.6 0 0 1 0-.7c-.2 0-.3-.2-.3-.2zM42.6 35.4l.1.3V35c0 .2.2.2.1.6l-.2-.3zM43 44.9a4 4 0 0 1 0 1.2l-.1-.3a1.7 1.7 0 0 0 .1-1v-.2.3zM43.2 35.2c-.1.1 0-.2.1 0s0 0 0 .1l-.1.4v-.5zM44.9 43v-.6c0 .2 0 .7.2.4 0 .1-.1.1 0 .4-.2 0 0-.4-.2-.4s0 0 0 .1zM38.6 43.5v-.6l.2.3s0-.3.2-.5.2.4.3.5v.4c-.4-.4-.4 0-.7-.1zM9 24.7c0 .4-.1.2-.2.2l.1-.4.1.2zM8.2 28.7v-.4H8c0 .3 0 .7.2.6a1.9 1.9 0 0 1-.1.5c0-.7-.2-.6-.1-1.2-.1-.1-.1.3-.2.4s0-.6 0-.5v.6c0 .4-.3 0-.4.2a3.6 3.6 0 0 1 0-.8l.1.5c.1-.7.4-1.3.5-.5a1.6 1.6 0 0 0 0-.5h.3c0 .5 0 1.2-.1 1zM7.8 24.9c0 .3 0 .1-.1 0v-.4.4zM7.5 24.6v.5c-.2.5-.2-.1-.4.2a3.2 3.2 0 0 1 0-1c.1.2.2.6.4.3z" class="cls-1"/>
      <path d="M7.4 28.3c0 .4 0 .2-.1.1 0-.3 0-.2.1 0zM7.2 30.6a2.6 2.6 0 0 0 0 .5C7 31 7 31 7 30.8v-.5l.2.3zM7 25.7a.7.7 0 0 1 0-.4c-.1 0-.2.5-.3.2s.2-.2.3-.3v.5zM7 26.8c-.4 0-.4.2-.7 0 0-.6.3.2.4-.6V26s.2 0 .2-.2a3 3 0 0 1 0 .9zM6.6 25v.5c-.2 0-.3.3-.4-.4 0 0 .2.2.1-.3.2 0 .2.4.3 0v.2zM6.6 29l-.1.3c-.1-.2-.2-.6-.3-.4.1-.7.3.1.4 0zM6.5 34.2c0 .2-.2.5-.2.2v.6c0 .2-.2-.1-.2.1v-.8c-.1.3-.3 0-.3.5v.2s.2-.5.2.1c-.1-.2-.3.3-.4 0a6.1 6.1 0 0 0 .1-1c.2.6.4-.5.5.3V34c0 .2.1 0 .3.3zM6.3 26.8c-.1.2-.3.4-.3 0s.2 0 .3 0zM6.1 31.2c0 .3 0 .2-.1.2v-.6c0 .2 0 0 .1 0a.9.9 0 0 0 0 .4zM6 35.7c0 .6-.3-.2-.3.4a1 1 0 0 1 0-.6c.1.3.2 0 .3.2zM5.8 25.2a1.1 1.1 0 0 1 0 .4c0-.2-.1 0-.2-.1s.2 0 .2-.3zM5.8 29.5l-.2-.1.2-.5v.6zM5.6 29.4c0 .3-.1.3-.1.1s0-.4.1-.1zM5.6 36c0 .4-.2-.3-.3.1v-.6c0 .4.3 0 .3.5zM5.5 25.7c-.1-.3-.2.5-.2-.2l.1-.3v.5zM5.4 29.3c0 .4-.2.1-.2.5l-.2-.5c0-.2.3-.1.4 0zM5.2 26c0 .1 0 0 0 0v-.2c0-.2 0 0-.1-.1 0-.5.1 0 .1.2zM5.2 35c0 .5-.1.3-.2.5 0-.2.1-.9.2-.5zM5.2 31.7c0 .2-.2.1-.2-.3.1-.1.1.3.2.3z" class="cls-1"/>
      <path d="M4.4 35.5V35s.2.2.3-.2v.7c0 .2.2.2.2-.1 0-.2 0 0 0 0a1.7 1.7 0 0 1 0-.5c0 .2 0 .2.1 0v.7l.1.5c-.3 0-.4-.5-.7-.6zM4.7 31.3q0 .3-.1.2c0-.5 0-.3.1-.2zM4.6 32.6c0 1.2-.2.2-.3.6v-.7c.1-.2.2.4.3.1zM4.6 34h-.3c0-.3.3-.5.3 0zM4.3 34.9a2.7 2.7 0 0 0 0 .5l-.1-.4c0-.3.1-.3.1-.1zM4.3 27.9v.3c0 .3-.1.3-.2.3V28s0-.4.2-.1zM4.2 34c0 .3-.2.2-.2.2v-.5c0 .1 0 .3.2.2zM4 33v.5c0 .3 0-.4 0 0l-.1-.4v.5-.7c0-.1.1.2.2.1zM4 28.6c-.2-.7-.6.5-.8-.5.1-.2.3.3.3-.3v.4c.2-.4.4-.3.5-.4a4.3 4.3 0 0 1 0 .8zM4 27.3c0 .4-.1 0-.2 0l.1-.3v.3zM3.7 29.2l-.2.4c0-.4.1-.3.2-.4zM3 28v.6c0-.2 0-.3-.1-.2a.5.5 0 0 0 0-.2c0-.2.1.1.2-.1zM20.3 25.6V25.7c-.2.2-.4-.2-.6-.2s-.6.4-.7.2l-.1.7c-.1.1-.5.3-.6.1s-.2-1.2-.4-.8c0 .5 0 .1.1.4 0 .4-.3-.1-.4.3 0-.5-.1-.6-.3-.6a4 4 0 0 1 0 1c-.2 0-.2-.5-.3-.6s0 .4-.2.2a3.2 3.2 0 0 0 0-.6c0 .1-.1.5-.2.3a3.6 3.6 0 0 1 0 .7 6.1 6.1 0 0 1 0-.8c-.4 0-.4-.3-.6-.3a3.7 3.7 0 0 1 0 1 .7.7 0 0 0-.1-.3l-.2.6a1 1 0 0 0-1-.6 2.7 2.7 0 0 0 0-.5c-.2 0-.3.1-.4-.1v-.5-.1c0-.4 0 .6-.2 0v.4c-.2 1.2-.7-.3-1 .6-.6-.5-1.4.1-1.9-.8l-.1.4c-.1-1-.4.2-.5-.5a.9.9 0 0 0 .1-.6c-.1 0-.1.3-.3.1 0 .6.2.5.1 1.1-.5-1.5-1-.9-1.5-.2 0-.3-.2 0-.2-.4 0 .5-.2.2-.3.9 0-.7-.2-.3-.3-.5a2.2 2.2 0 0 1 0 .4c-.4-.3-.6.2-.8-.2 0 .5-.1.2-.2.5s.3-.3.3.1c-.1.8-.6.2-.9 1-.2-.6-.5.1-.8.2a1 1 0 0 0 0-.4v-.4c-.2-.5-.3 1.3-.5.6-.1.4-.3.4-.4.2v-.8l-.2.4c0-.5-.2-.3-.2.1l.4-.1v.6c-.1.2-.4-.3-.4.5a6.8 6.8 0 0 1 1.6-.3 4.8 4.8 0 0 1 0-.4c0 .5.2.1.2.7l.2-.7c.4.2.9-.4 1.3-.5v-.5l.1.6c.8-.5 1.2-.2 2-.6a4.8 4.8 0 0 0 .1 1c0 .3-.1-.2-.2-.4-.1.4-.4 0-.5.5l-.1-.5v.5c-.2-.1-.3-.2-.4.1 0-.3-.2-.2-.3-.4l-.1.3v.9s.2-.4.2 0c0 .5-.2 0-.2.4.1.3.3.3.4 0a2 2 0 0 1-.1-1.3c.1.3 0 .7 0 .8s.2-.5.3 0q-.1-.1-.1.4c.1.4.2-.6.3-.3a.7.7 0 0 1 0-.4l.2.1c0 .4-.1 0-.2.4.3-.3.6.7.7-.1.3.7 1-.4 1.2.2l-.1.5c-.2-.4-.4-.2-.5.1-.4-.9-.7 1-1.2.3v.4c-.3-1-.6.3-.8 0v.3c0-.5-.2-.3-.2-.6 0 .5-.2.2-.3.2v.5c0-.2 0-.6-.2-.5 0 .7-.2.4-.2.8s.3-.6.3.3c-.2.1-.4 0-.3.5 0 0-.1.4-.1 0 0-.2 0 0 0 0a6.3 6.3 0 0 0 0-.9c0 .3-.2-.2-.3.1.3.4 0 .6 0 1 0-.2-.1-.4-.2-.3v.5a2 2 0 0 1-.2-.5v-.7s.2.2.2 0c-.2-1-.5.8-.7 0 0 1 .3.5.4.3l.1 1.1a2 2 0 0 0-.1.7s0-.3-.1-.2c0 .5-.2.5-.2.5v-.9c-.2-.4-.2.8-.2 1.1V33l-.1.5c0-.2-.2-.1-.2-.5a2.6 2.6 0 0 0 .2-1c-.2.3-.4 1-.4.2v.6a1.6 1.6 0 0 1 0-.5c-.2.2-.2 0-.4 0v.5c.1 0 0-.4.2-.3 0 .9.2.1.2.9 0-.6 0-.2.1 0v-.7c.1.4 0 .6.2 1 .2-.1.8-.2.9.6a.6.6 0 0 1 0-.4c.1 1.1-.2.9-.3 1.8 0-.2-.2 0-.2-.4 0 .7-.3 0-.3.8a5.9 5.9 0 0 1 .9-.3 1.3 1.3 0 0 1 0-.9c0 .6.1.2.2.5 0 .5-.2 0-.2.5s.2 0 .4-.1l.2.2c.2.2.4-.6.6-.1a1 1 0 0 1 .2-.4c.4.4 1 0 1.5-.3 0 0 0 .4.1.3.1-.4.3 0 .4-.6l.1.6c.4-.4.9.2 1.3-.2.5.7 1.2 0 1.7.4.2 0 .4.4.6.4.4.1.8.5 1.2.3.3.8.7.3 1.1.3.2 0 .4.7.6 0 .2.6.4.2.6 0 .7.6 1.2-.3 1.8 0v-.3.3c1 0 1.8.4 2.8.5V37c.4.8.9.6 1.3.8v-.4c.2.6.6.6.8.2 0 .5.1 0 .2 0 1.6-.2 3.3 1 5 .5a2.1 2.1 0 0 0 0 .4 3.8 3.8 0 0 0 2-.5c.4.4.8-.3 1.3.3a2.2 2.2 0 0 1 0-.4l.1.5c.2-.4.4.4.6.2s.1-.4.1-.5l.2.4c.7.8 1.6.4 2.3-.4a4.4 4.4 0 0 0 3.3 0 1.9 1.9 0 0 1 .1-.6v.4a4.2 4.2 0 0 1 1.9-.1v.7c.2-.3.2-.3.4 0 .3-.7.2-2.6.3-4.2L42 34a2 2 0 0 0 0-.9v-7.6a2.3 2.3 0 0 0-2.8 0c-.3-.5-.5 0-.7 0-1 .6-2-.5-3 .8 0-.5-.3.1-.5-.1v0c-.2 0-.3-.2-.4.1v-.4c-1 .5-2.2-1.2-3.1 0a3.4 3.4 0 0 0-2 .2c-.1-.7-.2-.1-.3 0-.4-.8-1 0-1.5 0v-.6c-.1.4-.3 0-.5-.2a4.5 4.5 0 0 1 0 1.2c-.3-.1-.6-1.1-.8 0 0-.7-.1.1-.1-.6-.1 0 0 .4-.2.4-.2-.5-.4-.8-.7-.3l-.1-.3c-.5.5-1 1.3-1.3.8l-.1.6a2.6 2.6 0 0 0 0-.5c-.2.3-.4-.3-.5.2 0-.6-.3-.5-.3-.3v-.3c-.4.3-.7 0-1 0a.9.9 0 0 1-.1.6c-.2-.2-.8.2-1-.9s0 .3 0 .3-.2-.4-.3-.3c0 .4-.2.3-.2 0 0 .1-.1-.3-.2-.2zm-11.2 5c-.1.1-.1-.2-.1-.4l-.1.9c0-.3-.2-.2-.2-.4a1.5 1.5 0 0 1-.2.6c-.1-.8-.4.3-.5-.2.3-1.1.7-.3 1-1v.5zM27 30a2 2 0 0 1-.2-.6l.2.6zm-6.8-3.6a3 3 0 0 1 0 .5v-.2-.3zm-8.4 4.2v.5a2.1 2.1 0 0 1 0-.4c0 .3 0-.2 0 0zm-.4-1.9c0 .6-.1 0-.2 0 0-.3.2-.2.3 0zm-.2 1c0 .4-.3.6-.3.4.1-.6.2-.3.3-.4zm-1-4.2c0 .5-.1.2-.2.3 0-.5.2-.5.2-.3zm-.2 5.8c0 .3-.1.4 0-.2v.1zM10 28v.5c-.2 0-.2.3-.4 0 0-.6.3-.2.4-.5zm-.3 2.5c-.1.3-.2.2-.4.4 0-.8.2-.9.3-.9l.1.5zm-.2 1.7c0 .2 0-.2-.1 0 0-.4 0-.2.1-.3a.5.5 0 0 0 0 .3zm-.1 1v.3c0 .1-.1-.3-.1 0-.1-.2 0-.5 0-.4zm-.2-.5a10.3 10.3 0 0 1-.1-1.5v1.4zm-.2-.2s-.3.2-.4 0c0 .9-.5.6-.1.3 0-.1-.1-.9-.2-.3a3.4 3.4 0 0 1 0-.6c0 .2.2-.5.2.2.1-.3.3-.2.4-.2v.4c0 .2 0-.4.1-.3a2.7 2.7 0 0 1 0 .4zm0 1.8c0 .5-.3.4-.2 0 0-.4 0 0 .2-.1zm-1-2.7c0 .3-.2.6 0 .7a4.9 4.9 0 0 0-.1 1.2c0-.2-.2 0-.2-.4.2.3.2-.5.1-.9 0 .1 0 .2.1.1v-.2c-.1-.4 0-1 .1-.6zm-.1 2.7v.1l-.1-.2v-.5.6zm0-.2v.6a2.5 2.5 0 0 1 0-.6zm-.2.7s-.2-.4-.2 0a1 1 0 0 1 .2-.9v.9zm0-2.3c0 .2 0 .5-.1.4-.1-.4 0-.6 0-.4zm-.5-.2a.5.5 0 0 0 0-.3 5.1 5.1 0 0 1 .2 1.7c-.1-.2-.3-.2-.4-.3s.1-.2.2-.2c-.1-.6-.3-.5-.4-.1 0-.8.2-.2.1-1 0-.3.1.2.1-.4l.2 1v-.6.2zm.2 2.5a3.2 3.2 0 0 0 0 .6 3.4 3.4 0 0 1-.1-1.2h.1v.6zM8.7 24.9c0-.2-.2-.1-.3-.2V24c.1.7.2 0 .3.9z" class="cls-1"/>
      <path d="M6.9 29.3l.2.1a2.8 2.8 0 0 0 0-.7c0-.3.2-.2.2.1s-.1 0-.2.1c0 .5.2.4.2.6-.1.2-.3 0-.5.4v-.6zM5.6 34.7v-.3a2 2 0 0 1-.3 1v-.6c0 .4.3-1.1.3-.1zM5 33.5v-.3.6c-.1-.3-.1.4-.2.3v-.4l.1-.6c.1-.1.1 0 .2.4zM4.8 32.6v.4h-.1v-.2-.2.3l.1-.3zM4.4 31.6c0 .6-.2.1-.3 0 0-.4.1-.4.2-.4v.4zM4.1 35.5c.1.3-.2-.2 0 .2 0 .3-.1 0-.2.2a1.6 1.6 0 0 0 0-.5c0-.7.2-.4.3-.3s-.2.3 0 .4zM3.6 33.1s0 .4.2.4v.4c-.1 0-.1-.7-.2-.4-.1-.2 0 0 0-.4zM3.6 27.5v-.1c.1.3-.1.2-.1-.2z" class="cls-1"/>
      <path d="M7 28.8a1 1 0 0 0 0 .4c-.1 0-.2-.1-.3-.4v-.5c.1.5.3-.3.4.5zM29.9 18.4c0 .2-.3.2-.3.4v-.4h.3zM25 19.2c-.2 0-.2-.2-.3-.2 0-.2.3 0 .2-.2.3 0 0 .1 0 .4zM23.5 19v.3c-.4 0-.4-.2-.8 0 .2-.3.5-.5.8-.4zM23.6 27c-.2 0-.3-.3-.2-.5l.2.4zM21.2 18.7a.4.4 0 0 0 0 .2l-.4-.3c0-.2.3 0 .4 0zM19 26.1c-.1-.1-.3.2-.3-.2l.1-.1.2.3zM17 26.3c-.3 0 0-.2 0-.3-.2 0-.2.2-.3.3 0 0-.3 0-.2-.3h.5c.2 0 0 .1 0 .3zM16.4 26.1l-.3.2c-.3-.3-.5.2-1-.2.3-.3.7 0 1-.2 0 .2 0 .3.3.2zM10.8 18.7c.3.1-.2.2-.2.3l-.2-.2c0-.3.4 0 .4-.1zM9.7 18.6c0 .3-.1.2-.3.1 0-.2.2-.2 0-.3.3-.4.2.4.3.3zM9 19v.2c-.3 0-.4 0-.4-.3h.3zM7.8 19.1c-.1.1-.3.1-.2.4-.5 0 0-.6.2-.4zM7.6 18.4c-.1 0-.1.3-.3.3v-.2c0-.2.2-.1.3-.1z" class="cls-1"/>
      <path d="M46.2 20.4a.2.2 0 0 0 .2-.2c-.1.4-.1-1.1-.4-.5-.4-.5-1-.3-1.6 0a.4.4 0 0 0-.7 0c-.2-.3-.7-.2-.8-.5.2 0-.2-.3 0-.3.3.5.8-.3 1.1.2.1-.3-.2-.1-.2-.4.4-.2.4.1.2.1.1 0 .6.2.8 0h-.2s0-.3-.2-.3c-.4-.2-1.4.3-1.7 0 .1 0 .2 0 .2-.2-.1 0-.2 0-.2-.2h-.3c0 .1-.2 0-.3.2-.2-.5-1.3 0-1.6-.3a7.3 7.3 0 0 1-1.5.3.8.8 0 0 1-.2.6c-.2 0-.3-.2-.4-.4-.2.3-.2 0-.7 0v.3c.2.2.6.3.8 0v.5c-.4.6-.8 0-1.3.3-.2-.2-.6-.6-.7-.1.2-.3-.4-.7-.1-.3-.1 0-.3 0-.3-.2l.1-.3a2.3 2.3 0 0 0 1.3 0c-.3-.4-1 .2-1.1-.3-1 .5-2 .9-2.6.4.1.7-.4.7-.7.9-.2-.2-.5-.6-.7-.2 0-.2.3-.2.1-.4a1.4 1.4 0 0 0-.6.3s0-.2-.2-.2c-.1.3.2 0 .1.3-.2-.2-.5 0-.6-.4-.5.3-1.1-.1-1.6 0 0 .3.2.3.3.6-.6 0-1.4-.3-1.6.5.3 0 .5-.4.8 0v-.3l.3.1.1.4c-.5 0-.6.5-1.1.3l-.1.4-.4.1c0-.2-.3-.4-.1-.4s0 .3.2.2v-.5c0-.3.2 0 .2 0-.2-.2.2-.5 0-.6.3 0 .3-.2.5-.3-.4 0-.5-.3-.9-.3l-.1.3c.2 0 0 .4.2.5a1.9 1.9 0 0 1-1.1.2c.1-.2 0-.1-.1-.3.1 0 .5.2.5 0a.1.1 0 1 1 0-.2.4.4 0 0 0 .2.4c0-.1 0 0 .1 0 0-.2.4-.3.2-.4-.1.3-.3 0-.4 0 .3 0-.1-.3 0-.3l.3.2c0-.7-1.3-.8-1.5-.3h-.5l.1-.2c-.4-.2-.5 0-.7.2.3 0 0 .5 0 .7.3.2.7-.3 1 0 0-.3.1-.3.2-.5v.6c.1 0 .2 0 .2.2 0 0-.3-.2-.3 0 .2 0 .3 0 .5.2-.2 0 0 .1 0 .2-.2-.4-.6 0-.6-.5l-.3.1c.2 0-.1.2 0 .3s.4-.2.5 0c-.3 0-.5.3-.6.6l-.5-.5a.2.2 0 0 1 0 .3c-1.3.2-1.7-.5-3 0l.1-.5h3.4c-.2-1-1 .3-1.4-.3-.1.5 0-.4-.3 0 .2 0-.2 0-.2-.2s.3 0 .3-.3c-.6.1-1 1-1.6.5 0 .2-.3.1-.4.4 0-.7-.1-.5-.2-1a2.1 2.1 0 0 0 .6.3c0-.3.3 0 .5-.2-.6 0-1 0-1.3-.3.1.3-.1.2-.2.3s.3.2.4.3l-.1.1c-.1 0-.4-.3-.5-.1.1 0 .3.2.1.2-.2-.2-.1-.5-.3-.6-.3.2-.8-.3-1 .2-.3-.4-.4-.3-.8-.5a1.3 1.3 0 0 1-1.2 0s-.7.2-.6 0a1.3 1.3 0 0 0 .7-.1V19a.8.8 0 0 1-1 0c0 .3-.2.2-.3.1 0 .1 0 .3-.2.4v-.3a.6.6 0 0 1-.2.3c-.1-.5-1.6-.3-1.3-.3-.2-.2-.5 0-.7-.1 0 .3.3.6-.1.7v-.3c-.4 0-.1.4-.5.4 0-.2-.3-.5-.5-.4v-.3s.3-.1.1-.2c-.1.2.1 0 0-.2-.5.2-.2 0-.6-.1.2 0 .3-.1.4-.3-.4 0-.5.4-.9.5.2 0-.2.2 0 .2l.4-.1c0 .4 0 .5-.4.4.1 0 .2-.1.2-.3-.2 0-.1.2-.2.2s-.4 0-.4-.2c.1 0 0-.2.2-.2s0 .1.2.1a.3.3 0 0 0-.3-.3c0 .3-.2.3-.4.3 0 .3 0 .3-.2.2 0 .6-.5.3-.6.7-.3-.4-.7.3-.8 0 0 0 0 .1 0 0-1 0-1.3-.3-2.2.1-.1-.3-1.2-.2-1-.2-.2-.2-.3-.2-.6-.1-.2-.4 0-.2.3-.5 0 .1.4.3.5 0a5 5 0 0 0-2-.3c0-.5-.7-.3-.7.2a1.5 1.5 0 0 0 0-.6h-.4c0 .2-.2.5-.3.3s.2 0 .2-.2c-.3 0-.6.2-1 0 0 .2-.3.1-.4 0-.2.1.2.1.1.4a.3.3 0 0 0-.2 0l-.1-.2s.2.3.2 0c-.1.1-.1-.1-.2-.2s-.2.3-.4.2a.4.4 0 0 1-.1.2c.1.2.2-.2.3 0 0 .4-.3 0-.2.3.2 0 0 .3.2.6-.1-.3-.2.3-.3 0l.2-.2c-.1-.3-.4-.3-.2-.5-.2-.1-.2.3-.3 0 .2 0 .2-.2.3-.4-.2 0-.6-.1-.3-.3-.2-.1-.5 0-.3.1 0 .2.3.5-.2.3 0 .2-.2.6-.4.4.2 0 .2-.1.3-.2 0-.2-.2-.2-.3-.3l.1.4c-.3 0-.2.4-.4 0 0 .3-.3.4-.1.6 0-.2.1.1.2.2-.4.1 0 .8-.3 1a.5.5 0 0 1 .2.1.5.5 0 0 0 .1.9c-.3.5-.1.7-.1 1 .1 0 .3-.1.4 0a1 1 0 0 1-.5.5c0 .8-.2 1 .1 1.6-.3 0 0 .5-.2.7.1 0 .4 0 .4.3s-.2.1-.2.3h.5l.4-.4c0 .4.7-.1.5-.3.2 0 0 .3.2.3s.2-.4.3-.2-.2-.1-.2.2c.3.1.3-.1.5.2a2.3 2.3 0 0 0 .2-.6c.2.2 0 .2.2.3 0 0-.4 0-.2.1s.4-.2.6-.3v.2c0-.2.4-.4.7-.6 0 .2-.2.4 0 .5.5 0 1.2-.3 1.5.1.1-.2 0-.6.4-.6a.2.2 0 0 0 0 .3c.4-.2.5.3.8 0 .5.5 2-.5 1.8.7a5.2 5.2 0 0 1 1.3 0V26c0 .2.2 0 .5 0-.3-.2 0-.2 0-.4-.1-.3-.3.2-.4 0 0 0 .1-.1 0-.2.2.1.2 0 .4 0 0-.3-.4-.4-.2-.6a1.2 1.2 0 0 1 .3.2c0 .4 0 .3.1.1 0 .4.1.4.3.5a.3.3 0 0 0-.4.2c.5-.1 0 .3.2.3s0-.4.2-.4l.1.3a.5.5 0 0 1 .6 0 1 1 0 0 1 0-1.1c0 .2.1 0 .2.1a.5.5 0 0 0-.2.7 10 10 0 0 0 1 0c.1.1 0 .5.3.5.3-.2.5.1.8-.2 0 .3.4.1.1 0l.3.1c0-.2.2-.3.3-.5l.3.1c0 .3 0 .4.2.4 0-.5.3-.5.6-.4.1-.2-.1-.3 0-.4a2 2 0 0 1 1 .3c.1-.2.4-.1.4-.4-.4.1 0-.3-.3-.1v-.6c.1.2 0 0 .2 0a.6.6 0 0 1 0 .4c.4.2.4.2.4.6.1-.3.4 0 .4.1.4-.2.6.1.8.4v-.5s.3 0 .3.2c.2-.3.5 0 .5-.4 0 0-.1.1-.2 0a2.6 2.6 0 0 0 .5-.8c-.5 0-.5-.2-1 .2 0-.4-.3-.2-.3-.6.3.1.2 0 .3-.2.3 0 .3.3.6.3.3-.1 0-.3.2-.5.1.5.2 0 .4.5.3-.1.8-.5.7.2-.3 0-.7.5-.8 0 0 .4-.3.5-.4.8.1 0 .1.3.3.3.1-.2.2-.6.4-.3-.4.2 0 .5 0 1 .3 0 0-.3.3-.3.2.2.2.3.4.3l.1-.3c.1 0 0 .1 0 0-.1 0-.2 0-.2-.2-.3.2-.2-.2-.4 0 0-.5.4-.6.7-.9a2.7 2.7 0 0 0 1.4 1.6c0-.4.3-.2.5-.3 0 .4.4-.1.2.2a.7.7 0 0 0 .5-.2 3.2 3.2 0 0 1 .5.5 1.2 1.2 0 0 1 .2-.3c.2.2.6.2.7 0 0 0 .1.3.1 0s0-.2-.2-.3a.2.2 0 0 1-.1.1c0-.3-.3 0-.4-.3.1 0 0-.2.2-.2 0 .3.5 0 .3-.2 0 .1-.2.1-.2 0 .1 0 .3-.3.4 0v.3c.2 0 .2.1.4 0 .4 1.1 1.5.7 2 .6a.2.2 0 0 0 .2.2c0-.3.2 0 .4 0s1-.5 1.4 0a11.3 11.3 0 0 1 3 0c.3-.1.6 0 1-.2-.1.3 1.5 0 1.9 0l.7.1a3.2 3.2 0 0 0 1 0c1.1 0 2.7-.2 3.3 0a.5.5 0 0 1 1 0 9.6 9.6 0 0 1 3-.1c.5-.5 1.4 0 2-.4.5.2.4-.3.8-.1 0-.2.1-.2.2-.3-.2 0-.4.2-.4 0s.3-.2 0-.4a1.2 1.2 0 0 1 .4-.1v-1c-.4-.1.2-.8-.4-.9.5-.7-.5-1.3 0-2.1-.2 0-.2 0-.2-.2l-.2-.4zM11 25.7l-.1-.2c0-.2.4-.1.2-.5.2 0 .1.2.2.2-.1.2-.4.2-.3.5zm9.4-4.5c0-.3-.6 0-.7-.2l-.2.2c0 .2-.3-.1-.3-.2 0 0 0 .2-.2.2s0-.2 0-.3c-.1.1-.3.1-.1 0-.2.2-.3 0-.4 0v.3a.4.4 0 0 1-.5-.2c0 .4-.4 0-.5.3.3 0 0 .3-.2.2V21c-.3.2 0-.1-.2-.2s-.1.1-.1.3c0 0-.3-.5-.3 0 0-.1-.2 0-.2-.3 0 .2-.3 0-.3.1s0-.3.2-.4-.2-.1-.3-.2-.1 0-.2 0c.2.2.1.2 0 .4-.2 0-.1-.5-.2-.3-.2-.2.4-.1.2-.5 0 .1.2 0 .4 0 0-.2-.1 0-.3 0 0-.4.3 0 .3-.2.1.1.4.5.5.3 0 0-.2.4.3.3l-.2-.5.3.1a.5.5 0 0 0 0 .3c0 .2 0 0 .2 0v-.6c0-.2.2.2.2.3v-.3c.2 0 .2-.2.4-.1 0 .1-.3.1-.2.4s.2 0 .3.1c-.5.4.2.2.6.4v.2c0 .1 0 0 0 0 .2-.1.7 0 1.2-.2l.2.3c.2-.2-.5-.4-.1-.4a.5.5 0 0 0-.4-.2c0-.2.3 0 .3-.2.1.1.4.4.2.6.2-.4.9-.1.7-.5.2-.2.4.4.6.4-.3.6-.4.6-1 .7zm-7.8-1c-.1.1.2.4.4.4s0 0-.1 0c0-.2.1-.4.3-.3 0 0-.2.1-.1.4.4-.3 1.1 0 1.6-.1.2-.5.6-.1 1 0v.2a.5.5 0 0 1-.4.4c-.2-.4-.9 0-1.2-.4-.2 0 0 .3-.3.3v-.3a.7.7 0 0 0-.7.5c-.1.2-.2-.3-.3-.4-.3.1-.6-.3-.6.2-.1 0 0-.3-.2-.3.2 0 .5-.4.6-.2.1-.1-.3-.5 0-.5v.1zm23.6-.9c.1 0 0 0 0 0l.1.3c.1 0 0 0 0 0H36v-.3s.1.1.1 0zm-1.7.1c0-.2.3 0 .4 0 0 .2-.3.2-.4.4s.2-.4 0-.4zm-1.6 2c0 .4-.2.1-.2.3s0 0 0-.1v-.2zm0 .4c0 .5-.3.2-.7.3.1-.3.3-.3.7-.3zm-2.5 0c-.3 0-.4.5-1 .4 0-.3.3-.5 0-.6.3-.3.7.3.8-.2.2 0 .2.2.2.4zm-.6 1c0 .2-.2.1-.4 0 0-.2.2 0 .4 0zm-.1-.4c-.1.2-.3.2-.5.2 0-.4.4-.3.5-.2zm0 1.3c-.3 0-.3-.1-.3-.4h.2a.6.6 0 0 1 0 .4zm-1 .3c-.1 0-.2 0-.2-.3h.1a.3.3 0 0 1 .1.3zm-4.5-2.6c0 .3-.1 0-.2 0l.2.5c.7 0 .8-.7 1.3-.4-.3.2.2.3.3 0 .2.1 0 .3.1.4.2-.1.5-.2.5-.6.2.2 0 .6 0 .7a2.3 2.3 0 0 1 .8-.1l-.2-.1a1 1 0 0 1 .7-.4c0 .2.2.2.3.2-.5.3-1 .8-1.4.4-.3.3-1.1 0-1.5.4L25 22c-.6.2-1.3 0-1.7.2l-.1-.4c-.2.2 0 .4-.4.2-.2.1 0 .3 0 .4-.2 0-.2.2-.2.4-.7 0-1-.3-1.8-.4 0-.2.1-.3 0-.4.4 0 1.3.5 1.8.1-.3-.1-1 0-1-.4.6-.3.6.2 1 0 .3 0 .5-.6.9-.6v.3a.6.6 0 0 1 .8 0zm3.3 1.7h.2s0 .5-.2.4l.1-.2c0-.2-.3-.1-.1-.3v.1zm0-2.4l-.1.2h-.2c0-.2 0-.1-.2-.1a.3.3 0 0 1 .3-.2l.2.2zm.1 3.3c0 .2-.3 0-.5 0-.1-.4.4 0 .5 0zm-.3-1.1c.2 0 0 .4-.3.3 0-.2.3-.1.4-.3zm-.5-3.5c0 .2-.4 0-.4.3-.3-.2.2-.6.4-.3zm0 1.5v.2c-.4-.1-.2-.4 0-.2zm-.4 3.8c0 .2-.2.2-.3.2l-.2-.1a.5.5 0 0 1 .5 0zm-.6-1.4c-.2-.2-.4.1-.6 0l.2-.2c.1-.1.2 0 .4.1-.2-.2.1-.1 0-.4.4 0 0 .4.2.8-.2-.1-.3 0-.3.2a.3.3 0 0 0-.3 0c0-.3.4 0 .4-.5zm0 .7c.1.2-.3.3 0 .6a.6.6 0 0 1-.6-.4c0 .1.3 0 .4.3v-.3c0 .2.2 0 .2-.1zm-1-.5c-.2.1 0 0 0 .3h-.2l-.1-.3zM22 23c0 .1 0 0 0 0-.2.1 0 .4.1.4 0-.4 1-.3 1.4-.2-.5 0-.6.3-.7.6v.2c0-.3.4 0 .1 0 .4.3.7 0 1 0v.6a.2.2 0 0 1-.2-.3c-.2.2-.4 0-.5.3 0 .2 0 0 .3 0s-.3.2-.2.4c-.1 0 0-.4-.3-.5a1 1 0 0 0-.8.2c-.3 0-.3-.2-.5-.3l.2-.4a2.6 2.6 0 0 0 .7 0c-.2-.9-1 .2-1.4-.5-.2.1-.5.4-.7.3s.3 0 .2-.2-.2-.1-.3-.1l.3-.3-.1-.2c0-.2.2.3.2 0 0 .1 0 .3.2.3s-.1-.3 0-.4c.1 0 .2.3 0 .4a7.9 7.9 0 0 1 1-.3zm1.2 2.5v.5H23c.2-.2 0-.2-.1-.6 0 .1.2 0 .4 0zm-1.7-3.7c0 .4-.3.2-.4 0 0-.3.1.2.4 0zm-.4 2.7c.2-.1 0-.5.5-.4a.6.6 0 0 0 0 .5c-.3.2-.6-.4-.8.2l-.1-.2v-.3a1 1 0 0 0 .4.2zm-.4-3c-.3.5-.6.4-1 .6-.3-.7-1 .3-1.1-.4.1 0 .2.2.3 0l-.1-.2c.2 0 .2.2.2-.1 0 .1.4-.1.3.2.3-.3.7 0 .7-.2.2.2.4 0 .7.2zM15 23.3c0 .2-.2 0-.3 0 0 .2.3 0 .3.3l.4-.6c.3.1.4-.4 1-.3-.1.5.8.8 1 .4a.3.3 0 0 1 0 .4.3.3 0 0 1 .2 0h.1c.3-.1-.2-.2-.1-.5v-.1c1 .2 1.5-.2 2.3.4.2-.1 0-.2 0-.3.3 0 .3.1.4-.1.2 0-.1.3.2.3-.1 0-.2.1-.2.4 0 0-.2-.2-.2 0-.3-.1-.5 0-1.1.2.2-.2-.2-.4-.3-.5 0 .3-.1-.1-.5 0 0 .2.2 0 .3.1v.2c0 .4-.5.2-.6.5-.2-.2-.5 0-.6 0 .2.2-.3-.1 0-.2-.2-.2-.5.1-.2-.3a.3.3 0 0 1-.2.1v.3c-.4 0-.5 0-.7-.2v.4c-.4-.2-.6 0-.9-.2-.1 0 0 .5-.2.4.2-.2-.2-.2-.2-.4-.3.4-.7-.1-.7.3 0 .2-.2-.2-.3-.3s-.4.3-.4 0c-.1 0-.3 0-.4.2s-.2-.3-.2 0c-.3-.2-.4-.2-.7 0 0 0-.2-.1-.2-.3a.2.2 0 0 0-.2.2h-.3c0-.2.1 0 .3-.1-.2-.3-.3 0-.5-.1-.1 0-.3.2 0 .2 0 .2-.3 0-.4 0a1.3 1.3 0 0 1 .5-.4c-.6-.4.5-.6 1-1l-.2.1c0 .3.3.2.4.3.2 0 0-.5.4-.3 0-.3 0-.5-.3-.5-.1-.3.2-.1.2-.3.2.1 0 .2.2.4.4-.3.6.6.9.4.2 0-.2.2 0 .3 0-.2 0 0 .3 0v.5l.3-.4c.2-.1.2.1.4.1zm0-.6a.4.4 0 0 0 .2.3c-.2.4-.4-.1-.7.1 0-.3-.6-.2 0-.5 0 .4.4 0 .5.1zm-1-.3c0-.2-.2 0-.3 0 .3-.8 1-.3 1.5-.6-.1-.1-.4 0-.5-.3a.3.3 0 0 0 .3-.2c0 .3.6.8.8.2l1.6.2c0 .7-.9.7-1.2.5-.2 0-.2.2-.3.3-.3-.3-.7 0-.6-.2-.1 0-.2 0-.2.2-.5-.1-1-.2-1.3.1-.4-.2 0-.2.3-.2zm-3.3 1.5c0 .1.1.2 0 .2 0 .3.2-.2.2 0s-.3.1-.4.4v-.2a.5.5 0 0 1 .2-.2c-.2-.1-.4.1-.4-.3-.4.4-.5-.3-.8 0 .1-.4.6-.2.7-.5.2 0 .3.2.3.3h.3c0-.2-.3 0-.2-.3.1.2.4.2.5.2 0 .3-.1.4-.4.4zm7.5-4.1c0-.3.4 0 .3.2h-.3c.2-.3.2-.1 0-.2zm.2 2.1c0 .1-.1 0-.1 0l-.4.1c0 .2.3-.3-.1-.3 0-.1.2 0 .2-.2.2 0 .3.3.4.4zm-.7 2.5c.1 0 0 .2 0 0l-.1.2h-.3c0-.3.2-.2.1-.5.3 0 .2.3.3.4zm-.4-1.8c0 .4-.4-.1-.4.4l-.1-.3h.6zm-1 2.3c0 .3-.3.2-.4.2 0-.2-.1-.2-.2-.3h.3c-.3 0 0 .4.3.1zm-.8-5.3v-.2c0-.2.2.2.3.4l-.6.1c-.2 0 0-.2-.1-.2a.4.4 0 0 1 .4 0zm0 3l.1.2a.4.4 0 0 1-.4 0h.3zm-.5 2c.1.3-.3.2-.5.3.1-.1.3-.4 0-.5s.1-.1.1 0c0 0 0-.2.2-.2s0 .4.2.5zm-2.5.4c.2 0 .6 0 .4.3-.2-.2-.3-.2-.6 0-.2 0 .3-.1.2-.3zm-.9-3.6c-.3 0 .2-.2 0-.3l-1.6.2c-.1 0 0 0 0 .2-.4-.1-.8.1-1.1-.1-.1 0-.2.2-.4.1l-.1.5c0-.3-.4-.3-.4-.5-.2.2-.4 0-.6.1a1.3 1.3 0 0 1 .3-.2s-.5-.2-.6 0c0-.2-.2 0-.4-.1-.1 0 0 .3-.3.3-.1-.3.2 0 .2-.2-.3-.3-.4 0-.6 0 0-.2.4-.2.4-.5.3.3.2-.3.4.2.2-.2.4 0 .5-.1-.2-.1 0-.2-.2-.3.3-.3.5 0 .9-.1.2.4.7.2 1.2.4v-.3c.2.2.3.1.5.2s0-.3.2-.2c0-.2-.2 0-.2-.1-.1 0 0 0 0 .2-.2 0-.2-.3-.4-.3.1-.2.5 0 .5-.4 0 0 .1.3.4.2-.1 0 0 .3-.2.5.3 0 .8.2 1.1.1 0-.2 0-.5-.3-.3a.2.2 0 0 1 .2-.2c0-.2-.3 0-.2 0-.2-.6.7-.1 1-.2-.2.1-.5.4-.7.2.2.4.2.5.6.5.2 0 0-.3.3-.3h-.1c.3-.2-.1.2 0 .5.3 0-.4 0-.3.3zm-.4.5v.4c-.2 0-.4-.1-.5.1-.2.1-.1-.3-.4-.2 0 .2-.2 0-.3-.1.3-.2.6 0 1.1-.2zM11 25c-.1.5-.7-.3-.2-.3-.1.1-.1.4.1.3zm-1.3.7a.5.5 0 0 1-.3-.6c0 .3.2.3.3.6zm-.5-.6c-.2-.3-.3-.3-.7-.3a.8.8 0 0 1 1-.3c-.2.4-.3 0-.4.6zM9 23.2l.2.3h-.1c-.2.1 0-.3-.2-.2 0-.1.1-.1.1 0zm-.8-.2c.2 0 .4 0 .4.3l-.2-.1a.9.9 0 0 0-.1.4c-.2 0-.2-.2-.2-.4-.1.1-.2.3-.3 0s.1 0 .1.1c.1-.2.3 0 .3-.3zm-.8 1c-.2 0 0-.4-.3-.4 0-.3.3 0 .3-.2v-.1c.1-.2.2.5.6.3-.1.5-.5-.2-.6.3zm0 1.5a.8.8 0 0 1 0-.8v.9h-.1zm-.7-2v.4c-.3.1-.4 0-.7.2 0-.6.5-.4.7-.6zM6 19.1l-.1.5c0-.2-.4-.1-.6 0 .1-.6.5-.5.7-.5zm-1.4 4.4c0 .2.4 0 .4.4s-.4-.3-.4.2v-.6zm0 .1a.2.2 0 0 0 0-.3c.4 0 0-.4.6-.4 0 .3.2.3.2.5-.4 0-.4 0-.7.2zm.7-.1h-.1a.5.5 0 0 1 0 .4.8.8 0 0 1-.2-.5.3.3 0 0 0 .3 0zm-.7-4c0 .2-.3 0-.2.4 0 0-.4.1-.3-.1.3.1.3-.4.6-.3zm0 5.8c0-.2-.3 0-.4.1l.2-.5c.1-.2.2.3.3.4-.3 0-.3.5-.6.3l.5-.3zm-.3-4.8c-.1.3-.6.6-.7 0a.6.6 0 0 1 .8 0zm0 1.8v.2h-.2l.2.1c0 .3-.2 0-.3.2-.2-.2.2-.4.3-.5zm-1.1 1.3l.1.2c.1.2.2-.2.3-.3s.3.2.6.1c0 .5 0 .6-.2.8-.2 0 .1 0 0-.2 0-.3-.4 0-.3.4v-.1c-.3-.2-.7.2-1-.1 0 .2-.4.2-.5.4-.2 0 0-.4-.3-.4-.4.2-.6.4-1 .4 0-.2-.1-.1 0-.4a6.2 6.2 0 0 0 1-.7h-.3c.1-.4.8-.2 1.3-.2l-.1.2c.1-.2.3.2.4-.1zm-1.6-.1v-.3H2c0 .2 0 .3-.3.3zM3.2 25c.1 0 0 .1 0 .1.2.1 0 .3-.1.3v-.3c-.1-.2.1.2.1 0zm0-.2c0 .2 0 .2-.2.2s0 .3-.2.2c0-.2.2-.4.4-.4zm-.8-5.1l-.2.4c-.2-.1-.2-.5.1-.4zm-.5 2.7c-.1-.2-.3 0-.4 0 0-1 .5-.3.9-.5.2 0 0 .3 0 .5-.1 0-.4.3-.3-.1q-.3 0-.2.2c.3.2 0 .2-.2.3l.2-.1h-.3c.1-.1 0-.3.3-.3zm.5 2.6a.3.3 0 0 1-.3.2L2 25c-.1 0 0 0 0 0s.1-.1 0-.1h.2c0 .2-.1.3.2.1zm0 .4l-.3.2c-.1 0-.2-.3.1-.3 0 .1 0 .2.1.1zm-.7-5c.2 0-.2 0 0-.2-.2.1 0 .6-.4.5l.2-.6c.1 0 .2.1.2.3zm.2 4c0 .2-.3.6 0 .5a.5.5 0 0 0 0 .3h-.3v-.6a.3.3 0 0 1 .3-.1zm-.4-4.8c-.1.2-.3-.1-.4.2-.2-.2.2-.3.3-.4v.1h.1zm-.2-.2c-.2 0-.1-.2-.3-.2-.3 0 .4-.3.3.1zm.1 6c.3 0-.2.3.1.2 0 .2-.3 0-.4 0s.4 0 .3-.3z" class="cls-1"/>
      <path d="M45.5 18.4c0 .2 0 0-.1 0v.4c0 .2-.4 0-.6 0 .1-.2 0-.2 0-.4a2.7 2.7 0 0 1 .7 0zM24.5 19c.2 0-.4.1-.3.4-.2 0-.2-.1-.4 0 .1-.5.4-.2.7-.4zM19.8 19.3h-.5v-.6c-.4.4-.6 0-1 .2 0-.3-.2-.2-.1-.4.3.4.9 0 1.4.2 0-.2 0-.3-.2-.2 0-.4.4 0 .8-.2-.2.5-.5.4-.4 1zM5.7 18.8c-.2-.3-.3-.3-.7-.2 0-.3.2-.1.1-.4a1.4 1.4 0 0 0 1.2 0c-.3.2 0 .2-.2.5-.1-.3-.1.1-.4 0z" class="cls-1"/>
      <path d="M4.8 14.7a18.6 18.6 0 0 0-1.5 1.2c-.1.2 0 .2-.3.4l-1.3 1.2-.3.2-.5.4h.3c-.4.3-.2.3.1 0l-.4.5a1.4 1.4 0 0 0 .5-.3 3.4 3.4 0 0 0-.3.3c.3 0 .6-.2.2.2.2.1.5-.1.8 0 .3-.3 0-.3.4-.5h.1c.1 0-.2.3 0 .1-.6.6-.2.4-.7.9l.4-.3c-.6.4.5.3.8.1v.2a2 2 0 0 0-.3.3c.3-.2.1 0 0 0-.3.3.2-.1.2 0-.4.4-.2.3 0 .2 0 0-.4.2-.3.3.4-.3.4-.1.3 0 .9-.2.7.3.8.4h.3c0 .1.3.2 0 .4l.6-.3c-.2.2-.1.2 0 .2a1.3 1.3 0 0 1 .4-.2c-.2.2.1 0 0 0L5 21h.2c-.4.5 0 .2 0 .5l-.2.2c0 .1.4-.1 0 .2 0 0 .4-.1.2 0 .2 0 .3-.3.4-.3l-.2.3c.2 0 .5-.4.5-.3-.6.6-.3.7.2.5l-.3.3c.6-.2.2.7.7.5L6 23c.2 0 .5 0 .3.2.6-.3.4.2.5.2a1.5 1.5 0 0 1 .3-.2c0 .1-.4.6 0 .4-.6.6.3.4.3.8.6-.6.2 0 .7-.3-.4.5.2.4-.1.7.2.2 1-.1.7.4l.4-.3-.4.3c0 .2.2 0 0 .3a2.5 2.5 0 0 1 .4-.3v.1c.9-.5.3.4.8.1a1.6 1.6 0 0 1-.3.3 4 4 0 0 1 1-.5l-.3.7.7-.4c-.6.6.1.2 0 .5a2.4 2.4 0 0 1 .3-.3c-.2.2 0 0 0 .2l-.5.2c.2 0-.2.2-.1.2a1.8 1.8 0 0 1 .4 0c-.2 0-.2 0-.4.3.2 0 .4-.2 0 .2l.1-.1h.1l.2-.2s0-.2.3-.5h.1s-.2.4-.5.6c0 .3.6 0 0 .6l.4-.2a2.8 2.8 0 0 1-.3.2c.1.1 0 .3.3.3a3.4 3.4 0 0 0 .6-.7c.3-.1.2.1.4 0l-.4.4.3-.1c-.2.2 0 .2-.3.4l-.4.3v.3l.3-.2c-.3.4 0 .2-.2.5.5-.4 0-.3.6-.8a.6.6 0 0 0-.2 0l.8-.7c.1 0 .3-.1.1 0H13c0 .2.2.3-.5 1-.2.1-.2 0-.4.3l-.1.2a4.3 4.3 0 0 0 1-1c.1 0-.3.5 0 .2 0 0 .2-.2 0 0l.7-.4-.5.2a7.5 7.5 0 0 1 1.3-.8l-.2.1a3.3 3.3 0 0 0-.7.6l-.4.4c.2-.2.2-.1.2 0l-.8.8.6-.5c.2 0 .2 0 0 .4a1.3 1.3 0 0 0 .2-.3h.2c-.2 0-.4.3-.4.3.2 0 .2 0-.1.4.4-.3.1.2 0 .3l.5-.3c0-.1-.2 0 0 0s.3-.2.1 0c.5-.4.2-.3 0-.3.4-.2.3-.3.4-.4h.4l.4-.4c0 .1 0 0 0 0a3.8 3.8 0 0 1-.6.4c0 .2.3-.1.3 0l-.4.3c.5-.3.1-.1 0 0l-.3.3c.4-.2.1.1.2.1.2 0 .4-.3.5-.4-.7.6.2 0 .2 0-.1.3.2 0-.3.5l-.3.1c.1 0-.1.4.3 0l-.5.4c.4-.2.2 0 .2.1a6.1 6.1 0 0 1 .7-.6l-1 .8v.2c.8-.6.5-.3 1-.6-.4.3-.4.5-.7.8l.2-.1-.3.2.5-.2c0 .2-.2.7.3.3-.3.4.5.1-.2.7 0 .2.4-.1.8-.3l-.8.6.5-.2-.4.3c.8-.2.5.1 1 .2-.4.3-.2.2-.5.6a1.8 1.8 0 0 1 .9.3c.5-.5.6-.2.3 0l-.4.4c.3-.2 0 .2.4-.1a2.8 2.8 0 0 1 .6-.6c-.9.8-.6.9-.4 1-.4.4-.3.6.3.2 0 0-.4.5 0 .2-.3.4.2.2 0 .6.4-.3.5-.2 0 .1.5 0 .5.1.5.4.5-.3.2-.1.2 0l.5-.4c-.2.4.2.1.1.3-.4.4 0 .3.3 0a2.2 2.2 0 0 0-.5.6c.4-.1.3 0 .2.3.5-.3 0 .1 0 .1l.4-.3c-.5.9.6.2.7.5.5-.4.6-.4.5-.2.4-.3.3-.1.3 0l1.6-1.4.2-.3 1.3-1 .3-.4.5-.5.3-.1.8-.8 1.2-.8c-.2 0 .1-.3.2-.4a6.3 6.3 0 0 0 1.4-1c0-.5-1.7.8-1.5.2l.2-.1c0-.2-.2.1-.3 0l.7-.5c-.5.4.2-.2.1-.3-.4.4 0-.1-.4.2a.9.9 0 0 0 .3-.3c-.2 0-.4.2-.5.3.2-.2-.1 0 0-.2s.1 0 .4-.2c-.2 0-.5.2-.1-.2l-.5.4c.6-.7.6-1.3 0-.6.1-.1 0-.2.3-.3-.1 0-.1-.2-.4-.1l.4-.3c-.1-.1-.2-.3-.4-.2l.3-.3c-.5 0-.2-.4-.6-.4-.2 0 .1-.8-.9.1H25a4 4 0 0 1 .3-.4c-.4 0-.3-.3-.8-.2.4-.2.2-.3.2-.4a6 6 0 0 1-.6.4.9.9 0 0 1-.2.2l.1-.2a4.6 4.6 0 0 0 .6-.5c-.4.3.3-.3 0-.1a2.6 2.6 0 0 1-.3.3.6.6 0 0 0-.2.1c.2-.3-.5-.3.5-1-.2 0-.8.4-.7.1l.3-.3c-.6.4 0-.5-.7-.1.5-.7-.4-.3 0-.8-.4.1.2-.6 0-.5l.2-.2h-.2l-.4.3.4-.3c-.3 0 0-.1-.4 0-.2.3.1 0 0 .2s.1-.4-.3 0l.2-.3c-.5.2-.1-.5-.4-.5l-.1.2c0-.1.1-.5-.2-.2l-.2.2c-.2 0 0 0 0 0l-.4.4.4-.3.2-.3c.4-.6 0-.4.1-.8-.3.2-.7.3-.4 0a9.7 9.7 0 0 1-1 .5c.5-.3.5-.1 1-.6-.3.2-.2-.1-.4.1.1 0 0 0 0 .1s-.7.3-.7.2l.6-.4c-.6.1-.4-.3-.6-.4a1.6 1.6 0 0 1 .3-.4c0-.2-.2 0-.6 0 .5-.5 0-.4.4-.7-.6.3 0-.4-.3-.4a2.2 2.2 0 0 1-.5.4c.2-.3.1-.5-.1-.5l.3-.3c-.4-.2-.7-.3-.8-.9l-.4.2c.3-.2.1-.2 0 0l.2-.3h-.4c.3-.2.2-.2 0-.1l-.1.2c0-.3.3-.8-.4-.5.2-.1.3-.1.2-.2-.7.1-.6-.8-1.3-.6l.4-.4c-.7.4-.3-.3-1 0 0-.3.6-1 0-.6l.2-.3c-.6.2-.2-.5-.9-.2a4 4 0 0 1 .4-.3c-.1 0-.6 0-.2-.2-.3 0-.1-.5-.5-.2-.1-.3-.2-.9-1-.6.4-.6-.4-.2-.3-.6-.2.2-.2 0-.3.1a3.1 3.1 0 0 0-.6-1.1h-.1a.7.7 0 0 0 0-.5c-.2 0-.4.3-.5.2a1.2 1.2 0 0 0 .3-.3c-.4.2-.4 0-.3-.4-.4.3 0-.3-.6 0 .2-.2-.2 0 0-.4-.8.5-.2-.4-1-.1.2-.1.1-.2.1-.3a2 2 0 0 1-.4.3l.4-.3c.1-.2-.2 0-.4.2.5-.4 0-.2 0-.3a2.7 2.7 0 0 0-.2.2c0-.2.4-.7 0-.4.2-.3-.1-.2-.4-.3a2.6 2.6 0 0 0-.5.5s.2-.3 0 0l-1.7 1.4c-.3.1-.3.4-.6.5l.3-.3-.4.3c.1-.1 0 0 0 .2-1.2 1-1.9 1.4-2.7 2.3zM13.2 27l.6-.6h.1l-.7.7zm2.4-7.5l-.1.2c-.2.2-.2 0-.4.3a2.4 2.4 0 0 1 .5-.5zm-2.4 3.6l.3-.3c.5-.2 0 .2 0 .4-.3.3-.2 0-.3 0zm3-.6c.4-.4.6-.3 0 .1zm3.3-2.5a5 5 0 0 1 .8-.5l-.8.6c-.2 0 .4-.4 0 0zm-5.9 5.2a.8.8 0 0 1 .5-.2c-.2.1-.3.2-.2.3-.3.1-.4 0-.3-.1zM12 26.9l.4-.3s-.1.2 0 .1c-.3.3-.3.2-.4.2zm2.7-.6l.2-.1-.1.2s-.4.3-.4.1.3-.2.3-.2zm3.5-3h.5c-.3.1-.6.3-.5 0zm-2.7 2.4l.5-.2c-.1 0-.4.4-.1.2l-.1.1-.1.1-.2.1c-.1.1.2-.3 0-.3zm2.5-1.6c.2-.2.1 0 .2 0H18a2.7 2.7 0 0 1-.3.2l.2-.2zm-2.3 2.3l-.4.4.4-.4zm0 0a2.8 2.8 0 0 0 .4-.3 1 1 0 0 0-.1.3c-.4.3 0-.2-.3.2-.3.2.3-.4 0-.3zm1.2-.8a3.5 3.5 0 0 0 .6-.3c-.3.2-.8.7-1 .7a.7.7 0 0 1 .3-.1l.1-.3zm-.3.5c.4-.4.6-.3 0 .1.3-.3-.2 0 0-.1zm3-2.5c.4-.3.3 0 .6-.1l-.1.1c-.3.2-.2 0-.5.4v-.3zm-2.3 2.8h.1c-.3.3-.4.5-.5.4l.4-.3zm.2.8c0-.1 0-.2.2-.3v.3c-.6.4.2-.3-.3 0zm-2.5 2.4l.4-.3-.4.3zm3.8 0c-.3.3-.4.3 0 0zm1.4.5l.4-.3-.2.2s0 .1.2 0c0 .2-.3.2-.3.3-.3.1 0-.2-.1-.2zm3.4-2a4.6 4.6 0 0 1 .4-.2c.2 0-.1.3.3 0l-.2.3.3-.3s-.2.4 0 .2l-.5.5c-.2 0 .1-.4-.6.1 0-.3-.3-.2-.4-.4l.6-.5c.2-.2.8-.3 0 .3zM18 32.4l.4-.2c-.3.3-.2 0-.5.4-.3 0 .2-.3 0-.2zm7.2-3.3c-.1.2.2.4.6.1a3 3 0 0 0-.5.5c-.3.3 0-.1-.5.3l.3-.3c-.3-.1-1.6.4-.4-.6 0-.2-.2 0-.3.1l.3-.3c-.5 0-.6-.2-.5-.6.5-.2.4.3 1-.1-.4.4 0 .4.3.3-.2.3 0 .2-.3.5.4-.2.2.1.8-.4.1 0-.4.3-.2.3-.2.2-.3 0-.3.2-.4.3-.1-.1-.4 0zm-6.6 4.1c.4-.2-.2.3 0 .2l-.5.3c.1 0 .6-.4.5-.5zm7.1-5.4c.2-.1 0 0 0 0-.2.2-.2 0-.5.3l.5-.3zm-3.6 3.1l-.1.1a2.9 2.9 0 0 0 .3-.2l-.6.5a1.2 1.2 0 0 1 .4-.4zm4.7-3l-.5.4c-.4.2.2-.3.5-.5zm-2.4 2.6c.3-.3.3-.1.2 0-.3.3-.2 0-.2 0zm2.1-1.6c.4-.2.5-.2.3 0l-.4.2.1-.2zm-.6 1a4.4 4.4 0 0 0 .7-.6 5 5 0 0 1-.7.8c-.1 0 0-.2 0-.2zm-1.5 1.5l.3-.3.4-.3-.4.4c0-.1.1-.2-.3.2z" class="cls-1"/>
      <path d="M27.9 27.9c.2 0-.3.4 0 .1l-.3.4a2 2 0 0 0 .4-.4c.3-.2 0 .1 0 0l-.3.4a1.9 1.9 0 0 0-.2.5c-.3.4-.3.2-.4.3l.3-.4-.4.2c.1-.2 0 0 0 0 .2-.3 0-.2 0-.2a6.8 6.8 0 0 0 .9-1zM14.7 6a18.6 18.6 0 0 0-1.5 1.3c-.2.1-.1.2-.3.4l-1.3 1.2-.4.2c0 .1.2 0-.4.4h.3c-.4.3-.2.2 0 0 0 .2-.2.2-.4.4a1.4 1.4 0 0 0 .6-.3 3.4 3.4 0 0 0-.4.4c.3 0 .6-.2.3.2.1.1.5-.1.7-.1l.5-.4s-.2.2 0 .1l-.6.9.4-.3c-.6.4.5.3.8 0v.3a2 2 0 0 0-.4.3c.3-.2.2 0 0 0 0 0 .1 0 0 0-.2.3.3-.1.3 0-.4.4-.3.3 0 .1l-.4.4c.4-.3.5-.1.4 0 .8-.2.7.2.8.4l.2-.1c0 .2.3.2 0 .5l.7-.4c-.2.2-.1.3 0 .3a1.3 1.3 0 0 1 .3-.3c-.1.2.2 0 .2.1l-.3.3.2-.1c-.5.6 0 .3 0 .6l-.2.2s.3-.2 0 .1c0 .1.4 0 .2.1l.4-.3-.3.3h.1c.2 0 .5-.4.5-.3-.6.6-.4.7.2.5l-.3.3c.6-.3.2.7.7.4l-.3.3c.2 0 .5 0 .3.3.5-.3.3.2.5.2a1.5 1.5 0 0 1 .3-.2c0 .1-.4.6 0 .3-.6.7.3.5.2.8.7-.5.3 0 .8-.2-.4.4.2.4-.1.7.2.1 1-.2.7.4l.4-.3-.4.3c-.1.1.2 0 0 .3a2.5 2.5 0 0 1 .4-.3v.1c.9-.6.3.3.8 0a1.6 1.6 0 0 1-.4.4 4 4 0 0 1 1-.6l-.3.8.8-.5c-.6.7.1.3-.1.6a2.4 2.4 0 0 1 .4-.3c-.2.2 0 0 0 .1l-.5.3-.2.2a1.8 1.8 0 0 1 .5-.1l-.4.3c.2 0 .3-.1 0 .2h.1l.1-.1.2-.2.3-.4h.1l-.5.6c0 .3.6 0 0 .5.4-.3.2 0 .4-.1a2.8 2.8 0 0 1-.3.2c.1 0 0 .2.2.3a3.4 3.4 0 0 0 .7-.7c.2-.2.1 0 .4 0l-.4.3s-.1.2.3 0l-.3.3-.4.3v.4l.3-.2c-.3.4 0 .1-.2.5.5-.5 0-.4.6-.8a.6.6 0 0 0-.2 0l.8-.8s.3 0 0 .1c0 .2.2.3-.5 1l-.5.2v.3a4.3 4.3 0 0 0 1-1s-.3.5 0 .2c0-.1.2-.2 0 0 .4-.2.4-.3.6-.5l-.4.2a7.5 7.5 0 0 1 1.3-.8l-.2.2a3.3 3.3 0 0 0-.7.5v.1c.1-.2-.4.3-.4.3h.2c-.5.4-1 .8-.8.9l.5-.5c.3 0 .3 0 0 .3a1.3 1.3 0 0 0 .3-.3h.2l-.4.4c.2-.1.2 0-.1.4.4-.3 0 .1 0 .2l.4-.3s-.1.1 0 0 .3-.1.2 0c.5-.4.1-.3 0-.3l.4-.3.4-.1.4-.3c-.1 0 0 0 0 0a3.8 3.8 0 0 1-.6.4c0 .2.3-.2.3 0l-.4.3c.5-.3.1-.2 0 0l-.3.2c.4-.2.1.2.2.2.2-.1.3-.4.5-.4-.7.6.1 0 .2 0-.1.2.2 0-.3.4l-.4.2c.2 0 0 .4.4 0l-.5.4c.3-.2.2 0 .1.1a6.1 6.1 0 0 1 .8-.6l-1 .8s-.1.1 0 .1c.7-.5.5-.2 1-.5-.4.2-.4.5-.7.8l.2-.1-.3.2.5-.2c0 .2-.2.7.3.3-.3.4.5 0-.2.7 0 .2.4-.1.7-.3l-.7.6.5-.2-.4.3c.8-.2.5.1 1 .2-.4.2-.2.2-.5.5a1.8 1.8 0 0 1 .9.4c.5-.5.5-.3.3 0l-.5.4c.4-.3 0 .2.4-.1a2.8 2.8 0 0 1 .7-.6c-.9.8-.6.9-.4 1-.5.4-.3.6.3.1-.1.2-.4.6 0 .2-.3.4.2.2-.1.7.4-.3.6-.2.1.1.4-.1.5.1.5.3.4-.3.2 0 .2 0l.5-.3c-.3.3.1.1.1.3-.5.4 0 .2.2 0a2.2 2.2 0 0 0-.4.5c.4 0 .2 0 .1.4.5-.4 0 .1.1 0l.4-.2c-.6.8.6.2.7.5.4-.4.6-.4.5-.2.4-.3.3-.2.2 0 .8-.7 1-1 1.7-1.4l.2-.3 1.3-1 .3-.4.5-.6c.2-.2.1 0 .3 0l.8-.8c.4-.3 1-.6 1.2-.9-.2.1 0-.2.1-.4a6.3 6.3 0 0 0 1.5-1c0-.4-1.7.8-1.5.3l.2-.1c0-.2-.2 0-.3 0l.7-.6c-.5.4.1-.2 0-.2-.4.4 0-.2-.3.1a.9.9 0 0 0 .2-.2l-.4.2c.2-.2-.2 0 0-.1l.3-.2s-.4.2 0-.3l-.5.4c.6-.6.6-1.2 0-.5 0-.2 0-.2.3-.4-.2 0-.2-.1-.4 0l.4-.4-.4-.2.3-.2c-.6 0-.2-.5-.6-.5-.3 0 .1-.7-1 .2h-.2a4 4 0 0 1 .4-.4c-.4 0-.4-.3-.8-.3.3-.2.2-.3.2-.3a6 6 0 0 1-.7.4.9.9 0 0 1-.1.2l.1-.3a4.6 4.6 0 0 0 .6-.4c-.4.3.2-.4-.1-.1a2.6 2.6 0 0 1-.2.3.6.6 0 0 0-.2.1c.2-.3-.6-.3.5-1-.2 0-.8.4-.7 0l.3-.3c-.7.4-.1-.4-.7 0 .5-.7-.4-.3 0-.9-.5.2.2-.5-.1-.4l.3-.2h-.2l-.6.3.4-.3-.4.1c-.2.2.2 0 0 .1s.2-.4-.3 0l.2-.3c-.5.2-.1-.5-.3-.5l-.2.2s.2-.4-.1-.2l-.2.2c-.1 0 0 0 0 .1l-.4.3.4-.3s-.2 0 .2-.3c.3-.6 0-.4.1-.8-.3.3-.8.3-.4 0a9.7 9.7 0 0 1-1 .6l1-.7c-.4.2-.3 0-.5.1.2 0 0 0 0 .2s-.6.2-.6 0c0 .2.2 0 .5-.3-.5.2-.3-.3-.6-.4a1.6 1.6 0 0 1 .4-.3c0-.2-.3-.2-.6-.1.4-.5 0-.3.4-.7-.7.3 0-.4-.4-.3a2.2 2.2 0 0 1-.5.3c.2-.3.2-.5 0-.4l.3-.4c-.4-.2-.8-.3-.9-.9l-.3.2c.2-.2 0-.2-.1 0l.2-.3h-.4c.4-.2.2-.2 0-.1.1 0 0 0 0 .2 0-.3.2-.8-.4-.5l.2-.2c-.8.2-.6-.8-1.4-.6l.4-.3c-.7.3-.3-.4-1-.1.1-.3.6-1 0-.6l.2-.3c-.6.3-.1-.5-.8-.2a4 4 0 0 1 .3-.3s-.5 0-.2-.2c-.3 0 0-.4-.5-.2-.1-.3-.1-.9-1-.6.4-.5-.3-.2-.2-.6-.3.2-.2 0-.3.2a3.1 3.1 0 0 0-.7-1.2.7.7 0 0 0-.1-.5l-.4.3A1.2 1.2 0 0 0 23 3c-.5.2-.5 0-.3-.4-.5.3 0-.3-.7.1.3-.3 0-.1 0-.4-.7.4-.1-.5-1-.2l.2-.2a2 2 0 0 1-.4.3l.4-.3-.4.1c.4-.4 0-.1 0-.3a2.7 2.7 0 0 0-.2.3c0-.3.4-.7 0-.5.1-.2-.2-.2-.4-.3a2.6 2.6 0 0 0-.6.5s.2-.3 0 0L18 3c-.3.1-.3.4-.6.5.5-.3 0 0 .3-.3l-.4.3c.2-.1 0 0 0 .2A37 37 0 0 0 14.7 6zM23 18.5l.6-.6h.2l-.8.7zm2.4-7.6c.2 0 0 .2 0 .3-.3.2-.3 0-.5.2a2.4 2.4 0 0 1 .6-.5zM23 14.6l.4-.3c.5-.3 0 .2 0 .3-.4.3-.2 0-.4 0zm3-.6c.4-.3.6-.3.1.1zm3.3-2.5a5 5 0 0 1 .8-.5l-.7.6c-.2 0 .4-.4 0 0zm-5.8 5.2a.8.8 0 0 1 .5-.2l-.3.3c-.2.1-.3 0-.2-.1zm-1.7 1.6l.3-.3s0 .2 0 .2c-.3.2-.3.1-.3 0zm2.6-.6l.3-.1-.2.2-.3.2.3-.3zm3.6-3c.4-.2.5-.2.5-.1-.3.2-.6.3-.5.1zm-2.7 2.4c.3-.3.4-.3.5-.2-.2 0-.4.4-.2.2l-.1.2c-.2.2-.2-.1-.3 0s.3-.2.1-.2zm2.5-1.7c.2-.2.1 0 .2 0-.1.1-.1 0-.1 0a2.7 2.7 0 0 1-.3.3l.2-.3zm-2.3 2.4l-.4.3.4-.3zm0-.1a2.8 2.8 0 0 0 .4-.2 1 1 0 0 0-.1.3c-.4.3 0-.3-.3.1-.3.2.3-.3 0-.2zm1.2-.8a3.5 3.5 0 0 0 .6-.2l-1 .7a.7.7 0 0 1 .2-.1c.3-.3 0-.1.2-.4zm-.4.5c.5-.3.7-.2.2.2.2-.3-.3 0-.2-.2zm3-2.4c.5-.3.4 0 .7-.2l-.1.2c-.3.2-.2 0-.6.4V15zM27 17.8h.2l-.5.4.3-.3zm.2.7l.3-.2-.1.2c-.5.4.3-.3-.2 0zM24.8 21l.4-.3c-.4.4-.2 0-.4.3zm3.7 0h.1c-.4.3-.4.2 0 0zm1.5.6l.3-.4v.3l-.2.2c-.3.1 0-.3-.1-.2zm3.4-2a4.6 4.6 0 0 1 .4-.3c.2 0-.2.3.3 0l-.3.4.4-.3s-.3.3 0 .1l-.6.5c-.2 0 .2-.4-.5.1 0-.3-.4-.1-.4-.4l.5-.5c.2-.2.8-.3.2.3zm-5.6 4.2c.2-.1.5-.3.4-.1-.3.2-.2 0-.5.3-.2 0 .2-.3.1-.3zm7.2-3.3c-.1.2.2.4.6 0a3 3 0 0 0-.4.6c-.3.2-.1-.1-.6.3l.3-.3c-.3-.1-1.6.4-.3-.7l-.4.2.4-.4c-.6.2-.7-.1-.6-.5.5-.2.4.2 1-.1-.4.4 0 .4.3.3-.2.2 0 .2-.3.5.4-.2.2.1.8-.4.2 0-.3.3-.2.3-.2.1-.3 0-.3.2-.3.2 0 0-.3 0zm-6.5 4.1c.3-.2-.3.3 0 .2q-.5.4-.6.3l.6-.5zm7-5.5c.2 0 0 .1 0 0-.2.3-.2.2-.5.4l.6-.4zM32 22.4v.1a2.9 2.9 0 0 0 .2-.2l-.5.5a1.2 1.2 0 0 1 .3-.4zm4.7-3.1l-.5.5.6-.5zm-2.4 2.6c.3-.2.3 0 .2 0-.3.4-.2.1-.1 0zm2.1-1.5c.4-.3.5-.2.3 0l-.4.2.2-.2zm-.6 1a4.4 4.4 0 0 0 .7-.6 5 5 0 0 1-.7.8v-.3zm-1.4 1.5l.2-.3.4-.3c.1 0 0 .2-.3.4 0-.2.1-.2-.3.2z" class="cls-1"/>
      <path d="M37.8 19.3c.1-.1-.4.3 0 .1l-.4.4a2 2 0 0 0 .5-.5c.3-.2 0 .1 0 .1l-.3.3a1.9 1.9 0 0 0-.2.6c-.3.3-.3.2-.4.2.3-.2.2-.2.3-.4s-.3.2-.4.3c.1-.2-.1 0-.1 0 .3-.3.1-.1 0-.2a6.8 6.8 0 0 0 1-1zM30.6 33.4a3.4 3.4 0 0 0 .4.5 4.5 4.5 0 0 0-1-.6 1.6 1.6 0 0 1 .6.1z" class="cls-1"/>
      <path d="M30.5 33.5v.2a1.8 1.8 0 0 1 .5.4c-.2 0-.8-.7-.5-.6zM29.9 37.5c.2.3 0 0 0 .2-.4-.3-.1-.2 0-.2zM25 34l-.3-.5.4.4z" class="cls-1"/>
      <path d="M24.9 33.8c.1.2 0 .3-.5-.1.1 0 .2 0 0 0a.9.9 0 0 0 .5 0zM28.7 37h-.1a2.3 2.3 0 0 0 .3.3c-.2 0-.5-.4-.5-.3-.2-.3.2 0 .3 0zM29.5 37.8c.2.2.3.6-.1.2 0 0-.1-.3.1-.2zM28.2 37.5l.3.3s-.3-.2-.1 0H28c-.2-.3.3 0-.3-.5l.4.2zM28.1 38c.4.2.4.5 0 .2-.1-.3.3 0 0-.3zM41.6 15.9c-.2 0 .3.3.2.3l-.2-.1-.8-.7-.1-.2c-.3-.3-.2 0-.4-.3l-.7-.7c.1.2-.1.2.1.4a1.6 1.6 0 0 1-.3-.3c.3.3 0-.1.1 0a6.2 6.2 0 0 1-.9-.7l.2.2-.2-.1c.3.1-.2-.3-.2-.4H38c-.3-.2-.3-.3-.3-.4l-.5-.4s-.3-.2-.2 0a2.3 2.3 0 0 0-.3-.2c.2 0 .1-.1-.2-.3h-.3l.5.7c0-.1 0 0 0 0l-.3-.4-.4-.1c-.2-.1 0-.1-.1-.3 0 .2-.4-.1-.5-.2.2.2 0 .2 0 .2-.3-.3-.4-.1-.6-.4.3.3 0 .1-.1 0a1.2 1.2 0 0 0-.5 0l.4.4a.8.8 0 0 1-.2-.1l-.2-.2v.3l-.3-.2c0 .2.2.2.3.3l-.4-.2v.5l-.3-.2c-.2 0 .3.7-.3.4.2.3.2.3 0 .2.5.5 0 .1.2.5l-.1-.2v.3c-.5-.4-.1 0-.3 0a4.3 4.3 0 0 1 .5.7c-.8-.5 0 .8-.7.3 0 0 .4.3.3.4-.1-.2-.4-.4-.4-.3v.1l.3.2c-.2 0-.1 0 0 0a3.3 3.3 0 0 0-.4-.3h-.2l.2.3c-.2-.2-.2-.3-.4-.3.6.4.2.4.3.6l-.3-.2c.3.2 0 0 0 0l.2.5a3 3 0 0 0-.4-.3s.2.2 0 .2l.3.3c-.3-.3-.4-.3-.2 0h.1l-.3-.3c-.2 0-.5.1 0 .4-.2-.1 0 0 .1 0 .7.6-.1.3.2.7a1.4 1.4 0 0 0-.6-.3c-.5-.2-.1.6-.5.7 1.1 1-.5 0 .2.8l-.5-.2c0 .2 0 .1-.2.1l.3.4a1.1 1.1 0 0 0-.2-.2c0 .3 0 .7-.3.7.2.2-.4.3 0 .7l-.4-.2c.4.5-.5 0 0 .7a.8.8 0 0 0-.3-.2c.5.4-.3 0 .2.5l-.4-.3s.2.4-.2.3l.3.3a.8.8 0 0 0-.4-.3c.2.2 0 .1 0 .1a2.4 2.4 0 0 1 .2.3c-.2-.2-.5-.2-.2 0-.4-.2 0 0-.3 0 .5.5 0 .4 0 .6s.3.3.3.3c-.6-.5-.8 0-.3.4-.2 0-.3-.1-.1 0-.5-.1-.5.4-.4.6-.6.2-.3 1.1-.6 1.6l-.4-.3c-.2.5-.2 1-.8 1.2l.4.4a1.2 1.2 0 0 0-.5-.2c.3.4 0 .4.3.8-.6-.2-.6.2-.6.4l-.3-.2c.2.2 0 .1 0 .2l.3.3c-.6-.4-.3-.1-.4 0 .2.2.6.4.5.5a1.8 1.8 0 0 0-.4-.4c-.2 0 0 .1 0 .1-.5-.5 0 .1 0 .2s-.7-.5-.2 0l.5.4a2.8 2.8 0 0 0-.6-.4l.1.2c.1.2.2.1.2.1h.1c.1 0 0 0 0 .1l-.4-.3c-.1 0 .2.3 0 .2-.4-.4 0 .3 0 .4-.4-.3-.1-.2-.3-.4s.4.7-.3.2c.5.4-.2.3.2.8-.9-.7 0 .5-.2.3a.8.8 0 0 0-.2-.2s-.3 0 0 .5c-.6-.4-.4 0-.3.3-.5-.4-.4 0-.2.3l-.2-.2c0 .2-.4 0 0 .7-.3-.2-.3-.3-.5-.3.4.3 0 0 0 .1v.6s-1-.3-.6.3c-.5-.3-.3.3-.5.4l.3.2c-.4-.2 0 .1-.3 0l.5.4c-.2-.1 0 0 0 0a1.6 1.6 0 0 0-.6-.3c.3.3 0 .3.4.5a1 1 0 0 0-.3-.2c.5.5-.5 0 0 .5.2 0-.1-.4.3 0l.2.5.5.2a5 5 0 0 0 .4.5c-.5-.5-.5-.4-.6-.4l-.9-1c0 .2 0 .2-.2 0l.5.5c-.1 0-.6-.3-.2.2 0-.2.3.2.4.1l-.3-.2c.5.3.8.9.4.6l.6.5c0-.2 0-.1.2 0-.2-.1-.2-.2-.2-.3a2 2 0 0 1 1 .5c-.2-.2-.3-.2-.3-.4 0 0 .1.2.2.1-.6-.4 0 0-.1-.2l-.4-.3c.4.4 1.2.6 1.4 1 0-.1.2.1.2 0a2 2 0 0 1-.4-.4 1 1 0 0 0 .5.3l-.5-.4s-.1-.1 0-.2a5.7 5.7 0 0 1 .7.7l.2.1-.3-.5.5.5h.2l-.6-.5.3.1c0 .1-.2 0 0 .2l.1.1.4.2-.2-.3.3.3s.3.1.2-.1 0 .1-.4-.1c0-.1-.4-.6 0-.2-.1-.3-.4-.7.2-.3-.3-.2 0 0 .1.2 0 0-.5-.3-.2 0a.5.5 0 0 1 .2 0l.1.3s-.2-.3-.3-.2.7.6.5.4c-.4-.3.1 0 .2 0-.3-.4.1-.2-.4-.7.8.5-.4-1 .6 0a1 1 0 0 0-.1-.3c-.2-.2 0 .2-.3 0 .2 0 0-.3-.2-.4l-.1-.1.4.3a6.3 6.3 0 0 0 1 .8s.7.4.3-.2c0 0-.3 0-.3-.2l.7.3s-.1-.1 0-.1a2.3 2.3 0 0 0-.4-.3c.3.2 0-.1 0-.2.1.2.4.2.3.3s-.1-.1-.2-.1l.3.3c-.1-.2.3 0 0-.2-.5-.5.3-.5-.2-1 0 0 0 .2-.3 0a2.3 2.3 0 0 0-.5-.5v-.1a1.7 1.7 0 0 0 .4.3c-.3-.2 0-.1 0 0a2.4 2.4 0 0 1-.2-.4l.2.1.7.7-.1-.4H29c-.3-.3.1.2-.2 0 0-.2-.3-.4-.3-.5a.6.6 0 0 1-.2 0c-.2-.4 0-.2 0-.4l-.4-.2.6.4c-.2 0-.2 0 0 .1s-.5-.3-.2 0c0 0 .2 0 .3.2s0 0 .2 0-.1.1.2.3l.3.3v-.2a1.9 1.9 0 0 1-.2-.4l.4.3c-.5-.4 0 0 0-.2l-.7-.6c-.2-.2.4 0 0-.3.3.1.4.4.5.4-.2-.2-.1-.3.1-.1-.3-.3 0 0-.1-.3l-.3-.1c0-.2.3 0 .4.2h.2c-.3-.2-.2-.4-.5-.5 0 0 0 .3-.4-.2.3.3-.1-.3-.2-.5.2.2.3.1 0 0 .4.1-.2-.4.1-.2 0 0 0 .2.2.3l.4.2c-.2-.1-.1 0 0 .2l.7.4c-.4-.3.2 0 0-.2s-.2 0-.4-.1-.2-.4.2 0c0 0-.4-.3 0 0a2.3 2.3 0 0 1 .5.3v.2l.3.2s-.1 0 0 0-.4-.6.1 0l-.3-.5.2.2h-.3l-.3-.4h.2c-.3-.2-.9-.6-.5-.2l-.2-.2v-.3c-.1-.1-.5-.4-.4-.5l.4.4c-.2-.3.5.2.5 0l.4.3c-.4-.3-.2.1-.5-.2l.2.3c.2.1-.2-.2 0 0 0 0 .3.4 0 .3l.3.2c-.2-.3.3 0 .4.1l-.2-.3a6.8 6.8 0 0 0 .9.6l.3.4-.5-.5c.2.2 0 .2 0 .2l.5.4c-.5-.3-.5-.4-.7-.7h-.2c.1.1-.3 0 0 .1s.2.3.4.5c-.1-.1 0 0 0 0l-.3-.2c.4.3.3.4.4.6a.5.5 0 0 1 .4 0c-.4-.3-.1-.2-.1-.3.4.3.2.2.1 0 .5.4.2 0 .7.5 0-.2-.4-.4-.5-.7.2.1.2.2.3.4.2 0-.1-.3-.2-.4.7.4.6 0 .4-.3.1.1.4.2.3 0-.1.1-.9-.6-.6-.3-.3-.1-.1-.2-.3-.3 0 .1.4.4.3.5-.3-.3-.1-.1-.2 0-.2-.3-.2-.3-.2-.1-.2-.2 0-.2-.3-.4 0 0-.1.1-.4-.1 0-.2.2 0 .2 0-.7-.5-.2-.5.2-.2-.1-.2-.4-.2-.4-.4s.4.4.5.4c0 0 .2.1.2 0l-.2-.1.6.2.3.4c.1.2-.3 0-.5-.1a1.8 1.8 0 0 0 .8.6c-.4-.4-.1-.5 0-.5-.1-.2-.3-.3-.2-.4.6.4.5 0 .6-.1l.4.3a7.3 7.3 0 0 0-.7-.6 1 1 0 0 1 .5.4c0-.1.2 0 .2 0s-.7-.7-.4-.5c0 0 .3.2.3.4s.4.1.2-.2a1.1 1.1 0 0 1 .3.3c-.2-.3 0-.2 0-.4l-.5-.4-.2-.2c.4.2.3 0 .7.3l.2.3-.2-.4v-.2c.2.2.3.5.5.5v-.7l.3.1s-.6-.8 0-.5l-.4-.3a2 2 0 0 0 .4.3.6.6 0 0 1 .7-.6c-.2 0-.4-.2-.3-.2l.5.2c-.4-.5-.2-.5-.2-.7.5.4 0-.3.4.1l-.3-.6c.3.2.1 0 .2-.2l.3.2c-.3-.1.1.2.2.3v-.2l-.3-.3.5.4c-.4-.5-.2-.6-.6-1h.2a.8.8 0 0 0 .3.1c-.2-.2 0-.1 0-.2l-.3-.4c-.1-.2.3 0 .5.2-.5-.7.3-.3.3-.7a2 2 0 0 0 .4.3 1.9 1.9 0 0 0-.3-.4c.7.3-.7-1.4.2-1a1.6 1.6 0 0 0 .4.4l.1-.4a4.3 4.3 0 0 0-.7-.9s.8.7.5.3l-.2-.2c-.2-.5.7-.1.4-.8 0 .1 0 .2.2.2A7.4 7.4 0 0 1 38 21c-.1-.2-.5-.4-.4-.5l.4.3a2.8 2.8 0 0 1-.6-.6c.3.3.5.3.4.4.5.3.3-.1 0-.5.5.2.2-.1.4-.2a4.6 4.6 0 0 1 .5.3c.2 0-.3-.4 0-.2l.2.3-.1-.7c.5.3.2-.1.9.2.3.3 0 .2.3.5l-.5-.2a1.6 1.6 0 0 1 .2.4l-.2-.2c.3.6-.3.2-.2.6l-.1-.2c.2.4 0 .3.4.8l-.4-.3.3.4c-.3-.4-.6-.4-.5-.2H39c-.3-.4 0 0-.1-.3 0 0-.5-.3-.2 0 .2 0 .2.3.4.3-.2.2 0 .8.3 1.2l-.1-.1s-.2-.3-.3-.2l.2.2c-.5-.3-.1.5-1-.2.4.3-.2 0 0 .2l.4.3-.5-.4c.3.6-.3.2 0 .7-.1-.2.2.2.4.2l.1.2c-.4-.2-.2.1 0 .4-.8-.4-.6 0-.7.4l.2.3c-.3-.3-.2 0-.4-.2l.3.3c-.4-.3 0 0 0 0h-.4c.4.4-.4.1 0 .6l.3.2-.5-.2c0 .3-.3 0-.3.5.4.3.2 0 .5.2-.3 0-.4 0-.3.2-1-.6-.3.5-1 .3l.7.4c-.3 0-.6 0-.1.6h-.1l-.3-.3v.6l-.1-.2c-.1-.2 0 .2-.4 0l.4.3a1 1 0 0 0-.3-.2c.1.1.2.4.4.4-.2-.2 0-.2.1 0-.1 0 0 0 0 .1a2.9 2.9 0 0 1 .3.3c0-.1.3.2 0 0 .2.1-.3-.3-.2-.3l.4.3-.2-.3-.1-.1c.2 0 .3.3.4.3-.2-.3.1-.2 0-.5l-.4-.2s.2.1.2 0l.3.4c-.3-.4 0-.3 0-.5l.3.2a1.7 1.7 0 0 1-.2-.4l.3.3c0-.2.4-.1 1 .3-.2-.4 0-.2 0-.4l-.3-.2c.9.5.4 0 .8 0l-.3-.3.3.2-.1-.2c-1-.7-.6-.6-.9-1l.6.2c.2-.2 0-.7.2-.7-.1 0 .5.1 0-.4l.3.2c-.1-.2.1-.1-.2-.4s-.1 0-.3 0V25c.2.1 0 0 0-.1.3.3.1 0 .2 0l-.2-.3c0 .1 0 0 0 0 .3.4.2.1.3 0l.8.7c.1.5-.4.3-.2.8l.3.4c-.5-.9.8-.4-.3-1.5l.5.4-.1-.2-.2-.2c.3.1.2 0 .4 0-.7-.6 0-.2-.4-.7l-.2-.1c.2 0 .3 0 0-.1h.6a3.3 3.3 0 0 0-.5-.5c.5.2.6-.3.8-.5a3.5 3.5 0 0 1-.6-.4h.3l.1.3c.1 0 .2-.1.4.1 0-.1.1-.1.4 0a1.1 1.1 0 0 1 .6-1.2c.4.3.3 0 0-.3l-.1-.2a1 1 0 0 0 .4.4c-.3-.3.2 0 0-.2l-.2-.2c.6.4-.1-.5.5-.2l-.4-.5a3 3 0 0 0 .4.3c0-.7 1.5 0 .6-1.3a2.3 2.3 0 0 0 .6.2s-.3-.8.2-.5c-.6-.5.4 0-.2-.6.6.4.1-.3.5 0 .1-.1-.4-.7.2-.3-.4-.4-.1-.4-.6-.8a5 5 0 0 1-1-.9l.3.3-.2-.3s.1 0 0 0a2.5 2.5 0 0 1-1.2-1zm1.6 1.4c1 .6.3.4-.2 0 0 0 .1 0 0 0 .3.1.2 0 0 0h.2zm-7.5-5.1c-.1 0 .3.3.1.3l.2.1a1 1 0 0 1-.5-.6.5.5 0 0 0 .3.2zm-.9-.5c.2.2-.1 0 .1.3l-.3-.4a.5.5 0 0 0 .2.1zm5.7 5.5l.4.6-.4-.2c0 .1 0 .2.5.6 0 .2-.3 0-.4.2-.3-.3-.2-.5-.6-1 .1 0 0-.3.5-.1zm-1.4 0l.4.4a1.1 1.1 0 0 1-.4-.3h.1c.1 0 0 0 0 0zm.7 2.2c-.5-.5-.4-.7-.2-.8 1 .6.4.8.2.8zm-.2 0c.4.3.3.4.1.3s-.3-.4 0-.3zm-1.2-.6l.6.6h-.4l-.5-.7.3.1zm-1.4 0a3.4 3.4 0 0 1 .5.4h-.3l-.2-.3zm-2-.2c0 .1.4.5-.1.1.2 0 .1 0 .1-.1zm-.3.3a2.2 2.2 0 0 0 .3.2h-.2l-.2-.1c-.3-.3 0-.2.2-.1zm.5.9c-.2-.2.2.3-.2 0l-.5-.4c.4.2.3.1.5 0l1 .8c0 .2-.2 0 0 .2a5.3 5.3 0 0 1-.7-.6zm-2.4 8.8c-.5-.3 0 .1-.4 0L32 28l.5.2c.3.3.6.6.3.6s0-.1 0-.2zm-.6 0c.2 0 .4.2.5.3.3.3-.3-.2 0 0-.2 0 0-.1-.5-.4zm-.6 1.2c-.1 0 0-.2-.2-.3-.1-.2.7.6.3.4zm-1.5-.3l-.4-.3c.2 0 .4.3.5.3zm-3.5-1.7c.3.3-.2.1 0 .4-.4-.3 0-.3 0-.4zm1.8 3.2c0-.2.3.1.2-.1a2.3 2.3 0 0 0 .2.2c-.2 0 0 0 0 .2-.2 0-.1-.3-.4-.3zm.3.4h.2c.3.3-.2 0 .2.3s-.2-.1-.2 0 0-.1 0 0l-.2-.3zm-2.2-1.6c.3.3-.3-.1 0 .2a4 4 0 0 1-.6-.4 5.2 5.2 0 0 0 .6.2zm1.1 1h.1l.4.4H28c.1.1.2.1 0 0l-.4-.4zm.5.7c.4.3-.5-.4-.4-.2l-.4-.5.8.7zm-.1 0h-.2s.6.4.4.5c0 0 .3.2.1 0 .6.4 0 .1.3.5a2.3 2.3 0 0 1-.6-.5l.3.2c-.1-.2-.5-.5-.5-.7.4.6-.5-.5.2 0zm-.7 0c.1 0 0 0 0 0s.3.2.1.2a3 3 0 0 1 .4.3v.1c-.3-.3-.1 0-.3-.1-.3-.4-.7-.6-.7-.9zm.5 1c.2.1 0 0 0 0a1.4 1.4 0 0 1-.3-.3h.4l.3.3c-.4-.2.2.5-.5 0v.1l.4.1c.2.3.1.4-.2.2 0 0 .1.1 0 .1a.6.6 0 0 0 .3.2L28 33c-.3-.3 0-.3-.5-.6v.1c0 .1 0 0 0 0-.3-.3 0 .1 0 0 .1.3-.6-.1-.7-.3l-.2-.3s.3.4.4.3l.1.2c.1.2 0-.2 0-.2a1.8 1.8 0 0 0 .5.4l-.2-.3a.7.7 0 0 1 .5.3zm-1.1-.7a2.3 2.3 0 0 0 .3.2l-.4-.1c-.1-.1 0 0 0-.1zm.2.6c.3.2 0 .2.3.4-.1 0-.3 0-.7-.3 0 0 .1 0 0-.2.1 0 .5.4.4.2zm-.2.3c-.2 0-.2 0 0 0l-.8-.5h.3l.6.5s-.1 0 0 0h-.1zm-.5-.2a3.8 3.8 0 0 1 .4.6l-.3-.2s-.1-.2-.2-.1.1-.1.3 0l-.2-.3zM24 30.8a2.6 2.6 0 0 1 .4.4c-.2 0-.5-.4-.3-.4zm2 2.2c.1.1 0 0 0 0l.5.4c-.2 0-.7-.6-.4-.4zm-2.4-1.9c-.2-.1-.2 0-.4-.3.1 0 0 0 0 .1h.3a2 2 0 0 0 .6.7l.1.2a1.9 1.9 0 0 1-.6-.4c.4 0 .1-.1 0-.3zm.4 1.4l.2.1c.1 0-.1 0 0 .1a2.4 2.4 0 0 1-.2-.2v.2l.1.1c-.1 0-.7-.6-.4-.5l.3.2z" class="cls-1"/>
      <path d="M25.2 33.6c.6.5.6.6.4.7l-.3-.3a2.9 2.9 0 0 1-.3-.4 1 1 0 0 0-.2-.3l.4.3zM37.4 24.2c.2 0 0 .2 0 .1-.5-.3-.3-.3-.2-.3l.2.2zM36.5 28.7l.1.2c.2.1.2-.1-.2-.4l.2.2-.3-.2-.5-.6s.5.4.4.2l.3.2.5.6c-.3 0 .2.7-.2.6-.2-.2-.4-.5-.6-.5l.2-.1c-.1-.2-.4-.2-.6-.5a4.1 4.1 0 0 1 .6.4v-.1z" class="cls-1"/>
      <path d="M36.1 29h.1l.3.2c.3.2.3.3 0 .1l.6.5s-.1 0 0 0l-.1-.1-.3-.2c.5.5-.5 0 .1.6l-.7-.4.5.5a1.8 1.8 0 0 0 .4.4c-.3-.1-.2-.3-.7-.5 0 0 0 .2.2.2-.2 0 0 .4-.7 0-.8-.8.8 0-.2-1a1.1 1.1 0 0 1 .4.3c.3 0 0-.4.2-.5.2.2 0 .2.3.4l-.4-.5zM39.7 26.3c.1.1 0 .2.2.3-.5-.2 0 .3-.2.2l-.4-.4c.4.2.3 0 .4-.1zM36.2 30.6c.1.1 0 .3-.5 0 0-.2.4.1.5 0zM35.4 30.8l.4.3c-.4-.2-.4 0-1-.5-.2-.2.5.3.2 0l.4.3c-.2-.2.2.1 0-.1z" class="cls-1"/>
      <path d="M35.3 31.2V31c0-.1-.3 0-.1 0l-.4-.2a.8.8 0 0 1 .5.3zM31.2 31.7c.3.2.2.4-.2.1-.2-.1 0-.1-.2-.3.3.3.5.3.4.2zM30.4 31s.2.3-.2 0v-.2l.2.2zM30.3 32.4c.1.1.3.3.4.2l.1.2c-.4-.3-.1 0-.5-.2.1.1 0 .2.4.4h-.2c-.3-.4-.2-.5-.2-.6zM30.3 34.2a3.3 3.3 0 0 1-.3-.3c.3 0 .1-.1.2-.3l.4.3c0 .2 0 .4-.3.3zM30.3 34.4l.4.3-.2-.3c-.2-.2-.4-.3-.3 0a1.3 1.3 0 0 0-.6-.3 7.5 7.5 0 0 0 1 .9c.1 0 0-.2 0-.2l-.3-.3c.2.1 0 0 0 0zm-.6-.2a2.3 2.3 0 0 1 .6.4l-.6-.4z" class="cls-1"/>
      <path d="M30 34.5l.1.1c.1.2 0 .2-.2.2s0-.1-.1-.2c-.2-.1.2 0 .2 0l-.2-.2-.3-.2a1 1 0 0 0 .4.3z" class="cls-1"/>
      <path d="M30.1 35c-.6-.4.1.1-.2 0l-.3-.2s.2.2 0 0l.4.4-.3-.1a6 6 0 0 0-.5-.4c0-.3 0-.6.2-.5l.3.3c-.1 0-.3-.2-.3 0s.4.3.7.5zM28.4 34c-.3-.2-.4-.5-.5-.4-.4-.4.7.2.5.4z" class="cls-1"/>
      <path d="M29.5 35.9c-.4-.4-.3-.2-.3-.1a5.9 5.9 0 0 1-.4-.5s.5.2.5 0-.3-.3-.3-.2c-.2-.2.4.2.3 0l-.2-.3s.4.3.3 0a6.3 6.3 0 0 1 .1 1zM29.4 36.2l-.4-.4a1.2 1.2 0 0 0 .3.5c-.2 0-.6-.3-.2 0l-.5-.2.4.3a1.3 1.3 0 0 1-.5-.3c-.2-.3 0-.2.1-.2l.5.2-.5-.2h.3l-.4-.3.3-.1a5.5 5.5 0 0 1 .6.7zM28.6 36.7l.3.3v.1c-.3-.3-.4-.2-.5-.3l-.2-.2s.2 0 .3.2v-.2l-.3-.2c-.2-.3.3.2.5.2l-.3-.3c0-.2.2.1.3 0l.2.2c0 .1-.2.1 0 .3s.1.2 0 0a1.1 1.1 0 0 0-.3-.1zM28.5 37.1c.2.2 0 0-.2 0l.4.3c.1.1-.3 0-.6-.4-.2-.2.1 0 .4.1z" class="cls-1"/>
      <path d="M28 37l.3.2c.3.5-.6-.3-.2.2-.2-.1-.4-.5-.1-.4zM28.3 38.5c-.2 0-.4-.2 0 0-.1 0-.3-.1-.4 0-.3-.4.1-.2.1-.3l.3.3zM26.1 3.2A18.6 18.6 0 0 0 24.6 2l-.5-.2-1.4-1c.2 0 .2 0-.2-.3L22 0l.1.3c-.4-.4-.3-.2 0 0-.3 0-.3-.2-.6-.3a1.3 1.3 0 0 0 .4.5 3.5 3.5 0 0 0-.4-.3c.1.3.3.5-.2.2l.2.7.5.4s-.2-.1 0 0c-.7-.4-.5-.1-1-.5l.3.4c-.5-.5-.3.5 0 .7H21a2 2 0 0 0-.4-.3c.3.3 0 .2 0 0 0 0 0 .1 0 0-.3-.2.2.3 0 .3-.4-.4-.3-.2-.1 0l-.4-.4c.3.4.2.5 0 .4.3.8-.2.7-.4.8l.2.2c-.2 0-.2.3-.6 0 0 .2.4.5.5.6h-.3a1.2 1.2 0 0 1 .3.4c-.2-.1 0 .1 0 .1l-.4-.2.2.2c-.7-.4-.3 0-.6.1l-.3-.2s.2.3-.2 0c0 0 .2.3 0 .2l.4.3a1.2 1.2 0 0 1-.3-.2c0 .2.5.5.4.5-.7-.5-.8-.3-.5.2l-.4-.2c.3.5-.8.2-.5.7l-.3-.2c0 .1 0 .4-.3.3.5.4-.1.3-.1.5s.3.2.3.2-.7-.3-.5 0c-.7-.4-.4.4-.7.4.6.6 0 .3.3.7-.5-.3-.4.2-.7 0-.2.2.2 1-.4.6l.4.4-.4-.4c-.2 0 0 .2-.3 0a2.4 2.4 0 0 1 .3.4c.6.8-.4.3 0 .8a1.6 1.6 0 0 1-.5-.3 3.9 3.9 0 0 1 .7.8l-.8-.1.6.6c-.8-.5-.2.1-.6 0a2.4 2.4 0 0 1 .3.3c-.2-.2 0 0-.1 0l-.3-.4c0 .2-.2-.1-.3 0a1.6 1.6 0 0 1 .2.3l-.4-.3c0 .1.2.3-.2 0 0 0 .1 0 0 0l.2.2.1.1c.1.1.2 0 .5.3s-.3-.1-.6-.3c-.3 0 .1.5-.6 0 .4.4 0 .2.2.4a2.7 2.7 0 0 1-.2-.3c0 .2-.2.1-.3.3a3.5 3.5 0 0 0 .9.6c.1.2-.2 0 0 .3l-.4-.3s-.2 0 .1.2l-.4-.2-.4-.3h-.4c.2 0 .4.2.3.2-.4-.2-.2 0-.5-.1.5.4.3 0 .8.5a.5.5 0 0 0 0-.2l1 .7s0 .2-.1 0c-.2 0-.3.2-1.1-.4l-.3-.4h-.3a4.5 4.5 0 0 0 1.1.8c0 .1-.5-.2-.2 0 .1 0 .3.2 0 .1l.6.5-.3-.4c.8.7.6.6 1 1.1l-.2-.1a3.2 3.2 0 0 0-.6-.6h-.1c.2 0-.3-.4-.4-.4.2.2.1.2 0 .2l-1-.6c.2.3.4.2.6.4 0 .2 0 .3-.3 0a1.3 1.3 0 0 0 .3.2v.2l-.4-.3c0 .1 0 .2-.5-.1.4.3-.1.1-.2.1l.4.3s-.1-.1 0 0 .1.3 0 .2c.4.4.3 0 .3 0 .2.3.2.1.4.3s.2.3.1.4.4.2.4.3a3.7 3.7 0 0 1-.5-.5c-.2 0 .2.2 0 .3l-.3-.4c.4.4.2 0 0 0l-.3-.2c.3.3-.1 0-.2.1l.5.4c-.7-.5 0 .2 0 .2-.2 0 0 .3-.5-.2l-.2-.3c0 .2-.4 0 0 .4l-.4-.5c.2.3 0 .2-.2.2a6 6 0 0 1 .8.7l-1-.9H11c.7.6.3.4.7.9-.3-.4-.6-.4-1-.6.2 0 .1 0 .2.2l-.3-.3.3.5c-.2 0-.7-.1-.3.3-.4-.3 0 .5-.7-.1-.3 0 .1.3.4.6l-.8-.6.3.4-.4-.3c.4.7 0 .5 0 1-.3-.3-.3-.1-.7-.4a1.6 1.6 0 0 1-.3.8c.6.5.4.6 0 .4l-.5-.4c.4.3-.2 0 .2.3a2.8 2.8 0 0 1 .7.6c-1-.7-1-.4-1-.3-.6-.4-.7-.2-.2.3-.1 0-.6-.3-.2 0-.5-.2-.2.3-.7 0 .4.4.3.6-.1.2.1.4-.1.4-.3.5.4.4 0 .1 0 .2l.4.4c-.4-.2-.1.1-.3.1-.5-.4-.3 0 0 .2a2.3 2.3 0 0 0-.6-.3c.1.3 0 .2-.4.2.5.4-.1 0 0 0l.3.4c-1-.4-.1.5-.5.7.5.3.5.5.3.4.4.3.2.3.1.3l1.6 1.3.4.2 1.1 1.1.5.2c.3.1.4.3.6.5l.1.2.9.7 1 1c-.1-.2.3 0 .4 0a6 6 0 0 0 1.3 1.3c.4 0-1-1.5-.5-1.3l.2.2c.2 0-.1-.3-.1-.3l.7.5c-.5-.4.2.1.2.1-.4-.4.2 0-.1-.3a1 1 0 0 0 .3.2l-.3-.4c.2.1-.1-.2 0 0l.3.3c.1-.1-.2-.4.3-.1-.2-.3-.5-.4-.5-.4.8.5 1.5.4.6-.1.2 0 .3 0 .4.3 0-.2.2-.2 0-.4l.4.3c0-.2.3-.2.2-.4l.3.2c-.1-.4.4-.2.4-.6 0-.2.8.1-.3-.8v-.2a4 4 0 0 1 .5.3c0-.4.3-.4.2-.8.2.3.3.2.4.1a5.7 5.7 0 0 1-.5-.6 1 1 0 0 1-.2 0h.2a4.5 4.5 0 0 0 .6.5c-.4-.3.4.2 0 0a2.8 2.8 0 0 1-.3-.3l-.1-.1c.3.1.3-.6 1.2.3 0-.2-.6-.7-.3-.6l.4.3c-.5-.6.5-.2 0-.7.8.3.3-.4 1-.1-.3-.4.5.1.4-.1a1.5 1.5 0 0 0 .3.2c-.1 0 0-.1 0-.2l-.5-.4.4.3-.2-.4c-.3-.4.1.1-.1 0s.5.1 0-.3l.3.2c-.3-.5.5-.2.5-.4l-.2-.1s.5 0 .1-.2l-.1-.2c-.1-.2 0 .1-.2 0l-.3-.3.3.3.4.2c.6.2.4 0 .8 0-.3-.3-.4-.7 0-.4a9.2 9.2 0 0 1-.8-.8l.8.8c-.2-.3.1-.2-.2-.4.2.2 0 0 0 0s-.4-.5-.3-.5l.5.4c-.2-.4.3-.3.4-.6a1.6 1.6 0 0 1 .4.3c.2 0 0-.2 0-.5.5.4.3 0 .7.3-.4-.6.4-.1.3-.4a2.1 2.1 0 0 1-.4-.4c.4.1.6 0 .5-.2l.4.3c.2-.4.2-.7.8-.9L24 17c.3.2.2 0 0 0l.4.1c-.2-.1 0-.1-.2-.3.3.3.3.1.2 0l-.3-.1c.3 0 1 .2.5-.4l.2.2c-.2-.7.8-.7.6-1.4l.4.4c-.5-.6.3-.4 0-1 .3.1 1 .5.5 0l.4.2c-.3-.6.5-.3 0-.9a4 4 0 0 1 .5.3c0-.1-.1-.5.2-.2-.1-.3.4-.1 0-.5.4-.1 1-.2.6-1 .6.3.2-.3.7-.3l-.3-.3a3.4 3.4 0 0 0 1.4-.8.8.8 0 0 0 .5-.2l-.3-.4a1.3 1.3 0 0 0 .4.3c-.2-.4 0-.4.4-.4-.4-.3.3 0-.2-.5.4.2.2-.2.5 0-.6-.7.5-.3 0-1a.4.4 0 0 0 .3.1 2 2 0 0 1-.4-.3l.4.3-.2-.3c.5.3.1-.1.3 0a2.8 2.8 0 0 0-.3-.3c.2 0 .8.3.4 0 .4 0 .3-.2.3-.4a2.6 2.6 0 0 0-.5-.5s.3.2 0 0L29.6 6c-.2-.2-.4-.2-.6-.5l.3.3c.2 0-.2-.4-.3-.4.1.1 0 0-.2 0l-2.7-2.2zM14 12.5l.7.5v.1l-.7-.6zm8.3 1.4h-.3c-.2-.3 0-.3-.3-.5a2.4 2.4 0 0 1 .6.5zM18 12l.4.3c.3.4-.2 0-.4 0-.3-.2 0-.1 0-.3zm1 2.7c.4.4.4.6-.1.1zm3 2.8a4.8 4.8 0 0 1 .7.7l-.8-.6c0-.1.5.3.1 0zm-6.1-4.8a.7.7 0 0 1 .3.4l-.3-.2c-.2-.2-.2-.3 0-.2zM14 11.3l.4.3h-.2l-.2-.3zm1 2.4l.1.2a.7.7 0 0 0-.2 0l-.2-.4a1.2 1.2 0 0 0 .3.2zm3.5 3c.3.3.2.4.2.5-.3-.3-.5-.6-.3-.5zm-2.8-2.2c.3.2.3.3.3.4-.1-.1-.5-.4-.3-.1v-.1c0-.1-.2 0-.2 0-.2-.2 0-.2-.1-.3s.3.2.2 0zm2 2.1c.2.2 0 .1 0 .2v-.1a2.8 2.8 0 0 1-.4-.2l.4.1zM15 14.7c-.3-.1-.2 0-.4-.3 0-.2.5.3.3.3zm0 0a2.7 2.7 0 0 0 .3.3 1.3 1.3 0 0 0-.3 0c-.4-.3.3 0-.2-.3-.3-.3.4.3.2 0zm1 1c0 .2.3.4.4.6l-.9-.9.2.2c.2.2 0 0 .3.1zm-.6-.2c.4.3.4.5 0 .1.2.1-.2-.3 0-.2zm2.9 2.5c.4.4.1.3.3.6a.6.6 0 0 0-.3-.1c-.2-.2 0-.2-.4-.5h.4zM15 16.1c.1.1 0 .1 0 .2-.3-.3-.5-.4-.4-.5l.3.4zm-.7.3l.2.2c0 .1-.2-.1-.2 0-.5-.4.3.2 0-.2zm-2.9-2l.3.4c-.4-.4 0-.2-.3-.4zm.5 3.5l-.1.1c-.4-.3-.3-.4.1-.1zm-.4 1.4l.3.3-.2-.1v.1l-.3-.2c-.2-.2.2 0 .1-.1zm2.4 3a4.4 4.4 0 0 1 .4.4c0 .1-.4-.2 0 .2l-.4-.2.4.3s-.4-.2-.2 0l-.6-.4c0-.2.4 0-.2-.6.3 0 .2-.3.4-.3l.6.4c.3.2.4.7-.4.2zm-5-4.8c0 .2.3.5.1.4l-.4-.4c-.1-.2.3.1.2 0zM13 24c-.1 0-.4.2 0 .6a3.2 3.2 0 0 0-.5-.4c-.3-.2 0 0-.4-.5l.3.3c.1-.3-.6-1.4.7-.4l-.3-.3.4.3c-.1-.5.2-.6.6-.6.2.4-.3.4.2.9-.5-.3-.5.2-.3.3l-.5-.1c.2.3-.2.1.5.7l-.4-.2c-.2-.2 0-.3-.2-.3-.3-.3 0-.1 0-.3zm-5-5.6c.3.3-.3-.2-.1 0q-.5-.4-.4-.5l.5.5zm6.6 6c.1 0 0 0 0 0l-.4-.5.3.5zm-3.7-3l-.2-.1a2.7 2.7 0 0 0 .3.2l-.6-.4a1.3 1.3 0 0 1 .4.2zm3.8 4l-.6-.4.5.4zm-3.1-2c.3.2.1.3 0 .2-.4-.2-.1-.2 0-.1zm1.9 1.8c.3.3.3.4 0 .3s0-.2-.3-.4l.2.2zm-1.1-.5a4.3 4.3 0 0 0 .6.6 5.3 5.3 0 0 1-.8-.5h.1zm-1.8-1.1l.3.2.3.3-.4-.2c.2 0 .2 0-.2-.3z" class="cls-1"/>
      <path d="M14.8 26.3c0 .2-.5-.2-.2 0l-.4-.3a2 2 0 0 0 .5.4c.3.3-.1 0 0 .1l-.4-.3a2.2 2.2 0 0 0-.7 0l-.3-.4a1 1 0 0 0 .5.2l-.4-.4c.3.2 0 0 .1 0 .3.2.1 0 .1 0a7.1 7.1 0 0 0 1.2.7z" class="cls-1"/>
      <path d="M30 5.9a18.6 18.6 0 0 0-1.5-1.3l-.5-.2-1.4-1c.2 0 .1 0-.2-.3l-.5-.4.1.3c-.4-.3-.3-.1 0 0-.3 0-.3-.2-.6-.3a1.3 1.3 0 0 0 .4.5 3.5 3.5 0 0 0-.4-.3c0 .3.3.6-.2.3-.1.1.2.4.2.7.3.2.2 0 .5.3v.1c0 .1-.2-.2 0 0-.7-.5-.5-.2-1-.5l.3.3c-.5-.5-.3.5 0 .8-.1 0-.3-.1-.2 0a2 2 0 0 0-.5-.3c.4.2 0 .1 0 0 0 0 .2 0 0 0l.2.2c-.6-.4-.4-.2-.2 0l-.4-.3c.3.3.1.4 0 .4.2.7-.2.6-.4.8l.1.1c-.2 0-.2.4-.5.1l.5.6c-.3-.2-.3-.1-.3 0a1.2 1.2 0 0 1 .3.4c-.3-.2 0 0-.1 0l-.3-.2.1.3c-.6-.4-.3 0-.6 0l-.2-.2c-.1 0 .2.3-.2 0 0 0 .2.4 0 .2l.4.4a1.2 1.2 0 0 1-.3-.3v.1l.4.4c-.7-.4-.8-.2-.6.2l-.4-.2c.3.6-.8.2-.4.7l-.4-.2c0 .2.1.4-.2.3.4.4-.2.3-.2.5s.3.2.3.2-.7-.3-.4.1c-.8-.5-.4.3-.8.3.6.6 0 .3.4.7-.6-.3-.5.2-.8 0-.2.2.3 1-.3.7l.3.3-.3-.3c-.2 0 0 .2-.4 0a2.4 2.4 0 0 1 .4.3H19c.6.8-.4.3 0 .8a1.6 1.6 0 0 1-.4-.3 3.9 3.9 0 0 1 .7.9l-.8-.2.5.6c-.7-.5-.2.2-.6 0a2.4 2.4 0 0 1 .4.3c-.2-.1 0 0-.2 0l-.3-.3-.2-.2a1.6 1.6 0 0 1 .1.4c-.1-.2-.2-.1-.4-.3 0 .2.2.3-.2 0l.1.1v.1c0 .1.2 0 .3.2s.1-.1.5.2l-.6-.3c-.3 0 0 .5-.6.1l.2.3a2.7 2.7 0 0 1-.3-.2s-.2 0-.2.2a3.5 3.5 0 0 0 .8.6c.2.2-.1.1 0 .3l-.4-.3s-.2 0 .2.3c-.2-.2-.2 0-.5-.3l-.4-.3h-.3l.2.3c-.4-.3-.1 0-.5-.2.5.4.3 0 .9.5a.5.5 0 0 0 0-.2l.9.7s.1.3-.1 0c-.2 0-.2.2-1-.4l-.4-.4h-.3a4.5 4.5 0 0 0 1.2.8c0 .1-.5-.2-.2 0 .1 0 .3.3 0 .1l.6.5-.3-.4c.8.7.6.6 1 1.1l-.2-.1a3.2 3.2 0 0 0-.6-.6h-.1c.2 0-.3-.4-.4-.4.2.2.1.2 0 .2l-1-.6c.2.3.4.2.6.4 0 .3 0 .3-.4 0a1.3 1.3 0 0 0 .4.3l-.4-.2c0 .1 0 .2-.5 0 .4.2-.1 0-.2 0l.3.3c.1 0 0-.1 0 0s.2.3 0 .2c.5.4.3.1.4 0 .2.3.2.2.4.3s.2.3.1.4.4.3.4.3a3.7 3.7 0 0 1-.5-.5c-.2 0 .2.2 0 .3l-.3-.4c.4.4.2.1 0 0l-.3-.2c.3.3-.1 0-.2.1l.5.4c-.7-.5 0 .2 0 .3-.2-.1 0 .2-.5-.3l-.2-.3c0 .2-.4 0 0 .4l-.4-.4c.2.2 0 0-.2 0a6 6 0 0 1 .8.8l-1-.9H15c.6.6.3.4.7.9-.4-.4-.6-.4-1-.6.2 0 .1.1.2.2l-.3-.3.3.5c-.2 0-.8-.1-.3.3-.4-.3 0 .5-.7-.1-.3 0 .1.3.4.6l-.8-.6.3.5-.4-.4c.4.7 0 .5 0 1l-.7-.4a1.6 1.6 0 0 1-.3.9c.6.4.4.5 0 .3l-.5-.4c.4.3-.2 0 .2.4a2.8 2.8 0 0 1 .7.5c-1-.7-1-.4-1-.3-.6-.3-.7-.1-.2.3-.1 0-.6-.3-.2 0-.5-.2-.2.3-.7 0 .4.4.3.6-.1.2.1.4-.1.4-.3.5.4.4 0 .1 0 .2l.4.4c-.4-.2-.1.1-.3.2-.5-.5-.3-.1 0 .2a2.3 2.3 0 0 0-.6-.4c.1.4 0 .2-.4.2.4.4-.1 0 0 0l.3.4c-1-.4-.2.6-.5.7.5.4.5.5.3.4.4.4.2.3.1.3l1.6 1.3.4.2 1.1 1.1.5.2c.3.1.4.3.6.5l.1.2.9.7 1 1c-.1-.2.3 0 .4.1a6 6 0 0 0 1.3 1.2c.4 0-1-1.5-.5-1.3l.2.2c.2 0-.2-.3-.1-.3l.7.5c-.5-.4.2.2.2.1-.4-.4.2 0-.1-.3a1 1 0 0 0 .3.2l-.4-.4c.3.1 0-.1.2 0l.2.3c.1-.1-.2-.4.3-.1l-.5-.4c.8.5 1.4.5.6-.1.2.1.3 0 .4.3 0-.2.2-.2 0-.4l.4.3c0-.1.3-.2.2-.4l.3.3c-.2-.5.4-.3.4-.7 0-.1.8.1-.3-.8V26a4 4 0 0 1 .5.3c0-.4.3-.4.2-.8.2.3.3.2.4.1a5.7 5.7 0 0 1-.5-.5 1 1 0 0 1-.2-.1h.2a4.5 4.5 0 0 0 .6.5c-.4-.3.4.2 0 0a2.8 2.8 0 0 1-.3-.2l-.1-.2c.3.1.3-.6 1.2.3 0-.2-.6-.6-.3-.6l.4.3c-.5-.6.5-.2 0-.7.8.3.3-.4 1-.1-.3-.4.5.1.4-.1a1.5 1.5 0 0 0 .3.2c-.1 0 0-.1 0-.2l-.5-.4.4.3-.2-.4c-.3-.4.1.2-.1 0s.5.1 0-.3l.3.2c-.3-.5.5-.2.5-.4l-.2-.1s.5 0 .1-.2l-.1-.2c-.1-.2 0 .1-.2 0l-.3-.3.3.3.4.2c.6.3.4 0 .8 0-.3-.3-.4-.7 0-.4a9.2 9.2 0 0 1-.8-.8l.8.8c-.2-.2.1-.2-.2-.4.2.2 0 0 0 0s-.4-.5-.3-.5l.5.5c-.2-.5.3-.4.4-.7a1.6 1.6 0 0 1 .4.4c.2 0 0-.3 0-.6.5.4.3 0 .7.3-.4-.6.4-.1.3-.4a2.1 2.1 0 0 1-.4-.4c.4.1.6 0 .5-.2l.4.3c.2-.3.2-.7.8-.9l-.2-.3c.3.2.2.1 0 0l.4.2-.2-.4c.3.3.3.1.2 0l-.3-.1c.3 0 1 .2.5-.4l.2.2c-.2-.7.8-.7.6-1.4l.3.4c-.4-.6.4-.4 0-1 .4.1 1 .5.6 0l.4.2c-.4-.6.4-.2 0-.9a4 4 0 0 1 .5.3s-.1-.5.2-.2c-.1-.2.4-.1 0-.5.3-.1 1-.2.6-1 .6.4.2-.3.6-.3l-.2-.2a3.4 3.4 0 0 0 1.2-.8h-.1a.8.8 0 0 0 .6-.2l-.3-.3a1.3 1.3 0 0 0 .4.2c-.3-.4 0-.4.3-.3-.3-.4.4-.1-.1-.6.3.2.1-.1.5 0-.6-.7.4-.3 0-1a.4.4 0 0 0 .2.1 2 2 0 0 1-.3-.3l.3.3c.1.1 0-.2-.2-.3.5.3.2 0 .4 0a2.8 2.8 0 0 0-.1-.3c.2 0 .8.3.4-.1.4.2.3-.1.3-.3a2.6 2.6 0 0 0-.5-.5s.3.1 0 0l-1.7-1.5-.6-.4.3.2-.3-.3h-.2c-1-1-1.7-1.5-2.7-2.2zm-12.2 9.2l.7.6-.7-.5zm8.3 1.5l-.3-.1c-.2-.2 0-.2-.3-.4a2.4 2.4 0 0 1 .6.5zm-4.2-2l.4.4c.3.4-.2 0-.4 0-.3-.3 0-.2 0-.3zm1 2.8c.4.4.4.5-.1.1zm3 2.8a4.8 4.8 0 0 1 .7.7l-.8-.6c0-.2.5.3 0 0zm-6.1-4.8a.7.7 0 0 1 .3.4l-.3-.2c-.3-.2-.2-.3 0-.3zm-1.9-1.5l.4.4H18c-.4-.3-.3-.3-.2-.4zm1 2.5v.2a.7.7 0 0 0-.1-.1l-.3-.4a1.2 1.2 0 0 0 .4.3zm3.4 3c.3.3.3.4.3.5-.3-.3-.5-.6-.3-.5zM19.5 17l.3.4s-.5-.3-.2 0l-.1-.1-.1-.1-.2-.2c-.2-.1.4.2.3 0zm2 2.2c.3.2 0 0 0 .1a2.8 2.8 0 0 1-.3-.3l.4.2zm-2.7-2c-.2 0-.1 0-.4-.3l.4.3zm.1.1a2.7 2.7 0 0 0 .3.3 1.3 1.3 0 0 0-.3 0c-.4-.4.2 0-.2-.3-.3-.3.3.2.2 0zm1 1l.3.5-.9-.8.2.1c.3.3 0 0 .4.2zm-.6-.3c.4.4.3.6-.1.1.3.2-.1-.2 0-.1zm2.9 2.5c.4.4.1.4.2.6a.6.6 0 0 0-.2-.1c-.2-.2 0-.2-.4-.5h.4zM19 18.8c.1.1 0 .1 0 .1-.3-.2-.5-.3-.4-.4l.3.3zm-.7.2s0 .2.2.3c0 0-.2-.1-.2 0-.5-.5.3.1 0-.3zm-2.9-2l.3.4c-.4-.3-.1-.2-.3-.4zm.5 3.6c-.5-.3-.4-.4 0 0zm-.5 1.4l.4.3-.2-.1s-.1 0 0 .1c-.2 0-.2-.2-.3-.2-.2-.3.2 0 .1-.2zm2.5 3a4.4 4.4 0 0 1 .3.3c0 .2-.4 0 0 .3l-.3-.2.3.3s-.4-.2-.1 0l-.6-.4c0-.3.4 0-.2-.6.3 0 .1-.3.3-.4l.7.5c.3.2.3.6-.4.1zm-5-4.8c0 .2.3.4 0 .3s0-.1-.4-.4c0-.2.3.2.3.1zm4.1 6.4c-.2-.1-.4.2 0 .5a3.2 3.2 0 0 0-.6-.3c-.3-.3.1-.1-.3-.5l.2.2c.2-.2-.6-1.4.7-.4l-.2-.2.4.2c-.2-.5.1-.6.5-.5.3.4-.2.3.3.8-.5-.3-.5.2-.4.4-.2-.2-.1 0-.5-.2l.6.7-.4-.2c-.2-.1 0-.3-.2-.3-.3-.2 0 0-.1-.2zm-5-5.7c.3.3-.3-.2-.2 0q-.5-.4-.4-.5c0 .2.5.6.6.5zm6.6 6c0 .1-.1 0 0 0l-.5-.4.4.4zm-3.8-3a2.7 2.7 0 0 0 .2.2c-.2 0-.4-.4-.6-.5a1.3 1.3 0 0 1 .4.3zm3.8 4.1c-.1 0-.4-.4-.6-.4-.2-.4.4.1.6.4zm-3-2c.2.2 0 .3 0 .2-.4-.3-.2-.2 0-.2zm1.8 1.8c.3.3.3.4 0 .3s0-.2-.2-.4l.2.1zm-1-.5a4.3 4.3 0 0 0 .6.6 5.3 5.3 0 0 1-.9-.5c-.1-.1.1 0 .2 0zm-1.8-1.2l.3.2c.3.2 0 .1.3.4l-.4-.3c.2 0 .2 0-.3-.3z" class="cls-1"/>
      <path d="M18.6 29c.1.1-.4-.3-.1 0l-.4-.3a2 2 0 0 0 .5.4c.2.2-.1 0 0 0-.4-.1-.3-.1-.4-.3a2.2 2.2 0 0 0-.7 0c-.4-.3-.2-.3-.3-.4a1 1 0 0 0 .5.3l-.4-.4c.2.1 0 0 .1 0 .3.2.1 0 .1 0a7.1 7.1 0 0 0 1.1.7zM36.5 12.7l-.1.3q0-.4.1-.3zM31.6 12c0 .1 0 .3-.1.2V12c0-.2 0 0 .1 0zM30.6 13.7c0 .3 0 .1-.1.2 0-.3 0-.2.1-.2zM9.5 15.7c0-.2-.1 0-.2-.2v.2c0-.2 0 0-.2 0v-.4-.1c.3 0 .4 0 .4.5zM9 14.4v.2l-.1-.6.1.4zM6.8 11.1H7v.4c-.1-.1 0-.2 0-.4zM6.8 11.8c0 .2-.1 0-.1.1 0-.1 0-.4-.1-.2V11c0 .4.1-.3.1.3V11a3.6 3.6 0 0 1 0 .8zM6.3 11.7c0-.1 0 0 0 0a1 1 0 0 1 0 .2c-.2 0-.2-.3-.2-.3 0-.3.1-.2.2-.4v.5z" class="cls-1"/>
      <path d="M38.1 18.5v-.3c0 .2.1 0 .2 0v-.6l-.1-.4a1.6 1.6 0 0 0 0-.7c0 .1 0 .2 0 0a1 1 0 0 0 0-.3V16v.3c0-.2 0-.3-.2-.1v-.5s0-.3.2 0V15v-.2a.4.4 0 0 1 0-.2s-.3-.1-.4.2h.1c-.1 0 0 .2 0 .2l-.3-.1v-.6l-.1.2c0-.3-.2 0-.2-.5h.2l-.1-.2v-.3c.1.2 0 .4-.1.5v-.3a.4.4 0 0 0 0 .2l-.1-.4v.5c-.1.1-.2 0-.2.2 0-.3-.3.1-.2.3l-.1.1c0-.1 0-.2-.1 0v-.5c0-.3-.2-.1-.3 0a2.3 2.3 0 0 0-.1-.5v.1a.4.4 0 0 0 0-.3l-.1-.1v-.1-.2c.2-.2.3 0 .3-.3l-.2-.2V12.7c-.2.2-.2.1-.3.1v0c-.1.3-.3-.3-.3.5 0 .1-.2 0-.2.3a1 1 0 0 1-.1.5 1.6 1.6 0 0 1-.1-.5s.3-.6.4-.2a1.4 1.4 0 0 0 0-.8c-.1.4-.2.2-.3.1l-.1.2v.6l-.1.4c0-.1-.1 0-.1 0a.8.8 0 0 1 0 .4v.2a1.2 1.2 0 0 1-.4-.6s0 .1-.1 0v.7c0-.2-.2 0-.2-.2v-.2a2.4 2.4 0 0 1-.1-.5 2.8 2.8 0 0 0 0 1l-.2-.1v.6a.8.8 0 0 0 0-.5c-.2.2-.2-.1-.3-.1v-.2c0 .3.1 0 .2.1l-.1-.6v-.1V13.5c0-.2 0-.5-.1-.4a2.2 2.2 0 0 0 0-.5c-.2-.2 0-.3-.2-.7h.1v.1c0-.2.1-.3 0-.4v-.3l-.1.5-.1-.3c0-.2.2 0 .1-.4v.3a.8.8 0 0 1 0-.4l.2-.3a.5.5 0 0 0 0 .3v-.3.1l.1-.1c-.2-.2-.9.6-.9-.3l-.2.2v-.3a1.1 1.1 0 0 1 0 .3c0-.4-.2 0-.3 0 0-.5-.2.1-.2-.3 0 .2-.1.2-.2.3v-.4c0 .3-.1.1-.2.1 0 .4-.3.2-.3 0-.2.4-.3 0-.5.2v.1c0-.1-.1.1 0-.1-.1-.1 0 .2-.2.2-.2-.4-.5.8-.5 0H30v-.3l-.3-.1v.3c-.2-.4-.6 0-.8-.1s-.2-.5-.3 0c0-.1-.1-.2-.2 0v.3c0-.2 0 0-.1 0v-.4c-.1.4-.3-.2-.4.2 0-.2-.2-.4-.2-.3s-.1.2-.2 0l-.1.3c0-.5-.5.3-.4-.2-.2.2-.4-.3-.5 0a.4.4 0 0 1 0 .1s-.1.3-.2.1l.1-.2v-.2s0-.3-.1 0v.1c0 .1 0-.1-.1 0a1 1 0 0 1 0 .2v.2l-.1-.2c-.1 0 0 0 0-.1V10c-.4 0-.6.3-.8 0 0 .5-.2 0-.3.2v-.4c-.3.2-.7 0-.8.3 0-.4-.2-.3-.3 0V10s-.1.3-.2.1a1 1 0 0 1 0 .4 1.5 1.5 0 0 1 0-.3c-.2-.1-.1.4-.2.4V10l-.1.3-.1-.3a.4.4 0 0 1 0 .3 1.3 1.3 0 0 0 0-.2s0 .1 0 0c0-.4-.2.1-.2-.3l-.1.4v-.4c-.2 0-.4-.2-.6.1a1 1 0 0 0 0-.2c-.3.5-.6.1-.9.5a1.1 1.1 0 0 0 0-.3l-.1.6v-.3c-.1 0-.1-.2-.3 0a.5.5 0 0 0 0-.3c0 .2 0 .1-.1 0 0 .7-.2.2-.4.4V10a.7.7 0 0 1-.7-.1 1.1 1.1 0 0 1 0 .2c-.2-.3-.5-.3-.7 0a1.2 1.2 0 0 1 0-.2c-.2 0-.2.1-.3.2a1.8 1.8 0 0 0 0-.2c-.1-.1-.2.3-.3.2v-.2V10c-.1-.2-.2.2-.3-.1l-.1.3v-.3c-.2 0-.4 0-.6.4a1.8 1.8 0 0 0 0-.2c0-.2-.1 0-.2 0a1.8 1.8 0 0 0 0-.2 1 1 0 0 0-.9.6V10c-.2.2-.5 0-.6.4a1 1 0 0 1 0-.2c-.2 0-.2.1-.4 0 0 .4-.2 0-.3.3v-.2-.2c0 .3-.3 0-.4.3-.2 0-.5-.2-.6.2 0 0 0-.3-.1-.2l-.1.3c-.1 0-.2 0-.1-.3-.1.2-.2 0-.3 0v.3l-.1-.2s.2-.2 0-.3c0 .3-.3 0-.4.5v-.4c-.3 0-.4.3-.6.4-.1-.4-.4 0-.4-.4l-.1.5-.1-.3c-.1-.1 0 0 0-.2 0 0 0 .2-.2 0 0 .5 0 0 0 0s-.3 0-.4 0c-.2.4-.3.2-.4.4v-.3c-.1.5-.2-.3-.3.4 0-.4-.1-.3-.2-.4v0c0 .2 0-.1-.1 0v.3s0-.1-.1 0l-.2.4v-.4.2h-.3V10.8s-.2.5-.1.1c-.1-.1 0 .3-.1.3l-.1-.2c-.1 0 0 .2 0 .2 0-.3 0 0 0 0V11v.3c0-.2-.2 0-.2 0a1 1 0 0 0 0-.5v.2l-.1-.4c0 .5-.3 0-.2.4 0 0 0 .1-.1 0v-.2h-.1a1.9 1.9 0 0 1-.1.4l-.3-.3-.1.4a1 1 0 0 1 0 .6 1.2 1.2 0 0 0 0-.2v-.5c0-.2 0 0 0 0 0-.3 0-.3.2-.2a1 1 0 0 1 0-.2s-.4-.5-.4-.3v.3c0-.4-.1.1-.2 0 0-.4 0 0-.2-.1a1 1 0 0 1 0 .4l-.6-.2v.3c.1 0 0 .3 0 .4s0 0 0 .1a.4.4 0 0 1 0 .2c0-.3.2-.3.2 0 0-.2 0-.2.1-.1l.1-.3c0 .2.1 0 0 .2s0-.1 0 0a1 1 0 0 0 .1.4 1 1 0 0 1 0 .4.5.5 0 0 0 0-.3c0 .6-.2-.2-.3.3v.2a.6.6 0 0 0 .6 0v-.5c0-.2 0-.2.2-.2v.5h-.1c0 .5.2-.1.2.3.1-.4.3.2.3-.1a1 1 0 0 1 0 .7l.2-.3s.2.3.2 0v-.2l.1.3c.2-.6.3 0 .5 0v-.3.5c.1 0 .1.1.2-.2v.4c0-.2.2 0 .2 0v-.3a1.1 1.1 0 0 0 0 .6s-.1.1-.1-.2c0 .3 0 0-.1.2v.3c-.2-.3-.2.2-.3 0 0 .2-.1.3 0 .4s0-.1 0-.2c0 .6.2.2.2.6v-.2c0-.4.2-.6.2-.4a.4.4 0 0 1 0 .2 2.2 2.2 0 0 1 0 .7l.1.6c0-.1.2-.3.3 0a3.9 3.9 0 0 0 .1-1v.3c0-.2-.3.1-.4-.1s.1-.1.1-.3c0 0-.2 0-.2-.4.3.1.6-.4.6.7 0 .1 0-.2 0 0v.6c0-.2 0-.3 0 0v.5c-.1-.2-.2.2-.2.3-.2-.1-.3.4-.3 0 0-.2-.2.5-.2 0l-.1.5v-.5c0 .3 0 .5-.2.4v.7H9c.1 0 .2.4.3.3-.2-.2 0-.4 0-.6v-.1a1.8 1.8 0 0 0 0 .2c.1.1.2-.1.2 0a1 1 0 0 0 0-.2c0 .2 0 0 0 0l-.1.5c.1-.1.5.7.6-.1 0 0 0 .2.2.2 0 .4.1.3.2.4v-.4c.1.2.2 0 .3-.1v.2h-.1v.3c0 .2 0 0 0 0l.2-.1c0 .4.2 0 .2 0 0 .2.1.3.1 0v.4c.2-.3.4 0 .5-.4 0 .4 0 0 .1.3 0-.2.1-.2 0-.4 0 .2.2 0 .2-.1-.1.4.1.2.1.7h.6a1.1 1.1 0 0 0 0 .2c0-.2 0 0 0 0a.8.8 0 0 1 .1-.4v.5l.3-.5v.6c.3-.1.3.1.6-.3 0 .1.3.2.3-.2v.1a.3.3 0 0 1 0-.1c0 .2.2.2.2 0 0 .3 0 .1.2.2v-.3l.2.4c0-.3.3 0 .5-.2 0 0 .1-.1.1 0v-.3-.3c0 .1 0 0 0 0-.1.3.2 1 0 .3 0 .2.2-.1.2.2v.1c.1.3.2.2.4 0 0 .2 0 .2.1 0 .1.3.3 0 .4 0v-.3c0 .4.4.5.4.2.2.3.4.1.5 0h.5c.2.2.3-.1.3 0s.2.1.4-.3v.3c.2 0 .4 0 .4-.4a.8.8 0 0 0 1 .3l.3.3a2.7 2.7 0 0 0 0-.4v.3c0-.2 0 0 0 0 .2-.3.4 0 .7-.2v.2a2.3 2.3 0 0 0 .4 0c.1 0 .5-.4.4-.2.2 0 .4-.3.5 0 .1 0 0-.5.2-.4 0 .4 0 .2 0 0v.5c.1-.2.3 0 .3-.3 0 .3.2.3.2.1.1.4.3 0 .4-.2a1.1 1.1 0 0 0 0 .5s.1-.2.2-.1c0-.2-.1-.3 0-.4v.4c0 .2.2-.1.1-.3 0 .3 0 .2 0 0a1.1 1.1 0 0 1 0-.2 3 3 0 0 0 .2.5c0-.5 0 0 .1 0 0-.2 0-.2.1 0a.9.9 0 0 1 .2-.3l-.1.4a2 2 0 0 1 .3 0 1 1 0 0 0 1-.2v-.2c0 .3.1.1.2.3V18v.1a.5.5 0 0 0 0 .2c.1.1.1-.2.2-.2a.8.8 0 0 0 0 .4c0-.2.1.1.2 0 0-.3.2-.4.2 0l.2.1c.3 0 .9.4 1.3.2 0 0-.1-.2 0-.2v.1c.1-.2 0 .2.2 0s-.1 0 0-.2v-.2.5s.1.2.2 0v-.2s0 .1 0 0v.3c.2-.2.4 0 .5-.5.2.3.5 0 .7-.1v.3a1.1 1.1 0 0 1 0-.3v.3s.4 0 .3-.2c.1 0 0 .2.2.2v-.3-.1a1.7 1.7 0 0 0 0 .4v-.4s0 .3.2.3 0-.3 0-.4c0 .6.2-.3.2.3l.4-.1a1.1 1.1 0 0 0 0 .2c0-.3.2.2.3-.2 0 .3.2.2.2 0 0 .2.3.1.4.2v-.2c0 .4.2.2.3.2 0 .5.4 0 .4 0v-.3s0 .2 0 0v-.1.5c0 .2.2-.2.3-.3v0c0 .2.1.3.2.3 0-.5 0-.2.2-.2s.4-.3.4 0c0-.1.2-.1.2 0 .2.3.3.2.4.1v.2c.2-.2.4-.1.6.1 0-.3 0 0 0 0v-.2h.1c0 .5.2 0 .2.3a.5.5 0 0 1 .1-.2c.1.7.4-.3.5 0v-.3a1.7 1.7 0 0 1 0 .6c0-.2.2 0 .2 0v-.3c0 .5.5.2.4-.2a.8.8 0 0 1 0 .3 1.8 1.8 0 0 0 0-.6v-.1a1.5 1.5 0 0 1 0 .3l.2-.2c-.2-.3 0-.4 0 0v.2c0-.2-.1 0-.1.1 0-.1-.1-.3-.1-.1a.7.7 0 0 1 .1.5s0-.3.1-.2v.3l.3-.6.1.5v-.2c0 .3.3 0 .4 0v-.3c0 .2.1.1.2 0l.1.4c0-.2.2-.1.3 0a1.1 1.1 0 0 1 0-.3l.1.2v-.3.3l.1-.2c0-.2 0 .3 0 0v-.2a1.5 1.5 0 0 1 0 .3c.3 0 .3 0 .4-.2zM38 18v-.2a3.3 3.3 0 0 1 .1.4l-.2.1v-.6.3zm0-1c0 .1 0 0-.2 0v-.3q.2 0 .2.3zm0-.6c0-.2-.1-.2-.2-.1V16c0-.2 0 .3.1.2 0-.3.1 0 0 .2zm-.3 1c0-.1-.2.2-.2-.5 0 .1 0 .4.2 0a1 1 0 0 1 0 .7v-.1zm-.6-.8v.3c.1 0 0 .1 0 .2-.1 0-.1-.3-.2-.1 0-.1.1-.1 0-.4v-.1c.1 0 0 .3 0 .4l.2-.3zm0 1.7l-.1.3c-.1.2-.2 0-.1-.4v.1zm-.2-1a4.2 4.2 0 0 1 0 .6c-.2-.2-.1-.7 0-.6zm-.3-1.2s0 .4.1.3v.4a4.1 4.1 0 0 1-.1-.7zm.1-.6v0zm-.3 2.1s-.2 0-.2-.5c0 0 0 .4.1.1a2.2 2.2 0 0 0 0 .4zm0-2.5c0 .1-.1 0-.2 0V15c0-.2 0-.5.2-.4-.2.4-.1.3 0 .4zm-.3.8v-.4l.1.1-.1.2zm0-1.4l-.1.7v-.5-.4s0 .6.1.2zm-2.4 1.9h-.1v-.2.1zm-.3-1.4l-.1-.2a6.7 6.7 0 0 0 0-.8c.1-.2.2 0 .2.2v-.3.6s-.2.1-.1.5zm-.2 1.5c0-.2 0 .1 0 0a.5.5 0 0 0 0-.2l.1-.3V16.1a1.3 1.3 0 0 1 .1.4s-.1.3-.2 0zm.3-3.3v.3s-.1.2-.2.1V13l.2.3zm-.3 2s.1 0 0-.1 0 .3.1.2c0 .6 0-.1-.1 0zm0 2.7a.8.8 0 0 0-.1.4v-.1-.3h.1zm0-6.6s0 .3.2.3c0 .2-.1-.2-.2-.1l.1-.3zm-3.1.3c.2-.5.6-.4 1-.4 0-.5.2-.2.2-.4v.5c.3-.3.6.2.8-.3 0 .4.3.3.2 1l-.1-.4a1.5 1.5 0 0 1-.1.4v.2a2.3 2.3 0 0 0 0 .5.4.4 0 0 1-.1-.3c-.2.3-.4 0-.5-.3l-.1.4-.3-.4v.5s-.1-.4-.2 0c-.2-.2-.5-.6-.7-.2 0-.1-.2-.5 0-.4-.2 0-.4-.5-.5-.2v.2c-.2 0-.3.2-.4-.2 0 .5-.4.1-.6.1 0 .3-.1 0-.2.4 0 0 0-.2-.1 0 0-.3 0-1 .2-.8a1 1 0 0 1 0-.2 1 1 0 0 1 0 .2v-.2c0 .2.3 0 .4-.2v.3s0-.3 0 0c0-.2 0-.1.2-.1s0-.3 0-.4 0 .3 0 0v.2c0 .1.2 0 .2.4 0-.2 0-.3.2-.3v.3a1 1 0 0 0 .3-.3c.2-.1.2.2.2.4zm1.8 1.6V13.9a.9.9 0 0 1 0-.6zm-2 1.6a.6.6 0 0 1 0-.4.8.8 0 0 1-.4-.5c0-.2 0-.6.2-.7s0 .3-.2.2a1.2 1.2 0 0 1 0-.6c0 .2.2 0 .2-.1v0c0 .2.4.1.4-.2s0 .4 0 .3c.2-.3.4.3.5-.3v.4h.9v.8c-.1 0 0 .2-.2.1v.3c-.2.2-.3 0-.6.3 0 .3.1.2.2.2v-.2a4.6 4.6 0 0 1 .5 0v-.3c0-.3.1-.1.2-.1l-.1.8-.1-.2c-.2.4-.5.3-.8.5v-.4-.1-.3c0-.3-.1.2-.1.1-.2.6-.4 0-.6.3zm0-2.8c0 .5 0-.1-.1.2a1 1 0 0 0 0-.2c0 .1 0 0 .2 0zm-.4 2.7c0 .4-.2-.2-.1.3-.1.1 0-.3 0-.2 0-.2 0 .1 0 0zm0-1.3a2.6 2.6 0 0 0-.1.3 1.3 1.3 0 0 1 0 .2.3.3 0 0 0 0-.2V14a3 3 0 0 0 0-.6c0 .1 0 .1.1 0zm-.7 2.3v.3a1.3 1.3 0 0 1 0-.3v.1zm0-1c.1 0 0 .3 0 .4 0 0 0 .2 0 0v-.4zm0-1.7v.5l-.1-.3V13zm-.2-.6l-.1.2c-.1 0 0-.1 0-.2v-.2.3zm-.5.7l-.1.3c0-.2 0-.2-.1 0a.4.4 0 0 0 0 .1l-.1-.2a.4.4 0 0 0 0-.4c.2-.2.1.6.3.3zm-1-2.3l-.2.1.1-.3.1.3zm-.4 1.3v0zm-.3 1.2l-.1-.4c0-.2.3-.2.4 0 0 .7-.3 0-.3.4zm-.8-2.8l.1.6c.2-.3.4 0 .5-.3 0 .2.2.3.3.2.3 1.2-.5.6-.7.6v.2a.4.4 0 0 1 .2.3v.3s-.3.2-.4 0v.2s-.1-.1-.1 0v-.1c-.2 0-.5-.3-.8-.1V12v.7l-.2.1v-.3c-.2.1-.3-.1-.4.1-.2-.3-.2-.5-.4-.3l-.1-.6v.5l-.1-.3c-.1 0 0 0 0-.2v.2c-.1 0 0 0 0-.2a.4.4 0 0 0-.1-.2c-.2.4-.5-.3-.6.4 0-.3-.1-.1-.2 0 0-.6-.3 0-.5-.2 0 .3-.1-.2-.4 0v.2l-.6-.2c.2-.4.5-.7.6-.4.2-.6.5.2.6-.3.1.2.2 0 .2.4.3 0 .5-.3.6-.2 0-.2.1.1.2-.3 0 .2.2.3.2 0v.3a.4.4 0 0 0 0-.3c0 .1.3.5.3 0 0 .6.3.2.4.1.3.2.7.5 1 0v.1c0-.2 0 0 .2-.2 0 .2.1.2.2.1v-.5zm0 3c0 .3-.1 0-.2.2a4 4 0 0 1 0-.6c0-.5.3-.1.3.4zm-1-.4v.2a.3.3 0 0 1 0-.2V13.3s0-.2 0 0 0-.3 0-.2zm-.7.9a1.8 1.8 0 0 1 0 .2V14c-.1-.1 0 0 0 0zm-.2-.6s0-.1-.1 0a1 1 0 0 0 0-.3V13c.2.2 0 .3 0 .6zm-.6.3v0zm-1.2-1l.1.4c0-.2-.1.1-.1-.2v.1a.4.4 0 0 0 0 .2c0 .2 0 0-.2 0l.2-.4zm-.5-.6c0 .3-.1.3-.2.4a1.2 1.2 0 0 1-.1-.5c0-.1.2 0 .3.2-.1-.3 0 .2 0 0zm-.6 0c-.1 0-.2 0-.2.3v-.1-.1c0 .2.1-.5.2 0zm-.1-.5c0 .2-.1 0-.2 0v-.2s.1 0 0 .2c0-.3.1 0 .2 0zm-.6-.1c0 .2 0 0-.1.1v-.2c0-.2 0 .1.1.1zm-.6-.2a.6.6 0 0 1 0 .4c-.2 0 0-.3-.1-.3zm-.3 2.3l.1.2v.3L19 14c-.1 0 0 0 0 0v-.3-.1zm.2-2.9l-.2.4a3.5 3.5 0 0 1 0-.5c.2-.2 0 .4.2.2zm-.8 4.5h.1v.4a2.2 2.2 0 0 1 0-.4zm0-4.2v-.7l.2.1s-.2.2-.2.7zm-.2.6v.4a2.2 2.2 0 0 1 0-.4zm-.2-1.1c.2.7-.2.5 0 0zm-.3 7.4v.2c0-.3 0 .2-.1 0-.1-.3 0-.1.1-.2zm-.5-5c0 .3 0 0 0 0 0-.3 0 0 0 0zm-.3.3v.5c-.3-.3-.4-.2-.5-.5 0-.2.3 0 .4-.3l.1.3zm-1-.7c.2-.8.7.1.4.7l.1.2c.1 0 0 0 0 .2-.1 0-.2-.4-.3-.2a3.9 3.9 0 0 0-.2-.9zm0 .7c0 .2 0 0 0 0V13v.3zm-.8.1c0 .3-.2 0-.2 0 0-.2 0 0 .1 0zM13.9 18v-.2V18zm-.7.2c0 .2-.2 0-.1-.2l.1.2zm-.8-7l-.1.1a1.5 1.5 0 0 1 0-.4v.3zm-.3 6.5v0zm.1-4.7l-.1-.4s0 .1 0 0l.1.3zm-.5-1.5v.2h.1c0 .3 0 .2-.1 0v.5l-.1-.2.1-.5zm-.1 4.3a2 2 0 0 0 0 .7c0 .1 0 0-.2 0 0-.3.2-.4 0-.6s0 0 .2-.1zm-.8-.2s-.1.4 0 .4v.1a.6.6 0 0 1-.2.6.8.8 0 0 0 0-.5V16a.5.5 0 0 0 .2-.2v-.2zm0-1c0 .2-.2.2-.2.2l.1-.3zm-.2 2.4c0 .1 0 0-.1 0v-.2.2zm0-2c0 .2-.3 0-.3 0h.2zm-.3 2.2c0 .3-.1-.3-.1 0v-.7c.1.3 0 .4.2.7 0-.1-.2-.1-.1 0zm0-3.6v-.1.2c-.1-.2-.1-.9 0-.1zm-.6-1V12.8zm-.5.1a1.1 1.1 0 0 0 0-.4L9 12v-.2-.4c.2 0 0 .9.2.6v.4c.1-.3.2-.1.3-.5v.2l-.2.5c0 .2 0 0-.1 0zm-.3-.5h-.1v-.3a1.3 1.3 0 0 1 0 .4zm0-.7c0 .4-.2.3-.2.6l-.1-.3c0-.6.2.2.1-.4l.1.2zm-.3.7l.1.1-.2.2.1-.4c.1-.1 0 .2 0 .1zm-.9-.2s0-.2 0 0a2 2 0 0 1 0-.6v.6z" class="cls-1"/>
      <path d="M33.6 13.2v-.6c0-.1 0 0 0 0v.2l.2.2v-.3l.1-.1v.3h.1l.1-.3c0 .4-.2.7-.2.3l-.1.3c-.1-.1-.1 0-.2 0z" class="cls-1"/>
      <path d="M34.2 12.4v.2l.7.2c-.2.3-.5.4-.6-.1 0 .2-.1.2-.2 0s.1 0 0-.3zM9 16.8v-.2c0-.3.2 0 .1.2-.1.1 0 .5-.2.7s0-.3-.1-.3l.1-.6v.6c.1 0 0-.4.2-.4zM8.6 16.5c0-.2.1.2.1-.1.1 0 0 .5 0 .2.2.2 0 .3 0 .2v.4a1.3 1.3 0 0 1-.1-.7zM8.7 14.1V14c.2.1 0 .2 0 .3V14zM8.6 17.2h-.1a.8.8 0 0 0 0-.5 1.3 1.3 0 0 1 0 .5zM8.3 17l.1.2v.3c-.1-.3 0-.5-.1-.4zM8.3 17.8v.2c0-.1-.1-.2-.3 0v-.3c0-.1 0 0 0 0v-.3a2.4 2.4 0 0 1 .1.4c.1-.3.2.4.2 0zM7 12.7c-.1-.4-.1 0-.3 0l.1-.4.2.4zM6.5 12.4c.1 0 0 .4 0 .2 0 0 0 .2-.1.1v-.4-.2a.8.8 0 0 1 .1.4zM18 7.4c-.1 0-.2 0 0-.2v.2zM20.8 8.9c.3 0 .2.1.2.3-.2 0-.2-.1-.2-.3zM22.7 12.7c0 .1-.2 0-.3.2l.3-.2zM22.6 13a1.4 1.4 0 0 0 .2-.1s.2 0 0 .2l-.2-.1zM22 13.9a2.4 2.4 0 0 1 .3-.2v.3c-.3.2 0-.2-.2-.1zM23.5 13a2.3 2.3 0 0 1 .2 0c.1 0-.1.2.1 0l-.1.2c-.2.1-.2 0-.2-.1zM25 12.5l.2-.1h.2l-.2.2c0-.1-.2 0-.2 0zM26.8 11.9c.2-.2.1-.1.2 0-.2.2 0-.2-.3.1v-.1zM28 11.9c.2-.3 0 0 .1 0-.2.2-.2 0-.2 0zM28.8 11.7a.6.6 0 0 1-.1.2c-.2.1-.2.1-.2 0l.2-.2h-.2l.4-.4.2.1a.7.7 0 0 1-.3.3zM25.2 15H25c-.1 0 0 0 0 0l.2-.2.1.3a.7.7 0 0 0-.4.2c.2-.1.2-.3.3-.2zM30.3 11c.3 0 0 .2.4.1a2.1 2.1 0 0 0-.4.5c0-.2 0-.3-.3-.2l.3-.3zM28 14.4c.2-.2.1 0 .2 0-.3.1.1 0-.2.2 0 0 0-.1 0 0v-.2zM29.8 13v-.2c.3-.2.2 0 0 .2l-.3.2c.2-.1.4-.2.3-.3zM26.6 16.3l.2-.1-.3.3.1-.2zM25.9 17l.4-.2-.4.2zM26.5 16.8c.2-.2.3-.1.2 0l-.3.2c-.1 0 .2-.3 0-.3zM27 17.6c.2-.2.1 0 .2 0-.2.1-.2.1-.2 0zM29 16.2a2 2 0 0 1-.2.2l.3-.2z" class="cls-1"/>
      <path d="M21.8 3.3c-.2 0-.1.1-.3.2l-.2.2c-.2 0-.4.4-.4.3l-.4.4h-.1l-.1.2.1-.2c.1-.1.1 0 0 .1a.8.8 0 0 0-.4.3c.4-.3-.2.2-.1.2s.3-.1.1 0l-.4.2.4-.2-.5.4c-.2.1 0 .1-.2.4l.3-.2a1.6 1.6 0 0 0-.1.1s0 .4-.4.5v.2c-.2 0-.2.2-.3.2s.2-.3 0-.1l-.2.1c-.2.1 0 0 0 .2h.3a.6.6 0 0 0-.2.2c.2-.1.2.1-.2.4 0-.2-.2.1-.2 0 .2-.2 0-.3-.3 0a1.4 1.4 0 0 1-.1.2s-.2.2 0 0l-.5.5c.4-.3 0 .1.4-.1 0 0-.2.2 0 .2.3-.3 0 0 .3 0a.6.6 0 0 1 .1-.2c-.2.3.4.1 0 .5l.4-.4c.2 0 .4.1 0 .4.3-.1.2 0-.2.4 0 0 0-.3-.3-.2 0 .1.1 0 0 .1-.7.5 0-.5-1 .2.1 0 .1-.2 0 0 .2-.3 0-.5 0-.2.3-.5-.3-.3 0-.7-.4.3-.5.3-.7.3l-.3.3s.2 0 0 .2c.2-.2 0 0 0 0a2 2 0 0 1 .5-.1c-.3.3 0 .2.1.3h-.1c-.1.3.6-.1.1.2l.2.1.4-.3c0-.1-.1 0 0 0v.4h.1l-.2.3c.4-.4 0 0 .1 0l.4-.4c-.4.5-.1.3-.3.6a1 1 0 0 0 .3-.3c.1 0-.1.3.2 0l-.2.2a1.6 1.6 0 0 0 .3-.1.7.7 0 0 1-.2.1c0 .2.2 0 .1 0a2.4 2.4 0 0 0-.1.2v.1l.2-.1c0 .2 0 .3.2.5l.3-.3c0 .4.5 0 .6.1.2-.1.2-.3 0-.2l-.4.2.2-.2c-.2.2-.2 0 0-.2h-.1a5.5 5.5 0 0 1 .3-.5v.1c.3-.1 0 0 .2-.2l.6-.4-.1.3c.5-.1-.1.6.2.7.4-.3 0 0 .1 0 .6-.4.3.4.7.1l-.2.2c.1 0 .2 0 .1.1a2 2 0 0 1-.3.3c.3-.5 0-.1-.4 0v.2c-.4.1-.3 0-.4-.2a.5.5 0 0 1-.4 0c.3-.2.1 0 0-.1a2.3 2.3 0 0 0 .6-.5l-.2-.1c-.3.3-.3.2-.5.3 0 0-.2.2-.1.3s.2-.2.2-.2l-.2.3-.2.1-.3.4c.3-.2 0 .2.3 0l.3-.2c0 .2 0 0 .1 0-.3.1 0 .1-.2.3.2-.1 0 0 .2 0a.6.6 0 0 1 .2-.2c-.1.2.1 0 0 .1l-.4.4-.1.1c-.1.1.1 0 .2 0-.4.2 0 0-.2.3h.2c.1 0 0-.1 0 0l-.1.2c.5-.4 0-.2.4-.5 0 .2.4.1.2.4-.2.1-.2-.1-.4 0l-.3.3c.3.2.8 0 .9.4a.5.5 0 0 1 .2-.2c-.1.1-.2.3 0 .2l-.3.2h.3l.4-.3c-.1.2 0 0 .2 0-.2.2-.6.7-.2.5a1.7 1.7 0 0 0 .3-.3c-.2.1 0-.2.2-.4l.3-.1c0 .2.3.2.2.6 0 0-.4.2-.1 0-.3.2-.4.2-.4.1l-.2.2c0 .1-.1 0-.4 0 .1 0 .2 0 .2.2.4-.2.3 0 1-.4l-.3.2s.4 0 .1.3h.3l.3-.2c-.3.3 0 .2 0 .2.4-.5-.1-.3-.2-.3V13h-.2c.2-.3 0-.2.3-.4-.1 0-.2 0 0-.2a3.6 3.6 0 0 0 .7-.7s.1-.1-.1 0l.4-.2s.5-.3.3 0c.4-.3 0 .1.2 0l.2-.1c0-.1-.4-.1 0-.4l.2-.1c0 .1 0 .2.3 0 0 .2-.1.5-.6.8.2 0 0 .2 0 .3.2-.2.2 0 .3-.1l-.4.5H23c-.2 0 .3.1.8-.4.2 0 0 .4.5.2a4.8 4.8 0 0 0-.3.3c.2-.1 0 .1 0 .1.3-.2.5-.2.3 0 .5-.3.2.1.5-.1 0-.2-.4 0-.2-.4a2.6 2.6 0 0 1 .9-.4c-.3.2-.1.2-.2.3.3-.3.4-.1.3 0a5.2 5.2 0 0 0 1-.3.3.3 0 0 0-.3-.2c-.3.2-.4.3-.5.1.4-.3-.2 0 .3-.5 0 0-.3.2-.3 0l-.2.3h-.2c.2-.1 0 0-.1 0a2.6 2.6 0 0 0 .4-.4v.1a1.7 1.7 0 0 0 .2-.2c.4-.2.6-.2.5 0l.1-.2c0 .1.2 0 .2 0l-.4.5c.4-.3.2-.1.2 0 .3-.3.3-.1.4 0l.5-.7-.1.6c-.1 0-.3-.1-.6.3l.3.1.4-.2s0 .4.4.4c0-.1.2-.2 0-.1.2-.3.4-.4.4-.6s.3-.1.3 0c-.3.2 0 0-.2.3a5.3 5.3 0 0 1 .6-.5v.3l.2-.2c0 .3 0 .3.4.3-.3.3-.1.3.1.2v-.2l.3-.1c0 .1-.1.3.2 0-.1 0 0 0 0-.2-.2.1-.3.1 0-.2H30c.3-.2.2-.4 0-.2v-.2c-.3.2-.2-.1 0-.2-.4-.1-.6-.5-1-.8l-.2-.5c-.1 0-.3.1-.4 0s.2-.4-.1-.1l.1-.2c-.4 0-.3-.4-.8-.3.2-.2 0-.1 0 0a.3.3 0 0 0-.5-.4c.2-.3-.1-.2-.4-.1.4-.6-.1-.4-.2-.5a.7.7 0 0 1-.1-.7c-.4.2-.1-.4-.6-.2.1-.7-.5-1-.6-1.4-.3 0 0-.3-.3-.3s0-.3-.3-.1c0-.3-.4-.3-.6-.7l-.3.1a1.4 1.4 0 0 1 .2-.1h-.3a1.4 1.4 0 0 1 .2-.2 4.5 4.5 0 0 0-1.3-.9l-.5.3c-.2.1-.3 0-.3.2.2-.1 0 0 .2 0zm2 8.1a1.7 1.7 0 0 0 .3-.2c.1 0 .3-.1.4 0s-.2.2-.2.2a2.2 2.2 0 0 0-.7.4l.3-.4zm-2.4-7.3c-.2.1.2-.1 0 .1 0 0-.2 0 0 0s-.2 0-.3.1v-.1c-.1.1 0 0-.2 0a4 4 0 0 1 .5-.2c-.1.1 0 .1.2 0h-.2zm-4.6 4.3v.1l-.2.1c0 .1 0 0 0 0l.2-.2zm1.9 1h-.2c-.2.3.3-.3 0 0l.3-.2c0-.1 0 0-.1 0v.2c0 .1 0 0 0 0zm2.3-.2a2 2 0 0 0 .5.9l-.2.2c-.2.1-.1-.2-.3 0-.1-.3-.3-.5-.6-.6l-.1-.6a1.3 1.3 0 0 1 .6-.6l.1.1.3-.3c.1.2.8 0 .4.4.1 0 0 .2.2 0-.1.3-.2.5-.1.6s.1-.1.2-.2v.3a1.3 1.3 0 0 0-.4.4c0-.2-.4-.2 0-.6H21zm-1.5 2.3c.1-.2-.1 0 0 .1l-.3.3v-.2l.2-.1c.1-.2-.1.2 0-.1zm2.6-2c.2-.1 0 .3-.1.5-.1-.1 0-.3 0-.4zm-.9.9c.2-.2 0 0 .1 0l-.4.2.3-.3zm.2.7l.4-.3-.1.2-.3.1zm0 .6c0-.3-.8.3-.5-.1l.3-.2.4-.2s-.1.2 0 0c.3 0-.2.4 0 .2l-.3.3zm1.4-1.2a2.7 2.7 0 0 0 .5-.4l.2.2a1.3 1.3 0 0 1-.2.1h.1c-.2.2 0 0 0 .3s-.4.1-.5.2c0-.2-.1-.1-.2-.3zm.9 0s0 .2.2 0a.8.8 0 0 1 .2-.1c-.1.1.2 0 .1.2-.3.1-.5.3-.6.1v-.1zm-2 1.9l.4-.4-.3.3h-.1c-.1 0 0 0 0 0zm3-.8l-.4.3s.2-.1.1 0-.6.3-.3-.1l-.2.2c-.2.2-.1-.1 0-.3l.6-.4.2.3zm0-.5l.3-.2s.1-.1 0-.2c.5-.2.6 0 1.2-.4 0 .1-.2.3 0 .3l-.4.4.2-.3-.3.2c.1 0 .1 0 0 .1s.3 0 0 .1h-.1l.3-.4c.1 0 0 0 0-.1a3.8 3.8 0 0 0-.3.4s0-.1-.1 0l.2-.3a1.7 1.7 0 0 0-.5.5v.1l-.3.2.1-.4-.3.2c-.2.2.3-.3 0-.2zm2.6-1.5v.3l.5-.3s-.5.3-.3.4c-.2.1-.2 0-.2 0l-.2.3c.2-.2-.3-.1.1-.5a1.6 1.6 0 0 1-.5-.1l.5-.4c.3-.2.4 0 .1.3zm.3.7c.3-.3.2 0 .4-.1h-.4zm0 1a2.8 2.8 0 0 1 .3-.4v.2a.4.4 0 0 1-.4.1zm1.6-.6c.4-.2.1 0 .3 0l-.2.2v-.3zm.7 0a1.6 1.6 0 0 0-.3.4c-.3 0-.4 0-.2-.3s.1 0 .2 0-.1.2.3-.2z" class="cls-1"/>
      <path d="M21.3 9c.2-.2.3-.1 0 0 .1 0 .1 0 0 0zM22.6 12.2h.3l-.7.4v-.2c.2-.1.3 0 .4-.3zM22 13.6l.2-.1-.1.3c-.1 0-.2 0 0-.2zM23.3 12.8h.1l.1.1c-.2.1-.2 0-.2 0zM23.3 14.7a3.5 3.5 0 0 1 .4-.5h-.1c-.1 0 0 0 0 0l.3-.3.1.1a4 4 0 0 1 .5-.4l-.1.2c.1-.2.3 0 .4 0a2 2 0 0 0-.2.2c.2 0 0 .2.3 0l-.2.3-.5.3s-.4.2-.4 0a4.8 4.8 0 0 0-.4.5c0-.2-.1-.1-.3-.1l.2-.3zM26.3 12.2h.3v.1l-.5.1.2-.2zM26.3 12.9c0-.1.2 0 .5-.3a8.8 8.8 0 0 1-.6.5c0-.2.2-.3 0-.2zM26.6 12.9c.4-.3.5-.2.3 0l.3-.1-.1.6c0-.2-.6 0-.2-.5-.1 0-.1 0 0-.1s-.3.2-.3 0zM28.4 12c-.5.4-.2 0-.4 0 .4-.2.3.2.4 0zM25 15l.1-.2.2-.2-.4.3zM27.3 13.3a6.3 6.3 0 0 1 .5-.4l-.4.4.1.1.6-.2c-.2.1-.3 0-.4.3-.1 0-.4.2-.2 0-.3.2-.4 0-.2-.2zM25.4 15.3a3.3 3.3 0 0 1 .6-.2c-.1.2-.3.1-.4.3 0-.1-.3 0-.2-.1zM29.8 11.7c0-.1 0 0 .1 0l-.1.1c-.2 0 0 0 0-.2zM29.5 12c.3-.1 0 .3 0 .3-.2.1-.3 0 0-.3zM29.8 12.3l.3-.3h.1c-.1.3-.4.4-.4.3zM28.3 14.5l-.2.1c0-.2.5-.3.7-.6s0 0 0 .1a2.4 2.4 0 0 0-.5.4zM30.7 12.7h-.2s.1 0 0-.1c.3-.1.3 0 .2 0zM26.5 17l.4-.4c.2-.1.4-.2.4 0l-.8.4zM27.4 17.7a.8.8 0 0 0-.4.3l.2-.3.4-.2v.1l-.2.2c.2-.1 0 0 .2 0l-.1.1-.2.1c.3-.3-.1 0 .1-.3z" class="cls-1"/>
      <path d="M27.4 18l.2-.2v.3c-.3.1.2-.3-.2-.1zM28 19c.1-.1-.2.3.1 0 0 .2.1.1-.1.3h-.3v-.1z" class="cls-1"/>
      <path d="M25.4 21.3v-.1c0-.1.1 0 .1 0l.2.2a1.5 1.5 0 0 1-.3-.1z" class="cls-2"/>
      <path d="M25.6 21.3h.2c.2 0-.1.1-.2 0zM30.8 25.1l.2.4-.2-.4zM30.1 26.1L30 26l.1.2zM30.1 26.2c.1 0 .2.4 0 .4s0-.2 0-.2a.6.6 0 0 0 0-.2zM31 26c.1.3 0 0 0 .2v-.3zM31.2 26s.3.4.1.4a2.1 2.1 0 0 1-.1-.4zM31.3 27.2s0 .2.1.1 0 .1 0 .1v0c-.1-.1 0 0 0-.2zM31.5 28c0-.1 0 0 0 0V28z" class="cls-2"/>
      <path d="M30.6 29.1v.2c0 .1 0 0 0 0h-.1c-.1 0 0 0 0-.2s0 .1 0 .1l-.2-.2v.4a.1.1 0 0 1-.1 0v-.2c-.1 0-.1.1-.2 0v0a.8.8 0 0 0-.1.3.6.6 0 0 1-.1-.3v.1h-.1v0a2.5 2.5 0 0 1-.2.4l.1.2v0l-.1.2c-.1 0 0 0 0-.1l-.2.2v.2c0-.1 0 0-.1 0s0 .2 0 0l-.2.5s.1 0 0 0a.3.3 0 0 1 0 .1l-.1.3c0-.1 0 0-.1 0v.1c0 .1 0 0-.1 0l-.2.5-.5.6a.3.3 0 0 1-.2.2l-.1.3-.2.1c0 .1-.1.2-.3.2s0 .2-.1.3a.9.9 0 0 0-.5.3l-.4.2s.1 0 0 .1H26c-.1 0 0 0 0 0h-.1c-.1 0 0 0 0 0h-.2-.1l-.3.2c-.1 0 0 0 0 0H25l-.3.1h-.2c-.2 0 0 0 0 0h-.5-.1.1l-.5.1a1.4 1.4 0 0 0-.6 0 3.4 3.4 0 0 1-.6-.1H22l-.3-.1a.3.3 0 0 0-.2 0c0-.2 0 0-.2-.2a.5.5 0 0 1-.2 0H21V34h-.3l-.2-.2a1.5 1.5 0 0 1-.4-.2l-.3-.2c-.1-.1-.3-.3-.4-.2s0-.2 0-.2c-.2 0-.4-.4-.6-.4v-.1s-.1-.3-.4-.4c0 0 .1 0 0-.1l-.2-.4s0 .1 0 0l-.2-.2v-.1l-.1-.4-.3-.6h-.1v-.5c0-.2-.1-.3-.2-.3v-.2a4.6 4.6 0 0 0 0-1 7.4 7.4 0 0 1 .5-2.4 4.9 4.9 0 0 1 1.3-1.8l.2-.1a1.4 1.4 0 0 1 .3-.4.8.8 0 0 0 .2-.2 1.4 1.4 0 0 0 .2-.1l.2-.2a4.9 4.9 0 0 1 .5-.3h.3s-.1 0 0-.1l.4-.1c0-.1-.2-.1 0-.2v.1c0 .1.1 0 .2 0l.2-.2c.2-.2.1.1.1 0-.1 0 0 0 0 0h.1c.1 0 0 0 0 0H22.4l.5-.2-.1.1c.2 0 .5-.2.4 0l.8-.1h.3a.8.8 0 0 1 .4 0h-.1a2.1 2.1 0 0 0 .6.1c.1.2.4.1.6.2l.6.2h-.1a3.8 3.8 0 0 0 .8.3l.3.3.5.2c.2.1.5.7.7.7l.6.9s0-.1 0 0l.2.2v-.1.2l.2.2a.2.2 0 0 0 0 .1c.2 0 .2.4.3.4 0-.1-.2-.2 0-.2 0 .2 0 .1.2.3a.7.7 0 0 0 0-.2.8.8 0 0 0 .1.1v.2l-.3-.1a.3.3 0 0 1 0 .2c.1 0 0-.2.2 0s0 .4.1.4v-.2c0-.1 0 0 0 0s.2.2.2.3v-.3a.3.3 0 0 1 0-.1V26l-.2-.2c-.2-.2 0 0 0 0l-.1-.2v.1s0-.6.2-.4c-.1 0 0 0 0-.1H30a.2.2 0 0 0 0-.2s0-.1 0 0a.6.6 0 0 1-.2-.1s0-.2.2 0 0-.2 0-.1l-.3-.3h.2l-.1-.1c-.1-.1-.1 0-.2 0h.1c.1 0 0 0 0 0-.1-.1 0 0 0-.2s-.1 0-.2 0l-.1-.3.1.2c-.1 0-.3-.1-.2-.2l-.5-.5.2.2c.1 0 0 .1 0 .1h.2v.2c0 .2.2 0 .1-.1l-.1-.2-.5-.3-.3-.3c-.1-.1-.3-.1-.2-.2a1.6 1.6 0 0 0-.3-.1l.2.1s-.2-.1-.1 0h-.1l.1-.2c-.2-.2-.3-.4-.6-.4 0 0 .2.1 0 0l-.2-.2H27c-.1 0 0 0 0 0h-.3s-.1-.2 0-.1h.2l-.3-.1s-1-.3-1.2-.2a.7.7 0 0 1 .4 0c-.1 0-.2 0-.1.2a.3.3 0 0 0-.1 0h-.2a.2.2 0 0 1-.1 0 .3.3 0 0 1-.2-.2h.3a1.6 1.6 0 0 0-.5 0h.2-.3a.1.1 0 0 1 .1 0h-.3s.1.1 0 .1l-.1-.1H24.9c.1 0 0 0 0 0h-.1.2c-.1 0-.1 0 0 0a1.6 1.6 0 0 1-.3-.1.4.4 0 0 1-.2 0H24v.1h-.5c-.1 0 .1 0 0-.1a.4.4 0 0 1-.4 0h0-.2a.4.4 0 0 1-.1 0s-.3 0-.2.1H22.8l-.3.2s-.2 0 0 0h-.3.1l-.2-.1a.5.5 0 0 0 .3 0c-.2 0 0-.2-.3-.2 0 .1-.1 0-.1 0h.2a.4.4 0 0 1-.3 0h0a2 2 0 0 0 .2 0v-.1c0-.1 0 0 0 0s-.5.2-.3 0c-.2 0-.1.1-.2.2l.1-.1c.1-.1.1 0 .1 0h-.2s.2.2.3 0a4 4 0 0 1-.4.2c-.1 0 0 .2-.2.2 0 0 .1-.1 0 0h-.5s.2-.1.2 0l.3-.2c0-.1-.2.1-.2 0 .2 0 .2-.1.4 0v-.1h-.3a.6.6 0 0 1-.2 0h-.3c.2 0 0-.1.2-.2s-.2.2 0 .2l.1-.1.1-.1-.1.2c.1-.1.5-.1.4-.2H21.8c-.1-.1.1-.2.3-.3a2.7 2.7 0 0 1-.4 0c0 .2-.2.2-.3.2h-.1c0-.1-.3 0-.2 0-.3 0 0 0-.2.2s0 0 0-.1h-.2a1.3 1.3 0 0 0-.8.5h-.3c.2 0 .2.2.4 0l-.1.1.2-.2h.2c.1 0 0 0 0 .1s.3-.1.3 0a1.6 1.6 0 0 1-.3.1c.2 0-.3.3-.4.2s.1 0 0 .1h-.2c-.1 0 0 0 0 .1h-.4c.2 0 .1 0 0 0a1.1 1.1 0 0 1 .5-.2c.1-.1 0-.2-.1-.1a.8.8 0 0 1-.3.2l-.4.3v.1c-.3 0-.6.4-.8.6 0 0 0-.1 0 0v.1c0 .1-.1 0 0 0l-.3.2-.1.3v-.2l-.2.3-.2.4s0 .1.1 0c-.1.1 0 .1 0 .2l-.4.2s.1-.1 0-.1l-.1.3a.5.5 0 0 0 0 .2s0-.3-.1-.1a4 4 0 0 0-.2.4l-.2.5-.1.2s0 .5-.2.6v.2l-.1.3-.1.4v.8l-.1.3a3.1 3.1 0 0 1 .1.7v.3l.2.6.1.4c.1.1 0 .1 0 .1v-.1.2c0 .1 0 0 .1 0v.1l.4.8a.3.3 0 0 0 0 .2v.1l.2.3c0 .1 0 0 .1 0l.2.5a1 1 0 0 1 .2.2 2.2 2.2 0 0 1 .2.2 2.6 2.6 0 0 0 .4.6.2.2 0 0 0 .2 0c0 .3.3.4.6.6a2.1 2.1 0 0 1 .7.5.1.1 0 0 0-.1 0l.6.3c.3.1.3.2.4 0s0 .2.2.2c0 0-.1 0 0 0l.7.2a2 2 0 0 0 .7.2 7 7 0 0 0 1 .1h.5a4 4 0 0 0 .5 0h.2s-.1-.1 0-.1c-.1 0 .1 0 0 0a.6.6 0 0 0 .3 0 .5.5 0 0 0 .3 0 1.5 1.5 0 0 0 .4 0l.4-.2H26a3.7 3.7 0 0 0 .6-.2c.3 0 .5-.2.8-.3 0 .1-.3.2-.2.3h-.3a1.6 1.6 0 0 1-.3.2 1.6 1.6 0 0 1-.5.2 2.2 2.2 0 0 0-.5.1l-.4.2H24.8h-.3s-.2 0-.1.1a3.8 3.8 0 0 0-.6.1h-.6s.2 0 0 0c-.1 0 0 0 0 0s-1 0-1-.2h-.1s.1.1 0 .1v-.1a1.6 1.6 0 0 1-.6-.1 1.6 1.6 0 0 0-.5-.2c.2 0 .1.1.2.2H21l-.4-.1a2.7 2.7 0 0 0-.6-.4l-.7-.4-.3-.3h-.2c-.2 0 0 0 0 0a2.1 2.1 0 0 0-.2-.3 1 1 0 0 1-.4-.3 1.4 1.4 0 0 0-.4-.3s.1.1 0 .1V34a3.1 3.1 0 0 1-.3-.4l-.4-.4s.2.2 0 .2a2.8 2.8 0 0 0-.3-.6 1.4 1.4 0 0 0-.2-.7 2.2 2.2 0 0 1-.3-.7.3.3 0 0 0 0 .1c-.2-.2-.2-.3-.2-.5a.9.9 0 0 0-.2-.4s.2.2 0 0a11 11 0 0 0 0-.8 1.4 1.4 0 0 1 0-.4c-.1 0-.1.2-.1 0s0-.3 0 0v.2a1.2 1.2 0 0 0 0-.3h-.2v.2s.1-.1.1 0v.8a.7.7 0 0 0 0 .2c0 .1 0 .4.2.6l.1.4c.1.1 0 0 0 0a1.2 1.2 0 0 1 .2.8 5.7 5.7 0 0 1 .3.7v-.2c0 .4.3.6.4.8 0 .1 0 0 0 0v.2h.2c.1 0 .2 0 .5.4 0 0 .2.2.1.3l.3.3.3.2.4.3.5.4s.2 0 0 0l.4.2-.2-.2c.1.1 0 0 .2 0l.2.3s0-.1 0 0h.1l.3.1v.2l-.4-.1-.3-.2-.3-.2-.3-.2h-.1a7.8 7.8 0 0 1 .9.5 1.3 1.3 0 0 0 .8.3h-.1l.2.1a2.3 2.3 0 0 0 .5.2h.2a1.3 1.3 0 0 0 .5 0h-.1.2a4.1 4.1 0 0 0 .5.1h.2a1.6 1.6 0 0 0 .3 0H24.3s-.1 0 0 0h.1a2.5 2.5 0 0 1 .7 0A12.5 12.5 0 0 0 27 36a.4.4 0 0 0 .3 0 .8.8 0 0 0 .2-.3c-.1 0-.1 0 0 0 0 0 .2 0 .3-.2a.7.7 0 0 0 .3-.3 2.2 2.2 0 0 1 .5-.3v-.2h.1l1-1a4 4 0 0 0 .3-.5 1.9 1.9 0 0 0 .2-.6 2.1 2.1 0 0 0 .4-.4v-.4a1.1 1.1 0 0 1 .3-.4V31c0-.1.1-.3 0-.4s.1-.2.2-.3V30v-.7-.4c-.1.2-.2 0-.3 0v-.1c0-.1 0 0 0 0 0 .3 0 .4-.2.3zm.4.1c.2-.2 0 .2 0 .2a.4.4 0 0 0 0-.2zm-1.7 1.2v.3c0 .1 0 0 0 0v-.3zm-.3.3v0zm.9 1.4v.3c0 .2 0 0-.1 0s-.2.3 0 .3a1.4 1.4 0 0 1-.2.4 2.4 2.4 0 0 0-.2.2c0-.1.2-.4 0-.5l.5-.7zm-.9 1.2c0-.1 0 0 0 0l-.1.1.1-.1zm-1.3 1.6l.6-.6v.3a3.5 3.5 0 0 1-.6.3zm-.2.2l-.2.1.2-.2zm-.6 0c.1 0 0 .2 0 .2a4.6 4.6 0 0 1-.5.2l.3-.3h.2zm-1.5.5v.1h0zm-1.7 0h-.3.3zm-.6 0a.4.4 0 0 0-.2 0h.2zm-.6.1H22s.1 0 0-.2l.5.2c-.1 0 0 0 0 .2s-.2 0-.4 0a.4.4 0 0 1 .3-.2zM17 24.8c.1 0 0-.2.2-.3v.2l-.2.3a.4.4 0 0 1 0-.4v.2zm.4-.4c-.2.1-.1 0-.2 0l.1-.2v.2zm1.7-1.8v.1c-.2.2-.2 0 0-.1zm1.2-.4c.1-.1.2 0 0 0s.1 0 0 0zm1.8.1l.5-.1-.5.1zm2.1-.6H24v-.1a.8.8 0 0 0 .4 0c.1 0-.3 0 0 0zm.3 0h-.1c.1-.1 0 0 .1 0v-.1zm.1.5h.3a.1.1 0 0 1 0 .1 1.8 1.8 0 0 0-.3-.2zm.2-.3h.2-.2zm.4 0l.2.1c-.1 0 0 .1-.2 0v-.2zm.2 0l.2.1H25.8c0-.2.3 0 .4 0s.1 0 0 .1h-.4c.2-.2-.3-.1-.3-.2zm.6.3H26.4l.3.1c-.3 0 0 .2-.4 0l-.2-.1zm1 .3l-.2-.1c-.1-.1 0 0 0 0l-.3-.1v-.1c.1.1.5.1.5.3a.4.4 0 0 1 .1 0l-.2-.1.4.2h.1a.1.1 0 0 0 0-.1v.1h-.2.2l.2.4s-.1-.1-.2 0 .1 0 0-.2h.1l-.4-.2.1-.1c0-.1 0 0-.1 0l-.2-.1zm0 .3h.1l.1.1-.2-.1zm.6.3h.2l.2.2h-.2s0-.2-.2-.3zm.5.3V23.4v.1zm.1.3a1.6 1.6 0 0 1 .4.1v.1l-.1-.1-.3-.2zm-.2.4h.2L28 24zm.8.1h0zm-.2.5v.2l-.1-.2v0c0-.1.2.1.2 0l.2.1-.1.1c0-.2-.1-.2-.2-.2zm.8 1c0-.1.1 0 0-.1h.1a.2.2 0 0 1 0 .2.5.5 0 0 1 .1.1l-.2-.1s.1-.2 0-.2z" class="cls-2"/>
      <path d="M29.9 25.6c.1 0 .2 0 .3.4a.3.3 0 0 1-.2-.2v.1a.2.2 0 0 0-.1 0v-.3zM19 35.1l-.2-.2.2.2c.1 0 0 0 0 0zM15.4 28.7v-.1V28.7s0 .3.2.4-.1 0 0 .1h-.1l-.2-.2a4.2 4.2 0 0 0 0-.6 1.2 1.2 0 0 1 0-.5s0 .3.1 0v.4c0 .1 0-.2.1 0a.2.2 0 0 1 0 .2.7.7 0 0 1-.1.2z" class="cls-2"/>
      <path d="M15.5 27.8l-.1.2a.2.2 0 0 1 0-.3s0 .2-.1.1 0-.3 0-.2a.6.6 0 0 1 0-.4V27l.2-.3v-.2 0c0-.2 0 .1.1 0v-.2l.2-.4.2-.3c0 .2-.5.9-.3 1.2a4.4 4.4 0 0 0-.3 1v-.2.3zM18.4 35.4a1.9 1.9 0 0 1-.3-.2c0-.2-.3-.2-.4-.3h.3l.4.5zM16 25.4l.2-.3c0 .3-.1.2-.2.3zM16.6 24.5h-.1c.2-.3.4-.5.5-.4l-.2.2c0 .1 0 0-.1 0l-.1.2zM17 23.9l.1-.2c.1 0 0 0 0 0l-.1.2zM22 21.3c-.1 0 .4-.1.4 0h-.1-.3zM22 21.5H22.2c-.1 0 .1 0 0 0zM24.2 21.2a.5.5 0 0 0-.2 0H24.7h-.4zM26.7 21.7h-.1a2.2 2.2 0 0 0-.6-.2l-.1-.1a2.5 2.5 0 0 1 .8.3zM27 21.8l-.3-.2.4.2c0 .1 0 .2.2.3s0-.1.1-.2l-.2-.1c-.1-.1 0 0-.1 0H27zm.3.3c0-.1-.1-.2 0-.2v.2zM27.4 22s.2.2 0 0a1.8 1.8 0 0 1 .5.4s-.2-.1 0 0c-.2 0-.2-.1-.3-.2 0 .1 0 .2-.2 0v-.1z" class="cls-2"/>
      <path d="M28 22.3c0 .2 0 0 .3.2H28l.2.2c.1.2 0-.1 0-.1l.2.1h-.2l-.7-.4c-.2-.1.1 0 .1 0a.4.4 0 0 0 .2.2c.2 0 0-.1.1-.2zM28.3 23s-.3 0 0 0c-.2.1-.4-.3 0 0zM29.5 23.6c-.2 0 0 .1 0 .2l-.3-.4c-.1-.1-.2 0-.1 0l-.3-.3c-.2-.1 0 0-.1 0l-.2-.3a6.6 6.6 0 0 1 1 .8zM29.9 24c0 .2-.1 0-.1 0a2 2 0 0 0 .3.4l.1.3c.1 0 0 0 0 .1h.2v.2a1.6 1.6 0 0 1-.3-.4v-.2 0c0-.1-.1 0-.2 0l-.3-.4a.9.9 0 0 1 .3 0zM30.7 25.6h.1l.1.2v0a.8.8 0 0 1-.2-.1v-.3c0-.2 0 0-.1 0l-.2-.4c.2.1.3.5.4.6s0-.1 0-.1v.1c0 .1 0 0 0 0zM31 26.3v.1c0 .2.1 0 .1 0a.3.3 0 0 1 0 .4 1 1 0 0 1-.1-.5zM31.1 26.8l.2.4-.2-.4zM31.6 28.5v.1a1.1 1.1 0 0 0 0 .3v-.5.1z" class="cls-2"/>
      <path d="M13.5 17.6a.6.6 0 0 0 .2 0 .8.8 0 0 0-.4 0 .4.4 0 0 1 .2 0zM13.5 17.7a.3.3 0 0 1 .2 0c0 .1-.3 0-.2 0zM14.3 20c-.2 0 0 0 0 0zM12.2 20.1h-.1V20c.2 0 0 0 .1.1zM12.1 20.2c.1 0 .1.1-.1.1a.2.2 0 0 0 .1-.1zM13.9 20.2h-.1zM14.3 20.2s.2.2 0 .2c0 0-.1-.1 0-.2zM13.8 20.6h.2s-.1 0 0 0v.1h-.3.1zM14 20.9s.2.1 0 .1 0 0 0-.1zM12 4l.2.1h-.5-.2l-.3-.1.1.2a.3.3 0 0 1-.2 0c.2 0 0 0 0-.1a1.1 1.1 0 0 1-.3 0s.2 0 0 0h-.1l-.1.1c0 .1-.2 0-.2 0h-.2s-.1 0 0 0l-.2.1-.1-.1c-.1 0 0 .1 0 .2h.2c.1 0 0 0 0 0H10v.1H9.5c-.1 0 0 .2 0 .2h-.3c.1 0 0 0 0 0a1 1 0 0 0 0 .3h-.1c-.2 0 0 .1.1.2h-.1l.1.3h-.1c-.1 0 .2.2 0 .3.1 0 .1.1 0 .2.3 0 0 0 .2.1h-.1v.1c-.1 0 0 .1 0 .2a1 1 0 0 1 .3.1c-.3.1.2.4 0 .5h-.1.1c.1 0 0 0 0 0a.6.6 0 0 0-.2 0v.1l.2.1c0 .1-.2 0-.2 0 .2 0 .1.1.2.2h-.1l.1.2h-.1.1c-.1 0-.2.1 0 .1h-.2l.1.3v-.1c.3 0 0 .2.2.2a.3.3 0 0 0-.2 0v.6c.5 0 0 .3.2.3l-.1.1v.2h0c-.1 0 .2.4 0 .5.2 0 0 .3.3.3l-.2.1c.2.1 0 .3.2.3h-.1c.2 0-.1.2.1.3h-.1s.1 0 0 .2h.1a.2.2 0 0 0-.1 0h.1s-.2.1 0 .1c-.1 0 0 0 0 .1.2 0 0 .3 0 .3h.2a.2.2 0 1 0 0 .4c-.2.2 0 .4 0 .5l.3 1h-.2a2.1 2.1 0 0 1 .1 1h.2a.3.3 0 0 0-.2.1c.2.1.1.3.3.3-.2.2-.1.4 0 .5h-.2v.1c0 .1.1 0 .2 0-.3 0-.1 0-.1.2s.2 0 .2 0a.3.3 0 0 0-.2 0v.1c-.2 0 0 0 0 0s-.3 0 0 .2c0-.1.2 0 .2 0h-.2.1c.1 0 0 0 0 0h-.2c-.2 0 .2 0 .1.1-.2 0 0 .2.1.2h-.2c-.2 0 .3.1 0 .1.3 0 0 .3.3.4-.4 0 .1.2 0 .3a.2.2 0 0 0 0-.1v.3c-.2 0 0 .1 0 .2-.2 0 0 .2 0 .3 0 .1-.2.2 0 .3h-.1c.2 0 0 .1 0 .2l.2.2c0 .1-.4.3-.1.4-.2.1 0 .3 0 .5s0 0 .1 0c-.1 0 0 0 0 0h.1-.2c.2 0 .1.2.2.2a.2.2 0 0 0-.1 0c.3 0-.1.2.1.3 0-.1-.1-.2.1-.2l.2.2h.2a1 1 0 0 0 .2 0h-.7.2s-.2.2 0 .2h0c.2 0 .4 0 .3.1h.2V20c0-.1 0-.2.3-.2h-.2c-.2 0 0 0 0-.2s-.2 0-.2 0c.2 0 .5-.2.6 0v-.1a.4.4 0 0 1-.1 0 .2.2 0 0 0 .1-.1H12h.4l-.2-.2h.3-.3.1c.1 0 0 0 0 0h.1c.1 0 .2 0 .1-.1h-.1.2c.2 0 0 0 0-.1h-.2c-.2 0-.2 0 0 0 0-.1-.2-.2 0-.3l.1.1c.1.1-.2 0 0 0l.1.1c0 .1-.1 0-.1 0h.2c-.1 0 0 0 0 0-.2-.1 0-.2-.3-.3.4 0-.3-.2.2-.2a.3.3 0 0 0-.1-.1h-.1-.1c-.1 0 0 0 0 0h.1a1.1 1.1 0 0 0 .4 0s.3-.1 0-.2l.2-.2c.2 0 0 0 0 0h-.2c.1 0 0 0 0 0h.1c0-.1.1-.2 0-.2-.3 0 0-.3-.3-.4v.1a.4.4 0 0 0-.3 0 .3.3 0 0 0 .2 0c-.1 0 0-.1 0-.1h-.1.4l-.2-.1c-.2 0 0 0 0 0s.2 0 0 0-.1 0-.1 0h-.1c-.1 0 0-.2 0-.2H12h.2s-.2 0 0 .1h.2.1c.1 0 0 0 0-.1a.4.4 0 0 1-.2 0h.2c-.2 0 0 0 0-.2s-.2 0-.3 0 0-.1 0-.2c0 0 0 .1.1 0-.1 0 0 0 0-.1h-.2l.2-.1c.2 0 0 0 0 0l-.2-.1c0 .1 0 .2-.2 0h-.2c.1 0 .1-.2 0-.1.2 0-.1 0 0-.1s0 0 .1 0h.4c-.1 0 .1 0 0 0h-.1c-.1 0-.1 0 0-.1 0 0-.2 0 0 0h.2c.2 0 0 0 0 0h.1s-.2-.1 0 0l-.1-.1c-.1-.1 0 0 0 0h-.2-.2s-.2 0-.3-.2.2 0 .3 0c-.2 0 .1 0 0-.2s.2 0 .3 0c-.2 0 0 .2-.2.1 0 0 0 .2.1.1s.2 0 .1.1h.1.2l-.2-.2a1.2 1.2 0 0 0 .4 0H12.7v.1h.3-.4.1c.1 0 0 0 0 0v.1l.2.1a.3.3 0 0 1 0-.1c-.1 0 0 0 0-.1.1 0 0 0 0 0h.3c0-.2-.2 0-.3-.2h0c.2-.2.1-.3 0-.4 0 0 .2 0 0 0s-.3 0-.1 0h-.2l.2.1c0 .1 0 0 0 0h-.3c-.2 0 0 .1 0 .1-.4 0-.2-.2 0-.2h-.3.3V15c0-.1-.1 0-.1 0l.2-.1c.2-.1.1 0 .2 0l-.2.2a.3.3 0 0 0 .3 0c-.2 0-.1-.2 0-.3h-.2c.2-.1.1-.3 0-.4s.2 0 .3 0h-.3a.2.2 0 0 1 .2 0l-.2-.2c.2 0 0 0 .1.1s.2-.1 0-.1h.2c-.2-.1 0-.2-.1-.2h-.2-.1c.1 0 0-.2.2-.2h0c-.1 0 0 0 0 0v-.1c0-.1.2 0 .2 0v-.4c0-.1 0 0 0 0s-.4-.2-.1-.3h-.2.2a.6.6 0 0 1 0-.6h-.2.2c-.2-.1-.2-.2-.2-.3.2 0 0-.2.1-.1 0 0 0-.2-.2-.2.1 0 0-.1 0-.2H13h-.2.2c-.2 0-.2-.2-.4-.3.1 0 .1 0 0-.1h.2V11h-.2l.2-.1c-.3-.1 0-.3-.1-.5h.1a.4.4 0 0 0-.1 0c.2-.2-.6-.5-.2-.6a.3.3 0 0 0 .6.2v-.2c0-.1-.1-.2-.4-.2h.2c-.2-.3 0-.5-.2-.7h.1l-.2-.7h-.2.2-.3c.1 0 .2-.1.2 0 .2-.1 0-.3-.1-.3v-.3a.8.8 0 0 1 .2 0s-.2 0 0 0 0-.2-.1-.3c.2-.1 0-.2.2-.3s0 0 .2 0l-.1.2a.7.7 0 0 1 .1.1c.1.2 0 .3 0 .4l.2.2H13l.1.1-.1.1h-.1c-.2 0 0 0 0 0s-.3 0 0 0l.4.4h-.1.1c-.2.1.1.3-.3.4.2 0 0 0 0 0h.2-.2c.2.2 0 .2.1.4h.2l.2.1c-.3.2-.1.3-.1.6h.1-.1l.1.1c-.2 0 0 0 0 0l-.1.2c.2 0 0 .2.2.3 0 .2-.2.2 0 .4v-.1a.2.2 0 0 0 0 .3c-.3 0 .1.4 0 .5h.2c0 .1-.2.2.1.3h-.1a.5.5 0 0 0 .1.3l-.2.2c.2 0 .2-.1.2 0a.2.2 0 0 0-.1 0H14s.1 0 0 0H14l.2-.1h-.2c-.2 0 0 0 0 0h.2L14 12h-.2s.1 0 0 0h.2c-.2 0 0-.1-.1-.2h.1a.7.7 0 0 1-.1-.1h.1c.1 0 0-.3.3-.3-.1-.1 0-.1 0-.2h-.1c.3 0 0-.2.2-.3h-.2.1c-.4 0-.3 0-.5-.2l.2-.1-.1-.5c0-.1.2-.2 0-.2v-.1h-.4c.2 0 0 0 0-.1.1 0 0 0 0-.2h.4l.1.6h.2c-.3-.2.1-.5-.4-.6h.2c.2 0 0-.1-.1-.1v-.2c-.3 0 0 0-.3-.2v-.3a.6.6 0 0 0-.1 0v-.6a.6.6 0 0 1-.2 0h.2c.2 0 0-.1.1 0v-.3a1.2 1.2 0 0 1 0-.9c.1 0 0-.1 0-.2h-.2a.2.2 0 0 0 .2 0c-.1 0 0 0 0 0h-.1c.2-.2-.2-.3 0-.4h-.1.1c-.2-.4.4-.7-.1-1a.7.7 0 0 0 .2-.2s-.3-.2-.1-.3c-.3 0 .1-.2-.2-.2.2 0 0-.2.1-.2 0-.1-.3-.2 0-.3l-.3-.1h-.5.1-.6zm.8 0c.4 0 .2.1 0 .1zm-3 .6c0 .1.1.1 0 .2h.2c-.2 0-.2-.1-.3-.2zm-.3.2h-.1c-.1 0 0 0 0 0zm2.7.4l.2.1c0 .1-.1 0-.2 0a.3.3 0 0 0 .3.1v.3l-.4-.2v-.3zm-.4.6h.2a.2.2 0 0 1-.2 0zm.7.8c-.3 0-.3-.2-.3-.3.4-.1.3.2.3.3zm0 0c.2 0 .2.1.1.2s-.3 0-.2-.1zM12 7h.3c.1 0 0 .1 0 .2l-.4-.1.1-.1zm-.3.6a.6.6 0 0 1 .2 0H11.6zm-.6.7s.2 0 0 .1v-.1zm0 .2h.1v.1H11zm.4.3c-.1 0 0 0 0 .1h-.3l.2-.1c0-.1.2 0 .4 0a1 1 0 0 1-.4 0zm1.4 5.5c-.2 0 0 0 0 .1h-.3l.2-.2s.3 0 .2.1 0 0-.1 0zm-.1.2c0-.1.1 0 .2 0s-.2 0 0 0h-.3zm.1.9s0-.1 0 0 .2 0 0 0zm-.4.4h-.2.1zm-1.3.7c.2 0 0 .2.1.2-.2 0-.1-.1-.1-.2zm1.2.8s.1 0 0 0h0zm.2.1h.1c.1 0 0 0 0 0h-.2zm-1 .1c.2 0 0 .1 0 .1a.7.7 0 0 1-.2 0 1.4 1.4 0 0 0 .2 0zm.6 0h.1c.1 0 0 0 0 0v.1c0 .1-.2 0-.2 0zm.3.2h-.2-.2a2.3 2.3 0 0 0 .3 0zm0 .1s.2 0 .2.2.1-.1 0-.1c.2 0 0 .1.1.1a.4.4 0 0 1-.2 0h.1l-.3-.1c.2 0-.3 0 0-.1zm-.2.2s.1 0 0 .1h.2c-.1 0 0 0 0 .1H12zm.4.4a.3.3 0 0 1-.2 0l.1-.2h.2c-.2 0 .1.2-.2.2s.2 0 .2 0 0 .1 0 .1h-.3l-.3.2h-.1.2v-.2a.3.3 0 0 0 .2 0v-.1zm-.5 0h.1v.2c0 .2-.2 0-.2-.1zm.2.3h.2c0 .1-.1.2-.3.2s0 0 0-.2zm0 .2h-.3.4s-.1 0 0 0h-.2zm-.2.1a1 1 0 0 1 .3.2h-.1-.1c-.1 0 0-.1 0-.1h-.1zm-.9.1a.5.5 0 0 1 .2 0h-.3zm1 .3H12.2zm-1 0H11c-.2 0 0 0 0 0h.4v.1c0 .1 0 0-.2 0h-.1zm.4.6h-.2.1z" class="cls-1"/>
      <path d="M12.2 19.9c.2 0 .3 0 .2.2s0 0-.1 0h-.2a.2.2 0 0 0-.1-.1l.2-.1zM13 10v.1c0 .1-.1 0 0-.1zM13.8 12.7h.1l-.1-.1-.3-.1h.1.4c0 .1.2.3 0 .4s-.1-.1-.2 0v-.1h-.3a.8.8 0 0 1 .3-.1zM13.8 13h.1s.1 0 0 0h.3s-.1 0 0 0H14c.3 0-.1.2.2.2 0 .1-.1.2-.3.2h.5-.3s0 .1 0 0 .2.3-.1.3.2-.3-.3-.4 0 0 .1 0V13c0-.2 0 0 .2 0h-.2zM14 10.1l.2.1c-.2 0 0 .1 0 .2l-.2-.1c.1 0 0-.1 0-.2zM14.2 13.8l-.1.1.1-.1zM14 14.2h.2c-.2 0-.1.2-.4.2 0 0 .2 0 0-.1h.2s.2-.1 0-.1zM14.1 14.4H14a.2.2 0 0 1 .1 0zM13.2 16.4c.1 0 .2.2 0 .2l-.1-.1h.1zM12.9 16.4s0 .1-.1.1zM13.2 17.2l.1-.1c0-.1 0 0 0 0-.1 0 0 0 0 .1a.2.2 0 0 0 .1 0 .2.2 0 0 1-.2 0zM13.6 18a.6.6 0 0 1-.2 0c.1 0 0 0 0-.2s.2 0 .2 0v.3z" class="cls-1"/>
      <path d="M13.6 18.2h.2l-.1-.2c-.1 0-.2.1-.1.2a.3.3 0 0 0-.2 0 1.3 1.3 0 0 0 .5 0h-.2c.1 0 0 0 0 0zm-.2.1a.4.4 0 0 1 .3 0h-.3zM13.6 18.4v.2s0-.1 0 0v-.1h-.1-.2a.2.2 0 0 0 .3-.1z" class="cls-1"/>
      <path d="M13.7 18.6c-.2 0 .1 0 0 0h-.1c-.1 0 0 0 0 .1h.2c.2 0-.2 0-.1.1a1.1 1.1 0 0 0-.2 0s-.2-.2-.1-.3h.2s-.2 0-.1.1 0 0 .2 0zM13 18.8s-.2-.1-.2 0c-.1 0 .3-.2.3 0zM13.8 19.3h-.1a1.1 1.1 0 0 1-.2 0l.1-.2c0-.2-.1 0-.1 0V19c0-.1 0 0 0 0s.1 0 0-.1a3.9 3.9 0 0 1 .3.4z" class="cls-1"/>
      <path d="M13.8 19.4h-.2a.4.4 0 0 0 .2.2s-.2 0 0 .1h0a.3.3 0 0 1-.2 0v-.1c0-.1.1 0 .2 0h-.2c-.2 0 0 0 0-.1v-.2a1.1 1.1 0 0 1 .2.1zM13.7 20h.2l-.2.1c0 .1 0 0 0 0v-.2c0-.2 0 0 0 0v-.1.2c0 .1 0 0 0 0s.1 0 0 0zM13.8 20.3c.1 0 0 0 0 0h.2l-.3.2c-.2 0 0-.1.1-.2zM13.7 20.5c.3 0-.1 0 0 .1 0 0-.1 0 0-.1zM14 21s0 .1 0 0v.2c-.2 0 0-.1 0-.2z" class="cls-1"/>
      <path d="M22 24.8zM21.7 24.8zM21.4 25.2V25zM21 25.7zM20.3 26.3zM20.1 26.8zM19.8 27.2v0zM19.3 27.8v-.2.1zM19.5 28.1zM19.2 28.3a.2.2 0 0 0 0-.1s0 .1 0 0zM19 28.5v.1c0 .1 0 0 0 0zM19.4 28.8zM19 28.8v.1a.3.3 0 0 1 0-.1zM19 29zM19.5 29.4v.1c0 .1 0 0 0 0zM19.4 29.5zM19 29.5zM19.7 29.6v.1zM19.7 29.8zM19.8 29.8v.4l-.1-.1c-.1 0 0-.1 0-.1v-.2zM19.3 29.8zM19.7 29.8zM19.9 30zM19 30.2zM19.8 30.3zM20 30.3zM19.4 30.4zM19.5 30.5zM19.7 30.7zM20 30.7v.1zM20 30.9z" class="cls-2"/>
      <path d="M22.9 24.6c0 .1 0 0 0 0l-.3.2c0-.2-.1 0-.1 0H22.2a.2.2 0 0 0 0 .2.8.8 0 0 0-.2 0l-.1.2H21.6l-.2.2h.2c.1 0 0 0 0 0h-.1v.1l-.2.3c-.2 0 0 0 0 0v.2H21l-.3.3v.1c0 .1 0 0 0 0h-.1c-.1 0 0 0 0 0l-.2.3-.5.3v.1c0 .1 0 0 0 0v.1c0 .1 0 0 0 0a1.1 1.1 0 0 0-.1.5v.2l-.1.2c-.1 0 0 0 0 0a.5.5 0 0 0 0 .4c-.1 0 0 .2-.2.3a.2.2 0 0 0 0 .3v-.2.5a1.8 1.8 0 0 0 0-.5l.2-.1c0-.1 0 0 0 0v.7a.3.3 0 0 0 0 .2v-.1-.1l.1.1c.1.1 0 0 0 0v.4a.5.5 0 0 1 0 .1.3.3 0 0 0 0 .2V30a1.3 1.3 0 0 0 0-.4v-.1-.2-.2-.1-.1a1.1 1.1 0 0 1 .2-.2v-.1-.2-.1c0-.1 0-.5.2-.6s.1-.2.2-.4l.2-.3c0-.1 0 0 0 0l.1-.2.3-.2.5-.4.3-.2.1-.1.1-.2c0-.2 0 0 .1 0h.2a.5.5 0 0 0 .2-.2l.3-.2c.1 0 0-.1 0-.1a.3.3 0 0 1 0-.1h.1V25c0-.1 0 0 0 0l-.1-.4zM21 26.1zM20 27.5zm0 .3h-.1zm0 .3s-.1 0 0 0h-.1zm0 .8h-.1c-.1 0 0 0 0 0zm-.2.3v.1zM22 24.7zM21.9 24.8l-.2.2-.3.2a.1.1 0 0 1 0 .1l-.1.1c-.1.1 0 0 0 0l-.2.2-.2.2-.2.1-.2.3v-.1c0-.1 0 0 0 0v-.2c0-.2 0 0 0 0h.1c.1 0 0 0 0 0v-.1c0-.1 0 0 0 0a.3.3 0 0 1-.1 0l-.1.1c-.1 0 0 0 0 .1h-.1l-.1.2.2-.3.3-.3c.1 0 0 0 0 0l.2-.1c.2-.1 0-.2 0-.1a.7.7 0 0 1 .2-.2c0 .1 0 0 0 0h.1c.1 0 0 0 0 0l.2-.1c.1 0 0 0 0-.1a.1.1 0 0 1-.1.1l-.1.2c0 .1 0 0-.1 0l-.1.1-.3.3c-.1.1 0 0 0 0a.3.3 0 0 0 .2 0v-.1c0-.1 0 0 0 0h.2v-.1l.2-.2.1-.1.4-.3c0-.1 0 0 0 0zM19.5 26.9c.1 0 0 0 0 0a2.4 2.4 0 0 0-.2.6l-.1.3a.9.9 0 0 1 .3-.5v.2s0 .2-.1.1a.2.2 0 0 1-.2.1v.1c0 .1 0 0 0 0v.1h.1c.1 0 0 0 0 .1h.1v-.1-.2c0-.1 0 0 0 0v-.2c0-.2.1 0 .1 0v-.2a2.6 2.6 0 0 1 .1-.2l.1-.2c.1 0 0 0 0 0v-.1c0-.1 0 0 0 0h.2l.1-.3c.1 0 0 0 0 0v-.2h.1c.1 0 .1-.1 0-.2a2.1 2.1 0 0 1-.1.2h-.1c-.1 0 0 .1 0 .1l-.2.1h-.2v.1l.1-.3h.1l.1-.3h.2v-.1l-.1.1c0 .1 0 0 0 0l-.2.2c.1 0 0 0 0 0v.3h-.2a.5.5 0 0 1 0 .4zm.5-.2zM20.4 26.3h-.1c-.1 0 0 0 0 0zM19.5 27.5zM19.7 27.6zM19.6 27.8v-.1c0-.1 0 .1 0 0zM19.6 28zM19.5 28.3zM19.5 28.4zM19.1 28.3a.8.8 0 0 1 0 .2v-.2zM19 28.5v.1z" class="cls-2"/>
      <path d="M19.7 29.3a.1.1 0 0 1 0-.1c0-.1 0 0 0 0zM19.5 29.9zM19.4 29.9v0c0-.1 0 0 0 0zM20 30.5zM20 30.5zM19.4 30.6zM19.4 31.3zM20.1 31.2zM19.3 31.8zM19.4 29.6V29.7c0-.1 0 0 0 0z" class="cls-2"/>
      <text class="text-p" font-size="22.3" transform="translate(57.9 25.1)">
        <tspan letter-spacing="0em">A</tspan><tspan x="14.1" y="0" class="cls-5">cti</tspan><tspan x="42.2" y="0" class="cls-6">v</tspan><tspan x="54.4" y="0">e </tspan><tspan x="0" y="21.3" letter-spacing="-.1em">T</tspan><tspan x="10" y="21.3" class="cls-5">omor</tspan><tspan x="66.7" y="21.3" letter-spacing="0em">r</tspan><tspan x="78.4" y="21.3" class="cls-6">o</tspan><tspan x="91" y="21.3">w</tspan>
      </text>
    </g>
  </g>
</svg>
