<svg xmlns="http://www.w3.org/2000/svg" width="236" height="190">
  <defs>
    <style>
      .cls-1,.cls-2{fill:#00d5a4}.cls-2,.cls-6,.cls-8{fill-rule:evenodd}.cls-6{fill:#ffbec0}.cls-8{fill:#fff}.cls-9{fill:#160c03}.cls-12{opacity:.2}.cls-13{fill:#999}
    </style>
    <mask id="mask" width="161" height="157" x="74" y="34" maskUnits="userSpaceOnUse">
      <path d="M103 58h78v78h-78z" class="cls-1"/>
      <path d="M187 66v9a40 40 0 0 0 0 4c0 3 0 0 0 0v12c0 1-1 5 1 7a16 16 0 0 1 0 2l-1 36v7l-6-1h-8l-70-1h-5v-20-33l1-22v-2c1 1 1-3 1-5 1-4 1-4 2 2a45 45 0 0 0 1 9c2 4 2 11 3 17l2 26 1 23-6-6a848 848 0 0 1 78 1l-5 5v-15l1-20a9 9 0 0 1 0-4l1 4a10 10 0 0 0 0 1 64 64 0 0 0 1-9V83a14 14 0 0 1 0-3 8 8 0 0 0 0-4v-7a24 24 0 0 1-1-6v-3l-1-2 4 4h-2l-6-1c-2 0 1 0 0-1l-21 1h-16a11 11 0 0 1-3 0h-7a11 11 0 0 1-4 0c-2 0-2-1 0-1a12 12 0 0 0 1 0h-13a20 20 0 0 1-2 0 14 14 0 0 1-3 0c-1 0 0 0 0 0a6 6 0 0 1 2-1l1-1s-4 0-2-1l9-1h1l-3 1h1a30 30 0 0 0 7 0c1 0 5 0 2-1h1l8-1 49-3h6v14z" class="cls-2"/>
      <path d="M177 59a41 41 0 0 1 0 6l1 8a5 5 0 0 1 0 3v18h-1a17 17 0 0 1 0-3V60v-1zm-30 4l-11 1-3-1h2a74 74 0 0 1 12 0zm0-1a56 56 0 0 1 11 0 54 54 0 0 1-11 0zM147 63h3a66 66 0 0 1 8 0h-1a63 63 0 0 1-10 0zm32 10v-2a5 5 0 0 1 0 2zm-37-11a7 7 0 0 1 1 0 5 5 0 0 1-2 0 2 2 0 0 1-1 0h2zm26 1h1-1zm-10 0h1a5 5 0 0 1-2 0z" class="cls-2"/>
    </mask>
  </defs>
  <g>
    <g>
      <path fill="#ffd4d5" d="M103 58h78v78h-78z"/>
      <path fill="#ffd4d5" fill-rule="evenodd" d="M106 83v4l1-5v-4-11l-1-4v-1 2l-1-4a6 6 0 0 0 0 4 51 51 0 0 1 0 8l-1 19v5a25 25 0 0 1-1-7 6 6 0 0 0 0-2 9 9 0 0 1 0-4 15 15 0 0 0 1-6 14 14 0 0 1 0-4v-5a3 3 0 0 0 0-2h-1v1l-2 16-1 24-1 14v15l-1 4 5 1h25l22 1h37v-14l-1-15V83 53h-8a1859 1859 0 0 0-52 1l-23 1-2 1c-1 0 2 2 5 2l6-1 4 1 4 1 10-1h8a11 11 0 0 1 3 1 12 12 0 0 0 5 0l18-1h17v32 19l-1 16v5a44 44 0 0 1 0 6h1l-2-1h-76l2 1v-8-9l-1-1 1-6v-3l1-9V90v-3a4 4 0 0 1 0-4zm12 54l39 1-3 1h-4a7 7 0 0 1-2 0 18 18 0 0 0-6 0 26 26 0 0 1-3 0l-11-1h-13l3-1zm-12-62a7 7 0 0 1 0-4zm-1 26a7 7 0 0 1-2-2l1-1zm7 36v1c0 1 0 0 0 0a2 2 0 0 1-1 0zm54 1a2 2 0 0 1-1 1 1 1 0 0 1 0-1zm-64-5v-1h1l-1 1zm2 5l-1-1h1a2 2 0 0 1 0 1z"/>
      <g mask="url(#mask)">
        <path d="M122 188a3 3 0 0 1 1-1 4 4 0 0 1 0-1h1l-1 2zm-7-96a7 7 0 0 0 1 0v2h2v1l-1 1h1l1-1-1 1h1c-1 2-2 1-3 1a6 6 0 0 0 0 1 3 3 0 0 1-2 2h-1 2l-1-2c0-1 3-2 3-4l-2 2 1-1-2 1v1a5 5 0 0 0-1 0 10 10 0 0 0-1 0 5 5 0 0 1 1-1 4 4 0 0 0 1-2 7 7 0 0 1 1-1l-2-1-2 1v-2h1l-3-2a3 3 0 0 1 2-2 12 12 0 0 1 1 0l3-1h1a1 1 0 0 0-1-1l-3 1 1-1a4 4 0 0 0 3-2 9 9 0 0 1 3-2v1h-1l1 1a9 9 0 0 0 1-2 3 3 0 0 0-3 1h-2l1-1h-1-1l-1 1a4 4 0 0 1-3 1 2 2 0 0 0-1 0 2 2 0 0 0 1 0h1a1 1 0 0 1 1 0 2 2 0 0 0 2 0v1h-2l-2 1a7 7 0 0 1-2 2 3 3 0 0 1-2 0 6 6 0 0 1 3-1v-1h-2v-1l-1 1a17 17 0 0 0-2 0 2 2 0 0 0-1 3l3-2a3 3 0 0 1 0 1 6 6 0 0 1-1 0 4 4 0 0 0-3 3h2s-1 0 0 0h3a6 6 0 0 1-4 3 2 2 0 0 1 0-1 6 6 0 0 1 1-1 4 4 0 0 0-3 3h-2l3-4h-1v-1l-1 1 1-2h-1a18 18 0 0 1-3 1l2-2-1 1h-2l1-1-1 1v-1a5 5 0 0 0-1 0 14 14 0 0 0-1 2l-1 1-2 1h4l-1 2-3 1a2 2 0 0 0-2 1l2 1 1-1 1 1-3 1a2 2 0 0 0 0 1 5 5 0 0 1 1 0h4a8 8 0 0 1 1 1l-2 1-1-1-2 1h2a4 4 0 0 1-2 2h-2v-1a8 8 0 0 1 1-1v-1l-2 2-1-2h1l1-2a1 1 0 0 0-1 0l-1-1-2 2h-1a2 2 0 0 1-2 1h-1v-3l2-1h1a7 7 0 0 1 1-1 5 5 0 0 1 1 0l1-1v2l1-1a1 1 0 0 0 0 1 15 15 0 0 0 3-2v-1h-1l2-1h-2v-2a1 1 0 0 0 0-1l2-1a4 4 0 0 0-1 1h1a7 7 0 0 0 1-2s1 0 0 0h-1s0-1 0 0a1 1 0 0 0-1 0 12 12 0 0 1-2 2l-2-1-1-1a17 17 0 0 0-1 0 12 12 0 0 1 1 0 4 4 0 0 0 3-3 7 7 0 0 0-3 2 2 2 0 0 1-1 1 1 1 0 0 1-1-1 2 2 0 0 1 1-1v-1l-2 2-1 2-2 1a8 8 0 0 0-1 0l-2 1h-1l1 1a5 5 0 0 1-3 1l1 1a4 4 0 0 1 2-1 1 1 0 0 0 1-1l1-1h1a7 7 0 0 1 1-1h3l-1 1-1 1a7 7 0 0 0-1 0 2 2 0 0 1-1 1 1 1 0 0 0-1 1 10 10 0 0 1 2-1 5 5 0 0 1 1 0c2-1 1-1 1-2l4-1v1l-1 1v1l2-1h1a3 3 0 0 1-1 1h-2l-2 1h2a5 5 0 0 1-1 1l-3 1-1 1a4 4 0 0 0-1 1 10 10 0 0 0 0 1v3h2v2l1-2h1a16 16 0 0 0-1 1 4 4 0 0 1-3 2v1l2 1h1a4 4 0 0 1 2-2h3v2a5 5 0 0 0 1 0l-1 2 3-1a2 2 0 0 0 0 2 2 2 0 0 0 1-1h-1l2-1a8 8 0 0 0 0 1v1l-1 2h2l-1 1h3l1 1 2 1 2-1a7 7 0 0 0 0-2l-1 2-1-1 1-1v-1a3 3 0 0 0 3-1c-1 1 0 2 1 2l-2 1v2l3-2v-1h3v1l2-1v1l1-1a7 7 0 0 0 0-1h-1v1c-1-1-1-1 1-3l2-1-1 2h2l3-2h1a9 9 0 0 1-1 0v-2h-1v-1a3 3 0 0 0-2 2h1a7 7 0 0 1-1 1h-3l-2-1-1-1-2 1v-1l-2 1 1-2a14 14 0 0 0 1 0 11 11 0 0 0 2-1l-1 2 3-1h1c2-1 3-1 3 1l1-1a14 14 0 0 0 0-1l1-1 1 1-1 1h1l1-1a1 1 0 0 0-1-1l2-2a9 9 0 0 0 2-1h3a6 6 0 0 1 0 1l-1 1 2-2 2-2h-2l1-1-1-1a12 12 0 0 1 1-3l-1-3-2 2a15 15 0 0 0 2-3 6 6 0 0 0 0-2l-1 3a1 1 0 0 1-1 0 3 3 0 0 1-2 1l-2 1-1-1h-2l2-1 1-1-3 1 1-2-3 1a5 5 0 0 1-1 1 2 2 0 0 0-2 1l4-2-1 2h1v1a6 6 0 0 0-1 1l-1 1a2 2 0 0 1 2 0zm-15 4a4 4 0 0 1 1-1h-1l-2 1 2-1h2-1l-1 1zm-3 5l1 1a7 7 0 0 1-5 3l1-1a12 12 0 0 0 1 0 2 2 0 0 0 1-1 2 2 0 0 0-1 0 6 6 0 0 1-3 1l3-3a4 4 0 0 1 3-2l-1 1 1 1 1-1-1 1zm27-12a4 4 0 0 1-1 4l-2 1 1-1-2-1 1-1-2 1a5 5 0 0 1-1 0l1-2a3 3 0 0 1 2 0 10 10 0 0 1 2 1zm-18 11l2-2-3 1 1-1 1-1a2 2 0 0 1 1 0h1a5 5 0 0 0 0 1h2a6 6 0 0 1-4 3c1-2 1-2-1-1zm-9 9h-2l3-2a1 1 0 0 1 1-1l1 1v1a3 3 0 0 0-2 2l-1-1zm4-9l-2-1 1-1h1l1-1 1 2-2 2v-1zm-4 4v1h2l-3 2v-1l-1 1h-1l1-1 1-1zm4-1a8 8 0 0 1 3-1v1l-3 1zm12-8a4 4 0 0 1-1 0 3 3 0 0 1-1 0l2-2v2zm-15-5l-1 2h-1a11 11 0 0 1 2-3h1a8 8 0 0 1-1 1zm6 15l1 1 2-1a4 4 0 0 1-3 2zm1-8h1a6 6 0 0 1 0 1l-1-1zm4-10a3 3 0 0 1 1 0 3 3 0 0 1-1 0 1 1 0 0 1-1 1 10 10 0 0 1 1-1zm-2 7a8 8 0 0 1 2 0 1 1 0 0 1-1 1 2 2 0 0 1-1 0v-1zm-10 2v1l-1-1h1zm22 1l-1 1 1-1zm-23-3a2 2 0 0 1-2 1 2 2 0 0 1 2-1zm-11 8l-1 1 1-1zm2-4l-1 2 1-2zm18 10a2 2 0 0 1 2-2zm7-7l-1 1zm-3-6l-1 1 1-1zm-18 7l-1 1zm-7-14h2zm15 10v1l-1-1zm-2 0a2 2 0 0 1 1-1v1h-1zm20 1l-1 1zm-8 9l-1 1v-1zm-9-4l-1 1zm7-12h1zm14 3v1zm-21 8a1 1 0 0 1-1 0h1zm13-5a2 2 0 0 1-1 0 2 2 0 0 1 0 1zm-6-9h-1zm-10 15v-1zm9 5v-1h1zm-9-15a1 1 0 0 1 1 0 4 4 0 0 1-1 0zm7-6zm5 4l1-1v1zm61 14v1a1 1 0 0 1-1 1 5 5 0 0 0-2 0l-2 1a3 3 0 0 0 0 1l1-1 2 1 1-1-1 3v1h-1-1l-2-1-2 1 1-2a6 6 0 0 0 1-2 7 7 0 0 1 1-1h-1l-1-1-1 1c1 1 1 1-1 2a3 3 0 0 0-2 2l-1-1h1v-2l-2 3h-2 1-3l-2 1v2a6 6 0 0 0 2-1 2 2 0 0 0 1 0h1a8 8 0 0 1 1-1l3-1a2 2 0 0 1 1 1v1h1v2l-1 1h1l-2 1h-1a7 7 0 0 0 0-1v-1-1l1-1h-4l-1 3h3l-1 2-1 1 2-1-1 2a22 22 0 0 1 3-2l3-1a1 1 0 0 0 0-1v-1l1-1h4a1 1 0 0 0 1 1l-2 3h2v-1a9 9 0 0 0 0-1l1-1 1 1h2l-1 1a1 1 0 0 0-2 0 5 5 0 0 1-3 2s0-1 0 0l-1-1-2-1 2-2-3 1v2l1 2-2 1h3l-2 2v1h1a2 2 0 0 1 1-2h2l-2 2h3-1v1h1v1h1a3 3 0 0 1-2 1l-1 1v1a12 12 0 0 1 1-1 2 2 0 0 1 1-1v1a4 4 0 0 1 0 1 2 2 0 0 1 2-1 4 4 0 0 0 1 0h2v1a1 1 0 0 1-1 0 3 3 0 0 0-3 1 2 2 0 0 1-1 1l-2 2 2-1-1 2 1-1 3-1a3 3 0 0 0-1 0h-1l2-1 1 1 1-1v1l-1 1h1a6 6 0 0 1-1 2l-1-1a15 15 0 0 1-2 0l-1 1a4 4 0 0 0 1 1l1-1a20 20 0 0 1-2 3v3a1 1 0 0 0 0-1l1-2 1-1 1 1 2-2v3l3-3c0 1 0 2 1 1v-1l1-1h-2l1-1 3-1v1l2-1c-2 1-1 2-1 3 2-2 3-2 3 0l-2 1v2l-1 1 1-1a4 4 0 0 1 3-2v-2l1-1 1-1h-3l1-2a4 4 0 0 1 1-1 2 2 0 0 1 1 0v-1h1a17 17 0 0 1 0 2 2 2 0 0 0 1-1h1v1h1l1-1 1-1-2 1 1-3a2 2 0 0 1-2 1l-1 1-1-2 1-1 1 1 2-1v-2h-1a21 21 0 0 0 2-2 18 18 0 0 1 2-2l-1-1-1 1v1l-3 3a9 9 0 0 0-4 2 4 4 0 0 1 0-1 3 3 0 0 1 1-1c2 0 2-1 2-2h-1l-1 1a4 4 0 0 1 0-1 1 1 0 0 1 1-1l2-1h1a4 4 0 0 0 2-1l-1-1a14 14 0 0 0-1 1v-1a2 2 0 0 1 1-2l-1 1a2 2 0 0 1-2 1v-1-1c0-1 0 0 0 0l-2 1-1-2-4 1v-1h3l-1-1a18 18 0 0 1 3-1 3 3 0 0 0 1-2 3 3 0 0 1 1-1l2-2a3 3 0 0 1-3 2v-2h0l2-1v-1a5 5 0 0 0-2 1h-1v-1l-1 1 1 1-2 1v-1l-2 1 1-1-1 1 1-1-2 1v-2a8 8 0 0 1 0-1h-1l-1 1v1l1 2a4 4 0 0 1-3 2l-1 1v2a2 2 0 0 1-1-2 13 13 0 0 1 2-1 6 6 0 0 0 2-2v-1a2 2 0 0 0-1 0v1a10 10 0 0 1-2 1h-1l1-2-3 1 2-2h-2l1-2-3 1h1a9 9 0 0 1-1 3v1l-1 1-1-1a12 12 0 0 1 1-1 4 4 0 0 1 0-3h1l3-2 2-2-1-1a3 3 0 0 1 3 0l1-2h-2l-1 1-2 2v1h-5a11 11 0 0 1 2-3l-4 1h-1v1l-1 2h1l-1 2 5-2zm10 7v-1-1h1l-1 1zm-7 20v2l-1 1-1 1 2-2zm10-11s2 0 1 1l1-1v1l-3 1-1-1v-2-1a6 6 0 0 1 1-1h1v1l1 1a22 22 0 0 0 3-3l-2 2-1 1a3 3 0 0 0-1 1zm-8 10l2-1v1a1 1 0 0 0 1 0 2 2 0 0 0 0-1c1 0 0 0 0 0s-1 0 0 0a2 2 0 0 1 0-1 15 15 0 0 1 2-1c0 2-2 3-3 5l-1-1v-1l-2 2v-2h1zm-4-7l1-1h-3l2-1h-1l1-1s0 1 0 0l1 1a6 6 0 0 1 1 1zm-3-3v-2h2a10 10 0 0 1-3 3zm16 4l-1 2s-1 0 0 0a1 1 0 0 0 0-1v-1zm2-15a1 1 0 0 1 0 1 2 2 0 0 1-1 1 6 6 0 0 1-1-1 6 6 0 0 1 2-1v1zm-18-6l-1-1h2zm5 20a1 1 0 0 1 0-1 1 1 0 0 1 1 0 2 2 0 0 1 1 0l-1 1a3 3 0 0 1-1 0zm1-7a3 3 0 0 1 1 0h1a2 2 0 0 1-1 1 5 5 0 0 1-2 1l1-2zm-4-5h1l-2 1 1-1zm11 18l-2 2 1-2zm-12-5v1-1zm4 3l2-1-2 1zm3-6v-2 2zm4-2l-1 1 1-1zm8-1l-1 1zm-5 11v-1a2 2 0 0 1 1 0v1a5 5 0 0 1-1 0zm-2 2l1-2zm-18-19v-1 1zm13 16a3 3 0 0 1-1 0 5 5 0 0 1 1 0zm-1-4v-1l1 1h-1zm5-11l1-1-1 1zm-12 8h1l-1 1zm13-9a1 1 0 0 1 1 0h-1zm-12 13h1zm17-7h-1zm-6 8a1 1 0 0 1-1 0h1v-1 1zm-7-12v1zm5 7a2 2 0 0 1-1 0 3 3 0 0 1 1 0zm0 2h1zm-7-18zm12 28zm-4-21a2 2 0 0 1 1 0zm5-2v-1 1zm-10 8v1zm1 1zm1 3h-1l1-1zm-31-52l-1 1h-1l-1 1-2 1h-1l3-2v-1c-2 0-2 1-3 2h-1v2c-2-1-2 0-3 1l-1-1-1 1c-1 1 0 1 1 2l-2 1h2l-1 1 2-1v1a3 3 0 0 0 2-1 2 2 0 0 1 1-1 5 5 0 0 1 1 1l-1 3-2 1h1a8 8 0 0 1-2 3l-1-1a5 5 0 0 0-2 2h-3v1h3v1l-1 1h1l1-2v-1a5 5 0 0 0 2-1 7 7 0 0 1 2 0l-1-1 3-1 1 1 2-1 1 1-4 2 1-1h-1l-1 2v1l2-1 3-1 2-1v-1l-1-1h4l-2 2-1 1-1 1a10 10 0 0 0 1-1l2-1v-1l1-1 1 1 1-1v1a4 4 0 0 1 1 0 2 2 0 0 0 2-1l1-2v-1l2 1 2-1-2-1a5 5 0 0 0 1-1l1-1-1-2h-1l1-1h-2l1-1 1-1a3 3 0 0 0 0-1h-1a3 3 0 0 1 0 1h-1v1l-2 1 1-1-1-1 2-1v-2a3 3 0 0 0-1 1 2 2 0 0 1-2 1c1 0 2-1 1-2l2-1a11 11 0 0 0-2 1 18 18 0 0 0-2 1h-1a7 7 0 0 0-1 1l1-1-2-1a9 9 0 0 1-3 0zm2 11a12 12 0 0 0-2 1l-1-1a2 2 0 0 1 2-1h3v1a4 4 0 0 0-2 0zm-3-5v1l-2 1a4 4 0 0 1-1 1l-2 1 1-2a3 3 0 0 0 1-1 4 4 0 0 1 1-1l1 1zm-4 4a16 16 0 0 0-1 1 14 14 0 0 0-1 2 1 1 0 0 1-1 0l3-3zm-3-4a2 2 0 0 1-1 1l-1-1h2zm5 6l-1-1a2 2 0 0 1 2 0zm2-11h2c1 1 0 0-1 1zm5 10l2-1a3 3 0 0 1-2 1zm-4-7l1-2-1 2zm-1 6v-1h1v1h-1zm-3-6a3 3 0 0 1 1 0 3 3 0 0 1-1 0zm4 1a2 2 0 0 1 1 0h-1zm4 7l1-1zm-11-6a1 1 0 0 1-1 0h1zm1 7a1 1 0 0 1 0-1 1 1 0 0 1 0 1zm5-5h-1zm31 13l2-2a4 4 0 0 0-2 0l-3 2a6 6 0 0 0-1-1v-1l1-1h-1a3 3 0 0 0-3 1 2 2 0 0 1-1 0l-1 1v-1-1l-4 2 2-2v-2l-1 1h-1 1a6 6 0 0 0-1 0h-1a1 1 0 0 1 0-1 7 7 0 0 1 1 0l1-1-3 1-1 1 1 1 1 1-2 2v-2a6 6 0 0 0-2 1 3 3 0 0 1-1 2l-1-1a2 2 0 0 1 2-1 1 1 0 0 0 1-1l1-2-2-1-1 1v-2 1l2-1 2-1v1c2-1 0-1 1-2l-3 1 1-2-8 2v2a7 7 0 0 1 4-1 11 11 0 0 1-4 1l-4 1a2 2 0 0 0-1 1l1 1 3-1-1 2 2-1 2-2a1 1 0 0 1 1-1 10 10 0 0 1 1 0 8 8 0 0 1-1 1 2 2 0 0 1 0 1l-3 1h1l3 1-1 1-1 1h2a10 10 0 0 0 1 1v-1l2-1-1 1a2 2 0 0 1-1 1 2 2 0 0 0-1 1l-2 1-1 1h-1l-1 2a6 6 0 0 0 1 0 15 15 0 0 0 1-1h1v-1l1-1v1l-1 1a6 6 0 0 0-2 3h1l1-1 2-2v1a5 5 0 0 0 2-1l-1 2 2-1-2 2h2v2l1 1 4-1 1-1a2 2 0 0 1 0-1 9 9 0 0 0 3-2h-2c2-1 4-2 4 0l-1 1h1l1-2 1-2v-1a7 7 0 0 1 0-1h-1l-1 2-3 2v-1a1 1 0 0 1 1-2h1l3-2 1-1v3a2 2 0 0 0 1 0l1-1-1-2h2zm-13 2c0 1 0 2 2 2a2 2 0 0 0 0 1l-1 1v-1h-1v1a5 5 0 0 1-2 1l1-1h-1l1-2h-2l-1 2v-1c1-2 1-2 3-1zm1 4v2h-1 2l-2 2a2 2 0 0 1-2 1v-2l-1-1 4-2zm8-6l-1 1c-2 2-4 2-4 1a15 15 0 0 1 1-2 3 3 0 0 1 1 0h1a2 2 0 0 0-1 1h1l2-1zm-14 3v1l-2 1zm2-2h1v1l-1-1zm5 5l1-1-1 1zm6-8a2 2 0 0 1-1 1 1 1 0 0 1 1-1zm-14-1l1 1zm0-3v-1h1zm3 9h-1 1zm43 58l2-2-1-1a4 4 0 0 1 1-1 5 5 0 0 1 1-1l1 1-1 1 3-1h-1a4 4 0 0 1 2-2l1 1-1 1h-1l1 1a10 10 0 0 0 1-1 5 5 0 0 1 1-1 13 13 0 0 0 2-2v-1l2-1v-1-1a10 10 0 0 1 2-2 11 11 0 0 0 3-4l-1-1-1 2-2 1 1 1-2 2v-1h-3a4 4 0 0 1 2-2 2 2 0 0 0 1 0 6 6 0 0 1 2-2l1-1a2 2 0 0 0 2-1 9 9 0 0 1 0-2l2 1 2-2-1-1 3-3-1 1v-1a5 5 0 0 0-2 1l-2 1v-1l-1 3v-1l-3 2a1 1 0 0 1-1 1l1-2h-3l-1-1a1 1 0 0 0 0-1h-1l-1 2a1 1 0 0 1-1 1l-2 1v1l2-1 2-2v2h-1l-1 1-2 2 2-1-1 2-1-1v1a10 10 0 0 0 2 0h1v3a4 4 0 0 0-3 2h2l-2 2c-1-1-3 0-4 1l-1 1-2 1a2 2 0 0 0 0 1 3 3 0 0 0 1 0l1-1h1a7 7 0 0 0 2 0l-2 2a2 2 0 0 1-1 0 3 3 0 0 1-1 0v-1l-2 1a4 4 0 0 0 0-1c-2 2 0 2-1 3a2 2 0 0 0-1 2h2a2 2 0 0 0 1-1l1-1v2zm10-16v-1l-1-1v-1l1-1a5 5 0 0 0 0 1v1l2 1 1-1-2 2a4 4 0 0 1-1 0zm-2 6a1 1 0 0 1 1-1 4 4 0 0 0 1 0l1 1a4 4 0 0 1-2 1zm9-10h1l-4 2a5 5 0 0 1 3-2zm-19 18l1 1-1-1zm15-18l-2 1zm-3 11v1-1zm-10 5a1 1 0 0 1 0 1h-1a2 2 0 0 1 0-1h1zm12-9v1zm1-6a1 1 0 0 1-1 0 2 2 0 0 1 1 0zm4-3v1h-1a1 1 0 0 1 0-1zm-75-79h1c1-2 0-2-1-2l-1 1h1l-1 2a2 2 0 0 1-1 0 3 3 0 0 1 1-2v-1l-2 2-1 2-1 1v-2l-1 1-1-1 2-2-2 1v-1l-2 1h-1a3 3 0 0 1-2 1 9 9 0 0 0-3 1 8 8 0 0 0-4 3 2 2 0 0 1-1 1l-1-1-1 2h1l-1 1 2 1-1 1h4l1 1a1 1 0 0 1 1 0l1 1 1 1-1 1 1 1 2-1-1 2h2l1-2c1-1 1 1 1 1a2 2 0 0 0 1-1 5 5 0 0 1 1-1v-1l-3 1a3 3 0 0 1-1-1h-2a4 4 0 0 1 0-1l1-1-2 1v-2h1c1-1 1-1 0 0a3 3 0 0 1-1 0h-2-1l-1-1h-2c0 1 0 0 0 0h1-2a2 2 0 0 1 1-2l1-1a15 15 0 0 1 1-1l2-1v2h-1v2c2 0 2-2 3-2v1l-1 1h2v1a13 13 0 0 0 1 0l2-1 2-1-1 1 3-2-1 2h1l1 1v1l1 1 1-1-1 2-2-1-1 1a2 2 0 0 0-1 0h2l1 1 1-1 1 1v-1l2-1a1 1 0 0 1 1-2h-2l1-1v-2l-2 2v-1h-2v-1h2l2-1h1v-1l-1 1 1-1h1a18 18 0 0 1 2-2h1l1-2-3 2-4 2 1-1-1 1 2-2h2l1-1h-2l1-1-1 1h-1zm-12 5l1-1 1-1-3 2-1-1a7 7 0 0 1 4-2c1-1 2 0 1 1a1 1 0 0 0 0 1v-1h1l-1 2 2-1h1a1 1 0 0 1-1 1 5 5 0 0 0-2 1 12 12 0 0 1-1 0l1-1a7 7 0 0 1-3 0zm8-2zm4-2zm-12 12h1zm-3 78v3h-1l-2-1-2 1 1 1-1 1-1 1a9 9 0 0 0-3 1 9 9 0 0 0 3 0h3l-2 3h1l3-2a2 2 0 0 0 1 0l3-3 2-1-1 2 2-1 1-2 1 1v-1h-1-1a9 9 0 0 1 1-2v-1l2-4-2 2-1-1v2l-2 1 1 1v1a2 2 0 0 1 0 1v1a17 17 0 0 1-2 1h-1c1-1 0-1-1-1v-1l3-2-1 1-1-1h-1a3 3 0 0 1 2-1l1-2h-2l-2 1v-1a2 2 0 0 0 2-2h2l-1 1c1 1 3-1 4-1l2-3h-1a13 13 0 0 1-2 1h-2v-1l-1 1a11 11 0 0 0 0 1h-1l-1-1-3 2 1-3h-2a2 2 0 0 0-1 0 5 5 0 0 1-3 2v1l-1 2h2l2-2-1 1h2v1l-1 1v2l-1 1 2-1v-1h3zm-2 6a10 10 0 0 1 3-1 2 2 0 0 1 0 1 9 9 0 0 0-1 0zm3-6v-1a3 3 0 0 1 1 0 4 4 0 0 1 0 1h-1zm-3-6l-2 1zm-2 11a1 1 0 0 1 1 0 2 2 0 0 1-1 0z" class="cls-6"/>
        <path d="M158 131h-1l1-1 1-1v-1l1-1-1-1-2 1c-1 1 1 0 1 1l-1 1h-3a13 13 0 0 1-1 2l-1 1 2-1a3 3 0 0 1 2-1l1 1v1a4 4 0 0 1-1 1l-1-2a1 1 0 0 0-1 1 3 3 0 0 1-2 2l1-1-3 1v1h-2l2-2s-2 0-1-1a6 6 0 0 1 2-2h2v-1l1-1v-1-2l1-1h1-2l-2 2h-2l-1 1h-1v1c1 1 0 1-1 2h2a12 12 0 0 0-3 3l2-1-1 1h-1l1 1-1 1 1 2v1a3 3 0 0 1-1 0l-2 3 1-1 2-1 1-1-1 2-1 1a2 2 0 0 0 1 2h1l1 1-1 1 3-2h1a11 11 0 0 1 1-2 12 12 0 0 1 2-1l-1 1h1l1-2-2 1 1-2 3-2v-1l-1 1c-1-1 1-2 1-3h1a2 2 0 0 0-2 0l-2 2a3 3 0 0 1 0 1v2h-1a6 6 0 0 1-1-1l-1 2 1 1v1a3 3 0 0 1-2 1v-2l-1 1 1-2-1-1-1 1 2-1 1-1 1-1-1 1-1-1a4 4 0 0 1 1-1 5 5 0 0 1 1-1l1 1 2-1a17 17 0 0 1 1-1 17 17 0 0 1 2-2 5 5 0 0 0-1 0zm-9-2l1-1v1a3 3 0 0 1 3-1 5 5 0 0 1-1 0 10 10 0 0 0-2 1c0 1 0 0 0 0zm5-3l-1 1 1-1zm-3 0l1 1-1-1zm59-3c0 1 0 2 1 1l1 1v2h1v-3l-1-1h2a7 7 0 0 0 0-2l-1-1v-2h-1l-1 1v-1l-1-1a11 11 0 0 0-1 2 3 3 0 0 1-1 1l-1 2-2 1 1-1h-1l2-2-1 1v-2a2 2 0 0 0-1 1l-1 2a1 1 0 0 1-1 1h-1a5 5 0 0 0 2-3v-1l-2 1-1 1v-1l-1-1v1c1 0 0 0 0 0v1l-1 1 1 1c-1 1 0 1 1 1a14 14 0 0 0 4 0l-2 1-1 3a2 2 0 0 1 0 1 9 9 0 0 0-2 1 8 8 0 0 1-2 2h-1l-1 2h-2l1 1 1 1 2-3a2 2 0 0 1 1-1h1a2 2 0 0 1 2 0 5 5 0 0 1-1 1 13 13 0 0 0-2 2 1 1 0 0 1-1 0l-2 1a4 4 0 0 0 1 0l3-2v2l1-2v-1a3 3 0 0 1 1 0 7 7 0 0 0 3-1l1-2v-2l1 2 1-2 1-1-1-2h-1 1a10 10 0 0 1-1 0 7 7 0 0 1-1 0 5 5 0 0 0-1 1l-1 1v-2l6-4h1l-1 2zm-5 5a3 3 0 0 1 1 0 5 5 0 0 1-3 2v-1a3 3 0 0 0 2-1zm-4-6a4 4 0 0 1-1 1l1-1zm3 10a1 1 0 0 1-1 0 2 2 0 0 1 1 0zm3-5zm-89-21v-1-2l1-1v1 1h2l1-2-2 1 1-1h-2l1-2 2 1 3-2v1a9 9 0 0 0 1 1h1l-1 1h4a6 6 0 0 1 2-1l1 1a10 10 0 0 1-3 1 10 10 0 0 0-1 1h1l-1 1h-1l-2 1-1-1-3 1 2-1-2-1a12 12 0 0 1-2 0l1 1 1 1a5 5 0 0 1-4 3l-1-2h3c1-1-1-1-1-1v-1l-1 1zm17 61v-1h3v1h1l-1 1a12 12 0 0 1 2 0v1a2 2 0 0 1-1 1c-1 0-2 0-1 1a2 2 0 0 1-1 1 2 2 0 0 1 0 1h-3l1-2 2-1h-1-4v2l-2-1-2 1 1-2a3 3 0 0 1 1-1 5 5 0 0 0 3-1l2-1a4 4 0 0 0-1 1 2 2 0 0 0 1 1l1-1h-1a5 5 0 0 0 0-1zm67-23c0-1-2 0-1-1h2l1-2c-2 1-3 0-4-1l-1 1 3-3v1l2 1a6 6 0 0 1 3-1l-2 1a7 7 0 0 0 2 0 16 16 0 0 0 2-1 5 5 0 0 1-1 2h-1l-3 3v1l-2 1v-1l-1 2-1-1-1 1v-1l2-1zm-5-30l1-2h-1l-1-1-1 1v3l1 1a3 3 0 0 0 1-2c1 0 2-2 3-1h-1l-1 2v1a5 5 0 0 0-3 2 5 5 0 0 1-2 1 2 2 0 0 1-1-1 9 9 0 0 1 1 0c1-1 0-1-1-1a2 2 0 0 1 2-2v-1a2 2 0 0 0-1 0l1-2v-1h2l1-2 2 1v1a7 7 0 0 1-2 3zm-24-26a5 5 0 0 0 2-2l1 1h1l1-1-2-1v-1h2v-1l2-1 2-1-1 2h1l-3 2v4h-2a17 17 0 0 0-1 0l-2 2h-1v-3zm-1 87a4 4 0 0 1 1-2h2v1h-1v1l1 1a6 6 0 0 0-1 2l1 1a8 8 0 0 0 1 0 3 3 0 0 1 1-1 5 5 0 0 0 3-2l-2 1-1-1-1-1v-1l2-2-3-1-2-1-1 2a2 2 0 0 0 0 1l-1 2h1zm3 2h1c1 0 0 0 0 0h-1zm-1-5zm-33 6l-1 1h-2l3-3h1a17 17 0 0 0 1 3l1 2-1 1v-2l-4 4-2 1a6 6 0 0 1-1 0l1-1h-2l2-2h1l2-1a2 2 0 0 0 2-1 1 1 0 0 0-1 0h-1l1-1a7 7 0 0 1 1-1zm-39-99v-1h-1l-2 1v-2l1-1h-2l1-1a13 13 0 0 0 2 0l1-1-1 2v1l1-1 2 1 3-4-1 1a10 10 0 0 1 1-1h3l-5 3v1l2 1-2-1-1 1h-1l-1 1zm8 40c-1 1 1 1 1 2l-3 1 1-2c-1 1-1 0-1-1l-4 1a2 2 0 0 1 1-2v-1l-1 1a6 6 0 0 1 1-2h1l2-1a5 5 0 0 1-2 3v1l2-1h3a2 2 0 0 0 1 0h1c1 1 0 0-1 1a1 1 0 0 1-1 0h-1z" class="cls-6"/>
        <path d="M95 83l1-1a3 3 0 0 1 3-2 2 2 0 0 0 1 0h2l2-1h4l1-2 1 1 2-1-1 1h1l-1 1h-2a5 5 0 0 0-3 1l-2 1c-2 1 0-1-1-1a8 8 0 0 0-3 1 7 7 0 0 1-2 0l-3 2zm88 21l-1 1a3 3 0 0 1-3 1l1-1-2 2 1 1-1 1-2-1 1-2v-1a4 4 0 0 1 0-1l-1 1v-1l2-1v1a7 7 0 0 0 2-1h2c1 0 2 0 1 1zm-69 30a2 2 0 0 0 2-1l2 1 1-2h1l-2 2h1a4 4 0 0 1-2 1v-1h-1l-6 2v-2h3c1-1 1-1-1-1a49 49 0 0 1 4-4l-1 1v2h1l-2 2zm77-20v-2l-2 2v-1l-2 1a13 13 0 0 0-2 1l1-1 2-2h1l2-2-1 1v-2l2 1 1-2v1h2a12 12 0 0 1-1 0 3 3 0 0 0-2 2v2a3 3 0 0 1 0 1h-1zm-82-44h1l2-1a11 11 0 0 1 2 0l-2 2a4 4 0 0 1-3 1 3 3 0 0 0-1 0h-1-2l-2 1 1-1a5 5 0 0 0 2-2 6 6 0 0 1 1-1v1h1zm27-1h-2a8 8 0 0 1 1 0 2 2 0 0 1 1-1 3 3 0 0 0 2-1 2 2 0 0 0 2-1 2 2 0 0 1 1 0l-1 1h-1l-1 2a3 3 0 0 0 1 1l1 1-1 1h-1v-1l-2 1 2-1-1-2a7 7 0 0 0-3 2l-2 1-2 1a6 6 0 0 1-1 1l4-3 3-2zm-15 78h-2v-1l1-1 1-1a14 14 0 0 1 2 2l-1 2-1 1h1-3zm48-62v-1a2 2 0 0 1 1 0 12 12 0 0 0 3-2h2l-1 1a12 12 0 0 0 0 2l-1 1-1-1v-2l-2 3v1h1a5 5 0 0 0 0 1 2 2 0 0 1-2-1 4 4 0 0 1-1-2zm-42-4v-1a3 3 0 0 1 3-2 9 9 0 0 1 1 0v2 1l1 1h-1l-1-1v-1c0-1 0 0 0 0a2 2 0 0 0-1 1h-2c-1-1 0 0 0 0zm82 48a4 4 0 0 1 2-2v3h1c-1 1-2 1-2 3l-1-1a2 2 0 0 0 0-1 4 4 0 0 0-1 1 3 3 0 0 1-1 1v-1l1-1a3 3 0 0 1 1-1 3 3 0 0 0 1-2zm-70 11l-1-1 4-3-2 2v2c-1 1-1 1 1 1a7 7 0 0 1 0-1h1l1 1v1a1 1 0 0 1-1 0h-2a4 4 0 0 0-1 0l-1-1 1-1zm17-18v3h-1a7 7 0 0 0 0 1 5 5 0 0 0 1 0l1-1a9 9 0 0 0 2 1l1-2v1l2-1h-3l1-2h-4zm2 2v-1 1zm32-46h1l-1 1h-2a5 5 0 0 0-2 0 3 3 0 0 0-1 1 2 2 0 0 0 0 1l1 1 1-1v1l-1 1h-1a5 5 0 0 1-1-2h-1v-1a14 14 0 0 0 3-2 4 4 0 0 1 2-1 12 12 0 0 1 2 1zm12 76l3-1h3v1a3 3 0 0 0-3 2l1-1c-1-1-2 0-3 1v-1a13 13 0 0 1-2 0v-1h1zM149 49h1a1 1 0 0 1 1 0v1l-2 1-1-1-2-1 1-1 2-1a9 9 0 0 0 1 1h1l-2 1zm0 62a3 3 0 0 0 2-1 1 1 0 0 1 1-1l-1 2-1 1a4 4 0 0 0-1 0 7 7 0 0 0-2 1l1-3h-2l1-1c3 0 3 0 2 2zm-38-47h1l-1 2a4 4 0 0 0-2 1l-3 2v-1h-1l-1 1 2-2a6 6 0 0 1 1-1v1l2-1-1 1v1l3-4zm44 41h1v1h1l1 1-2 2v-1a13 13 0 0 0-3 0 3 3 0 0 1 1 0 4 4 0 0 1 0-1l1-2zm-33-26c-1-1-2 0-2 1h-1l1-2v-1l-1-1 3-2-1 2h2l-1 1 1 1-1 1zm88 36l1-1h1v1l2-2a4 4 0 0 1-1 2l-2 1-3 2h1a2 2 0 0 1-2 1l3-4zm-103-2l-4 3-1-2 2-1h-1a5 5 0 0 0 2-1h1l-2 2h1l2-2zm41 12l-1 1c0-1-1-2-2-1v-1l-1 1-1-2 1-1v2l3-2 1 2a2 2 0 0 1 0 1zM95 72h2a4 4 0 0 1-2 1 3 3 0 0 0-3 1l1-2h-1c1-1 1-2 3-2a3 3 0 0 1 1 1l-1 1zm76 94l1-1 1-1v2h1l-4 2 1-2zm52-41v-1l-1 2v-1a10 10 0 0 0-1-1l2-1 1-1h1v1h1zm-75 27l1-2v-1h-1v-1c2-1 4 1 3 2l-3 2zm-16-57l1-1-1-1v-1a4 4 0 0 0 3-1v1l2 1-3 1a5 5 0 0 1-2 1zm53 77l1 1-6 2 3-3v2l2-2zM83 65a6 6 0 0 1 1 0l1 1a1 1 0 0 1-1 1l-1-1-4 1 1-1h2-2l3-2zm119 52a13 13 0 0 1 0-1 1 1 0 0 1 0-1 2 2 0 0 1 1 0v1c2-2 2-2 3-1l-2 1h-1v3h-1l1-3zM87 81h-2l1-1-2 1a5 5 0 0 1 4-1h-1a5 5 0 0 1 1 1c0 1 0 2-2 2l1-2v1c1 0 0 0 0 0v-1zm61 25a10 10 0 0 0 1 0l1 1a4 4 0 0 1-1 1h-2v-2a23 23 0 0 1 4-4 9 9 0 0 1-3 4zm-52 26h1l1-1-1 1c2 0 2-1 3-2a4 4 0 0 1-2 2l-2 2-3 1 2-1zm41 45h-3l1-1h2v1l-1 1-1 1h1v1a1 1 0 0 1-1 0c-1 0-2 0-1-1a5 5 0 0 1 1-1 4 4 0 0 0 2-1zm11-64h1l-1 2a1 1 0 0 0-2 0l1 2h-1l-1-1-1-1 2-1h1l1-1zM92 71l-3 1 1-1h-2l1-1 1-1 2 2zm82 27a4 4 0 0 1-1 2 6 6 0 0 0-1 1v-3h-1l2-1v1zm-59-23a4 4 0 0 1-1 0c-1 1-3 2-4 1a3 3 0 0 0-1 0h-1l1-1h6zm19 60l-3 3-1-1 2-1h-1a1 1 0 0 1 1-1h2zm-20 2v1a1 1 0 0 1-1 1 3 3 0 0 1-1-1l-1 2-1 1v-1a7 7 0 0 1 2-3zm7-1h-1l-1 2-1-1h-1v-1a6 6 0 0 0 3-2 1 1 0 0 1 1-1 4 4 0 0 0-1 3h1zm-6-24v-2h-1-1l-1 1 1-2a6 6 0 0 0 1 0h3a6 6 0 0 1 0 1h-1v1zm6 27a2 2 0 0 1-1 1 5 5 0 0 0-2 2h-2l2-2 2-1h1zm-12-57l1-2c2-1 3-1 4 1a2 2 0 0 1-2 1 3 3 0 0 0-2 0 6 6 0 0 1-1 0zm84 46l3-3 1-1a2 2 0 0 0 1 0l1 1-6 3s0 1 0 0zm-64 7c1-2 1-2 3-2a8 8 0 0 0 2-1 5 5 0 0 1 1-1v2h-3zm36-53v1l-1 1-2-1-3 2a5 5 0 0 1 2-2 5 5 0 0 0 2-1zm-60 2a17 17 0 0 1 1-3 9 9 0 0 1 2-1l1 1v1l-2-1v2l-2 1zm-15-7l-4 1a5 5 0 0 1 3-2h3zm98 13a2 2 0 0 0 1-1h1a16 16 0 0 1 1-1h1v1l-3 1a2 2 0 0 0-1 0zm-37 56v1h-1l1-3h1l1-1a3 3 0 0 0-2 3zm-13 29c1-2 2-1 3-1v1h1l-1 1-1 1v-3zm-7-18a6 6 0 0 1 4-1 6 6 0 0 0 1-1v2l-2-1-1 1h-1a4 4 0 0 0-1 0zM97 79a2 2 0 0 1-2 1h-2l-2-1a22 22 0 0 0 5-1l1 1zm29 105a4 4 0 0 0-1 0 6 6 0 0 0-2 0c1-1 2-2 1-3l2-1v3l1-1a3 3 0 0 1-1 2zM107 64l-2 2 1-1-2 1h-1l1-1 2-2v1zm35 3l1-1v-1l3 1-2 1h-2zm-15 0a2 2 0 0 0-2 1 11 11 0 0 1-1 1l-1-1-1 1h-1l2-2 1 1 3-2v1zm-36 1h-2v-1l4-1-3 1zM80 94l-3 3v-1l1-1v-1a7 7 0 0 1 1-1h1v1zm58 12l-1-1h5l-1 1h-3zm-19-32v2l-3-1 1-1 2-1-2 1zm22 34l-1 1 2-4a5 5 0 0 1 1 0l-1 1 1 1 1-1c-1 2-2 2-3 2zm64 27l-3 1v-2h2l1 1z" class="cls-6"/>
        <path d="M151 146l2-1v1l2-1-1 2-2 1c0-1 1-2-1-2zm-17-45l4-1-1 1a3 3 0 0 0 0 1l-2 1 1-1-1 1 1-2h-2zm41-8l2-1-1 1h2a5 5 0 0 0 1 1l-2 1 1-1-3 1v-2zm-38-11a7 7 0 0 0-4 3v-1l5-3a7 7 0 0 1-2 2zm-6 103h2a2 2 0 0 1-1 1h-1-1zm36-107a2 2 0 0 1-1 1v-1a4 4 0 0 0 0-1h3l-2 1zm-40-11h2l-1 1-1 1v-1a2 2 0 0 0-1 0l-1 1 2-2zm-6 72l-1-2 2-1c1 1 1 1-1 3zm-9-15h1c0 1 0 0 0 0l-1 2a3 3 0 0 1-1 1h-1a2 2 0 0 1 1-1l1-2zM98 75l-2 3-1-1h-1l4-2zm29 4s-2 0 0-2a2 2 0 0 0 1 0l1 1a4 4 0 0 1-2 1zm-11 48l1-1 1-2h2l-2 2-2 1zm2-42l2-2v1h1a2 2 0 0 1 0 1 3 3 0 0 1-3 1l1-1zm27 19l1-1a3 3 0 0 0 1-1 5 5 0 0 1 1-1h1a4 4 0 0 0-2 2 2 2 0 0 1-2 1zm26 62v-1l-1-1c-1 0 0 0 0 0a2 2 0 0 0-1 0v2l1-1-1 2 2-1zm-1-1h0zM89 86h-1v-1l1-1 2-1a9 9 0 0 1-1 2l-1 1zm27 54l-2 1a3 3 0 0 1 2-2h1l-1 2zm78-6h-1l-3 2a2 2 0 0 1 1-2l2-1c1-1 1 0 1 1zm-42-30h-1l3-2h1zm-13 27c1-1 0-1-1-1l4-1c-1 1-1 2-3 2zm-24-53h-1l1-1h2a1 1 0 0 1-1 1h-1zm52-13a4 4 0 0 0-3 1 3 3 0 0 1 0 1v-1l2-2zm-16-19h2l-1 1-1-1zm11 60l1-2h1l-1 1a4 4 0 0 1 1 0h1l-2 1a1 1 0 0 0-1 0zm-18 22l-1 1 2-2a11 11 0 0 0 0 2l-1 2-1-1 1-2zm57-22a6 6 0 0 1 0 2 3 3 0 0 1-2 1 4 4 0 0 1 2-3zm24 15v-2a14 14 0 0 1 1-1l1 1-2 2zm-108 25h-1v-1a3 3 0 0 1 1 0 2 2 0 0 1 1 0v1a5 5 0 0 1-1 0zm80-25l-3 3 1-2v-1h2zm-60-25l-1 2h1v1a1 1 0 0 1 1 0h-2v-1c-1-1 0-1 1-2zm-9 35l-2 2h-1v-1l2-1h-1a1 1 0 0 1 2 0zm14 16h-1a2 2 0 0 1 1-1 2 2 0 0 1 1-1l1 1zm-24-76v2l-3 1 2-2 1-1zm89 60l-1 1v2a5 5 0 0 1-1-1 1 1 0 0 1 0-1h1l1-1zm-98-5l-1 3-1-1 1-1 1-1zm35 23l-1-1 1-1a4 4 0 0 0 2 0h1a3 3 0 0 0-3 2zm48-19l2-1h3l-2 1h-3zm-42-33a7 7 0 0 1 1-1h2l-2 1h-1zm-29 28v2h-1v-1a4 4 0 0 1 1-1zm10-25l-2 1 1-2 2 1h-1zm9 44l3-2v1l-2 1zm52-60h-2l2-2v2zm-13 12a6 6 0 0 1 3-3l-3 3zm-73 33l-1 3h-1s2-1 0-2l2-1zm27 31a6 6 0 0 0-1 1 3 3 0 0 0 1 0h-2l2-1zm1 15l-2 1c-1 0-1 0 0 0l2-2h1l-1 1zm0-73l-1 2-1-1 2-1zm19-53a9 9 0 0 1 3-2l-1 2h-2zm-35 72c-1 2-1 2-3 2l1-2h2zm5-68l2-1v-1h1l-1 1-2 1zm4 110l-1 2v-1h-1v-1zm75-37v1l-2-1zm-73 31v-2l1 1h1a3 3 0 0 1-2 1zm27-8l1 1a2 2 0 0 1-1 1zm37-23l-1-1a9 9 0 0 0 1 0v1zm-33 7h2v1l-1-1h-1zm-53-9l2-1h1a4 4 0 0 1-1 1 6 6 0 0 1-2 0zm93-6v-1a15 15 0 0 0 1-2v2z" class="cls-6"/>
        <path d="M117 146h1a32 32 0 0 1-3 3v-2h1a2 2 0 0 0 1-1zm45-15v-1l1 2h1a2 2 0 0 1-1 0h-1a6 6 0 0 0 0-1zm36-26a14 14 0 0 1-2 3v-1a16 16 0 0 1 2-2zm-54 20l1 2h-3l2-2zm-16-51v1h-2l2-1zM84 59l-1 1h-1l1-1v1l2-1zm144 61h2v-2 2zM119 68a9 9 0 0 1 1 1 1 1 0 0 1 1 0l-1 1-1-1v-1zm-36 8v2l-1 1v-3zm52-15l-1 2a6 6 0 0 1-1 1l1-2 1-1zM83 85h-1l-1-1 2-1v2zm11-10l4-1a4 4 0 0 1-4 1zm33-5h1l2-2v1l-3 2zm62 11c-1 2-1 2 1 1a2 2 0 0 1-2 1h-1l2-2zm-75 49l-2 1 1-1a8 8 0 0 1 1-1v1zm84 10h-1l1-1zm-73 49l1-3 1 2-2 1zm44-88h1l-2 1 1-1zm-16 20l-3 1 3-1zm-16 8c-2 1-2 2-3 1a3 3 0 0 1 3-1zm25-49h-1v-1h2l-1 1zm-63 38a2 2 0 0 1 1-1h1l-1 1h-1zm27-53s0-1 0 0a2 2 0 0 0-1 0v1a2 2 0 0 0 1-1zm-1 0a1 1 0 0 1 0 1zm-5 47h-2 2zm2 49l2-3c0 1 0 2-2 3zm17-45l-1-1 3-1-2 2zM95 73l1 1-3 1zm51 62l-1 2-1-1 2-1zm-7-40l-1-1 1-1v2zm5-27l-2 3h-1v-1zm23 62l-1 2-1-1 2-1zm-44-47l3-3v1a5 5 0 0 0-3 2zm-34-8v-1a5 5 0 0 1 1-1l1 1zm112 63l3-2-3 2zm-91-5c1 1 1 1-1 2l1-2zm23 29a5 5 0 0 1-3 2l1-2h2zm26-85v-1h2zm-30 56l-2 3 2-3zm29-24a5 5 0 0 1 0 1h-1-1l1-1a9 9 0 0 0 1 0zm-13 29h-1a8 8 0 0 1 2-2l-1 2zm-10 28a5 5 0 0 1-3 1l3-1zm21-62a5 5 0 0 1-2 0 4 4 0 0 1 1-1 5 5 0 0 1 1 1zm-21 0l2-1-1 2v-1zm28 29h2l-1 1-1-1zm10-45l-1 1a1 1 0 0 1 0-1 11 11 0 0 1 2 0l-1 1zm-44 11v1h-1l1-1zm80 54l2-3c0 1 0 2-2 3zm-45-78v1l-1 1 1-2zm-17 16h1l-1 1v-1zm-27-20c1 0 2 0 1 1h-1a5 5 0 0 1 0-1zm56 66l1-1c0 1 1 2-1 3v-2zm48-10l2-2v1l-2 1zm-118 13l-2 2s-1 0 0 0a3 3 0 0 1 0-1 13 13 0 0 1 2-1zm35-69l-2 2v-1a9 9 0 0 1 2-1zm2 25h2-2zm37 6l1-2c1 1 0 2-1 2zm-29-46h-2l1-1h1zm7 82l2-2-2 2zm-29 15l2-1a1 1 0 0 1 0 1 14 14 0 0 1-2 0zm51 19v-1a6 6 0 0 0 1 0 5 5 0 0 0 1-1l-2 2zm-48-80a5 5 0 0 1 2-2 8 8 0 0 1-2 2zm92 36l-1 1v-1h1zm-90-56h-1v0h2l-1 1v-1zm0-26l2-1-2 1zm33 42l-1 1h-1v-1h2zm-55 48v1l-2 1zM86 67l-2 1 1-1h1zm15-8a6 6 0 0 1 2-2 1 1 0 0 1 1 0v1l-3 1zm-1 10h2v1l-2-1zm64 0l2-2-1 1 1 1h-1-1zm26 89l-2 1 1-1zm6-8h-1l-1 1a2 2 0 0 1 1-2l1 1zm-15-42a5 5 0 0 1 1-1v1h-1zm-35-8h1a1 1 0 0 1-1 1zm-6-31l2-1-1 1h-1zm-1 74l-2 2 1-2zm-27-15h-1l1-1zm123-6h1a3 3 0 0 1-2 2 3 3 0 0 1 1-1v-1zm-56-28h1l-2 1 1-1zm-65 46h-1l1-1zm7-31h-2a2 2 0 0 1 1-1l1 1zM81 63a3 3 0 0 0 1 1l-2 1 1-1v-1zm34 57v1h-1zm70-15l3-1-3 1zm-31-53h-1l1-1zm79 69l-1 2 1-2zm-60-19l1-2a6 6 0 0 1-1 2zm-56 16v-2l1 1-1 1zm25-69v1a6 6 0 0 1-1 1 3 3 0 0 1 0-1l1-1zm-21 14a3 3 0 0 1-2 1zm-19 64h1l-1 1zm25 61l2-1c-1 2-1 2-2 1zm-29-64a6 6 0 0 1 2-2 4 4 0 0 1-2 2zm34 42l-2 1 2-1zm-8-101h-2l1-1 1 1zm1 29l2-1h1a8 8 0 0 1-3 1zm64 11l1-1v2h-1zm16 33l-2 1v-1a2 2 0 0 1 2 0zm-81-54a4 4 0 0 1-2 3zm75 1h1l-1 1zm-44 36v1l-2 1zm-6-61l1-1-1 2zm-16 26l1-1 2-1v1l-3 1zm-16 58l-2 1v-1zm55-4l-1 2 1-2zm-42-26h-1l1-1zm13-4a6 6 0 0 1-3 2l3-2zm-45 6v2zm64-39l-3 1a3 3 0 0 1 1 0l2-1zm-15-9l-3 2zm-4 40l2-2a3 3 0 0 1-1 2 5 5 0 0 1-1 0zm-18 54l-1-2 1 2zm32-28a4 4 0 0 1 1 0l1-1v1a7 7 0 0 1-2 0zm-22-27l-1 1h-1l2-1zm63-22l-2 1 2-1zm-38 54l-1-1c1 0 2 0 1 1zm-15 5a4 4 0 0 1-1-1h1v1zm20-7v-1 1zm-23-35l-2 1v-1zm-8-28a7 7 0 0 1 1-1h1l-1 1a3 3 0 0 1-1 0zm12 34l-2 1 2-1zm42-18l-1 2 1-2zM86 106v-2 2zm15-13l1-2-1 2zm8 38l-1 2 1-2zm42-24h1a3 3 0 0 1-2 1 4 4 0 0 1 1-1zm34-32v1zm-59 96l1 1zm35-41l1-2c1 1 1 1-1 2zm-30-24l2-1-1 1h-1zm19 0a5 5 0 0 1 0-1h1a8 8 0 0 1 0 1zm-28-52a4 4 0 0 1 2-1l-2 1zm15 126v1-1zm-27-66l2-1-1 1a4 4 0 0 1-1 0zm87 25l-2 1 2-1zm-92-78l-1 1zm42 86c1 1 1 1-1 2zm-17 42a1 1 0 0 1-2 0zm3-12l-1 1v-1h1zm50-98l-1 1zm-20-6l-1 1h1a8 8 0 0 0 0-1zm-35 54l-1-1h1v1zm68 24h-1l1-1a4 4 0 0 1 0 1zm-37-9v2h-1l1-2zm-30 44l1-1-1 1zm3-100l1-1v1h-1zm-3 5l2-1-2 1zm-30-8a3 3 0 0 1 2-1 2 2 0 0 1-2 1zm85 77v-1 1zM75 89v1-1zm49 23l-2 1 2-1zm-9-67l1-1 1 1h-2zm62 46a3 3 0 0 1 1-1l-1 1zm16 55c2 0 2 0 1 1zm-71 13v-1h1v1h-1zM82 58l-3 1 1-1zm115 92l2-1-2 1zm-77 9v0zM105 37a2 2 0 0 1-2 1l2-1zm-9 28l-2 1 2-1zm53 52v-1h1l-1 1zm-38-51h0zm78 26v-1 1zm6-11v1-1zm-44-16l2-1-2 1zm3 45l-1 1v-1a2 2 0 0 1 1 0zm-12 6l1-1zm-6-41l-1 1v-1h1zm-24-2l-1 1a2 2 0 0 1 1-1zm62 104l-1 1-1-1zm-55-56v2-2zm8 36a5 5 0 0 1 0-1v-1a1 1 0 0 1 0 2zm18-6v1h-1l1-1zm-44-25l-1 1zm22-79l-2 1 2-1zm12 115l1 1-1-1zM81 74h2zm45 60l-1 1zm11-40l-1 1zm46-11l-1 2 1-2zm16 55v-1h1l-1 1zm-73-15l2-1-2 1zm-20-80h2l-1 1zm84 75h-1v-1l1 1zm-73 33l1-2-1 2zm29-21l-1-1 1 1zm-23-56a2 2 0 0 1 2-1l-2 1zm35 47v-1 1zm-58-3h1l-1 1zm11 27l1-1v1h-1zM83 82h-1zm85 4l-1-1h1v1zm-64-14v1h-1a1 1 0 0 1 1-1zm81 16l1-1-1 1zm2 29h-1 1zM93 83a4 4 0 0 1-1 1l-1-1h2zm50 9h-1 1zm-41-8h2-2zm2-41l1-1-1 1zm42 56a2 2 0 0 1 0 1 6 6 0 0 1-2 0l2-1zM81 61l-2 1 2-1zm47 121a2 2 0 0 1 2-1l-1 1h-1zM115 63l-2 1a2 2 0 0 1 2-1zm19-11h0zm7-4h2a2 2 0 0 1-2 0zm87 69v2-1a4 4 0 0 1 0-1zm-80-14l-1 2a2 2 0 0 1 1-2zm74 32l-1 1v-1h1zm-84-73a3 3 0 0 1-2 1l2-1zm-3 19a3 3 0 0 1 0 1 2 2 0 0 1-1 0 9 9 0 0 1 1-1zm-13-18l-1 1 1-1zm25 1h-1l1-1zm-71 42v1l-1-1zm57 22h-1l1-1v1zm7 7v1-1zm22-29v1h-1l1-1zm-35 19l1-1-1 1zm8 27h1v-1 1zm48-70l1-1zm-43 14c1-1 1-1 0 0zm-25-32l1-1a1 1 0 0 1-1 1z" class="cls-6"/>
        <path d="M151 107a4 4 0 0 1 1-2l-1 2zm9 0l-1-1 1 1zm35 40l-1 1 1-1zm-16 18l1-1-1 1zM132 48l-1 1 1-1zm35 22l-1 1 1-1zm-37 23h-1 1zm56 39l-2 1 1-1h1zm-2-27l1-1-1 1zm-36-42l2-1-2 1zm-20 21v-1zm-12 43l-1 1 1-1zm49 34l-1 2zm-49-93h-1v-1l1 1zm13 37h1v1h-1v-1zm11 5l-1 1 1-1zm12-17v-1 1zm-44 51h-1l1-1v1zm85-16h-2 2zm-17 13a2 2 0 0 1-1 1l1-1zm-40-44l-1-1h1zm2 80l1-1v1zm-17-41l1-2c1 1 1 1-1 2zm43-9l1-1-1 1zm1 15a3 3 0 0 1 0-1l1-1v1a5 5 0 0 1-1 1zm-5-14l1-1v1zm38-43v-1 1zm-6 80a1 1 0 0 1 0 1h-1a3 3 0 0 1 1-1zm3-2c1-1 1 0 1 1zm-60-50l2-1c-1 2-1 2-2 1zm12-51l-2-1 2 1zm-2 73v-1 1zm-10-46l1-1zm23 61l1-1-1 1zm35 15v1-1zm-2-22l-1 1 1-1zm6-16l1-2-1 2zm-65 46l1 1-1-1zm0 0l-1 1 1-2zm71-60l1-1a1 1 0 0 1-1 1zm-74 53v-2 2zm9-16h-2 2zm45-46h1-1zm-38 24l1-1-1 1zm3-8h-1zm-17 10v-1 1zm67-49v-1 1zm-76 51v1-1zm59-43h-1l1-1zm-1-3l2-1zm-52 33v1-1zm-3-5h-1 1zm0-5l1-1zm-11-41h-1 1zm0-9l2-1-2 1zm-29 5l2-1a3 3 0 0 1-1 1 8 8 0 0 1-1 0zm1-1l1-1a2 2 0 0 1-1 1zm-9 35h-2 2zm31 27a1 1 0 0 1 1-1zm39 40v0zm41-42l2-1-2 1zM80 84l-1-1zm44-29l1 1-1-1zm37 75a7 7 0 0 1 0 1 3 3 0 0 1-1 0l1-1zm-58 9a2 2 0 0 1 1 1 1 1 0 0 1-1 0zm56-9l1-1-1 1zm27-45a1 1 0 0 1 1-1 2 2 0 0 1 0 1 10 10 0 0 1-1 0zm-41-26v1h-1l1-1zm46 55l-1 1a3 3 0 0 1 1-1zm-65 7a3 3 0 0 1 1 0h-1zm3 1v0zm22-52h1a1 1 0 0 1 0 1l-1-1zm59 70v-1 1zm-42 31v1-1zm-60-41l1-1v1zM81 93l1-1zm78 73v-1 1zm7-10v1a2 2 0 0 1 0-1zm44-33a1 1 0 0 1-1 0 4 4 0 0 1 1 0zM100 82l-2 1a2 2 0 0 1 2-1zm40 16h0zm-9 56l1-1-1 1zm3 21l-1 2c-1-1 0-1 1-2zm40 9l-1 1a1 1 0 0 1 0-1zm-7-45l-1-1 1 1zm48 8l-1 1 1-1zm-22 17v-1 1zM88 66h-1 1zm104 96a2 2 0 0 1 1 0zm-13 9v1-1zm-10 8l1-1-1 1zm19-16v1zm-49-19v-1a2 2 0 0 1 1 0v1a7 7 0 0 1-1 0zm33 31h1a1 1 0 0 1-1 0c0 1 0 0 0 0zm4-34l1-1-1 1zm-68-93h-1 1zm28 63h1a3 3 0 0 1-1 0zm12 15v1zm49 10l-2 1a3 3 0 0 1 1 0zm-51-70h1zm-18 19h2-2zm89 45v-1 1zm-82-56h-2a4 4 0 0 1 2 0zm58 7l1-1-1 1zm-56-36v-1a2 2 0 0 1 1 0 2 2 0 0 1 0 1 5 5 0 0 1-1 0zm-19 120l1-1-1 1zm-10-30l-1 1 1-1zm10 21l1-1a1 1 0 0 1-1 1zM76 68h-1 1zm48 88v-1h1a1 1 0 0 1-1 1zm31-35l1-1-1 1zm23-21v-1 1zm-76-17l-1 1v-1h1zm20-16l1-1-1 1zm-15-21l-1 1 1-1zm85 31v1a4 4 0 0 1-1 0zm-62 31h1-1zm6-58c-1 0 0 0 0 0zm39 51l2-1zm-15-22a3 3 0 0 1 1 0l-1 1zM88 66h0zm66 81l1-1-1 1zm33 23h-1 1zm9-15a2 2 0 0 1 0 1 1 1 0 0 1-1 0 6 6 0 0 1 1-1zm-46-92v-1 1zm-48 12h1a1 1 0 0 1-1 0zm19 46zm12-24v-1h1l-1 1zm50-10v1h-1a7 7 0 0 1 1-1zm-9-18l-1 1a2 2 0 0 1 1-1zm-42 62h-1 1zm-33-7v-1a1 1 0 0 1 1 0 2 2 0 0 1-1 1zm70-57a4 4 0 0 1 1 0zm-77 47a1 1 0 0 1 1 0 5 5 0 0 1-1 0zm5-29zm34-33v-1h1l-1 1zm14 45l1-1a1 1 0 0 1-1 1zm0-25h-1l1-1v1zm-17-23l1-1a1 1 0 0 1-1 1zm24 8l-1 1 1-1zm47 62v1zm-30 23h-1 1zm-46-59h1-1zm13-22l1-1-1 1zM186 132zm-42-70h1-1zm-13 112l-1 1v-1zm-10-86l1-1v1h-1zm35-19h1l-1 1v-1zm-35 41l-1 1 1-1zm37-62v1l-1-1zm59 76l-1 1zm-78 8v0zm70 2h-1 1zm-69-16v-1a5 5 0 0 1 0 1zm42-28l1-1-1 1zM92 61h-1 1zm-15 8v-1a1 1 0 0 1 1 0 3 3 0 0 1-1 0zm44-10l1-1a1 1 0 0 1-1 1zm-32-3h-1 1zm86 46h-1 1zm-60 15l-1 1 1-1zm12-4zm6 16l-1 1zm-4 3h-1 1zm0-7h-1 1s0-1 0 0zm-10 34a1 1 0 0 1 0 1v-1zm18-11h1v1h-1v-1zm21-8v-1a3 3 0 0 1 0 1zm-2 2v-1a2 2 0 0 1 0 1zm-35 15v-1a1 1 0 0 1 1 0 4 4 0 0 1 0 1zm95-11h-1v-1a1 1 0 0 1 1 0zm-45 33zm-8-52a5 5 0 0 1 0-1 2 2 0 0 1 0 1zm34 30v-1 1zm-8 4h1-1zm-35-50v-1 1zm34 49h1a4 4 0 0 1-1 0zm13-45v-1a3 3 0 0 1 1 0zm-67 49a3 3 0 0 1 1 0 2 2 0 0 1-1 0zm-9 8l-1 1v-1h1zm60-95v0zm-60 2h-1 1zm1 10l1-1-1 1zm-4-10v1-1zm16 32zm-17 41l-1 1v-1h1zm7 29v1zm2 0h1-1zm38-25h-1 1zm-54-85l1 1a4 4 0 0 1-1 0v-1zM93 85a5 5 0 0 1 0-1 2 2 0 0 1 0 1zm51-35zm-14 138h1a3 3 0 0 1-1 0zm-34-68zm34 70h-1l1-1v1zm45-33h0zm22-15l1-1-1 1zm9-4zm25-19l-1 1zm-131 1l-1 1v-1h1zm46-31l1-1v1a4 4 0 0 1-1 0zm-35-25a2 2 0 0 1-1 0 2 2 0 0 1 1 0zm56 106v1-1zm62-46l-1 1 1-1zM109 65v-1 1zm97 79h1a2 2 0 0 1-1 0zm-71-31l-1 1 1-1zM91 77zm33-21v1h-1a2 2 0 0 1 1-1zm33 82v1a1 1 0 0 1-1 0l1-1zm21-55a2 2 0 0 1-1 0zm-48 47h1a1 1 0 0 1-1 1zm61-36v-1h1l-1 1zm-70 74zm66-4l1-1v1h-1zm12-52h0c-1 0 0 0 0 0zm-13 56v1-1zm-59-3v1-1zm19-14h1a1 1 0 0 1-1 0zm48 13zm-56-5v-1 1zm-31-15h-1 1zm16 0h1l-1 1v-1zM80 89a3 3 0 0 1-1 1l1-1zm89 50a4 4 0 0 1 1 0h-1zm23-54zm-37-19l1-1v1h-1zm-11 34a7 7 0 0 1 1-1 3 3 0 0 1-1 1zm-2 2l1-1-1 1zm-8 18a2 2 0 0 1-1 0h1zm-15-53zm25 44a4 4 0 0 1-1 0 2 2 0 0 1 1 0zm41 25h-1 1zm-76-93l-1 1h-1a2 2 0 0 1 1 0 4 4 0 0 1 1-1zm-3 97l1-1-1 1zm62-43a2 2 0 0 1 1-1 1 1 0 0 1-1 1zm26 39l-1 1 1-1zm-87 12h-1 1zm-11-31a2 2 0 0 1-1 0 1 1 0 0 1 1 0zm-8-61v-1a2 2 0 0 1 0 1zm93 35a2 2 0 0 1 0-1 1 1 0 0 1 0 1zm-42 21l-1 1 1-1zm5 66h-1a1 1 0 0 1 1 0zm-43-65a2 2 0 0 1-1 0h1zm72 45a2 2 0 0 1 1-1v1a2 2 0 0 1-1 0zm-68-23l1-1a2 2 0 0 1 0 1zm39-37a2 2 0 0 1-1 0 2 2 0 0 1 1 0zm3-28zm70 57zM100 69a4 4 0 0 1-1 0 3 3 0 0 1 1 0zm39 38h0zm-1-20zm-15-16zm104 53v-1 1zM114 61l-1-1h1v1zm35 57h-1 1zm34 42a3 3 0 0 1 0-1 2 2 0 0 1 0 1zm-28-41v-1 1zm-38-50a1 1 0 0 1 1 0 1 1 0 0 1-1 0zM97 80a1 1 0 0 1 1 0h-1zm46 10zm-3-43h1a5 5 0 0 1-1 0zm-9 6h-1 1zm3-3h-1zm0-1a2 2 0 0 1 1 0h-1zm-7 5a3 3 0 0 1 0-1 3 3 0 0 1 0 1zm-20 11a1 1 0 0 1 1 0 5 5 0 0 1-1 0zm24 95h-1 1zm-6-107a3 3 0 0 1 0-1 1 1 0 0 1 1 0l-1 1zM83 80v-1h1l-1 1zm27 36zm12-67h1-1zm15 109v-1 1zm-21-43zM81 60a2 2 0 0 1 0 1zm65 35zm21-14l1-1-1 1zm33 33l1-1-1 1zm-51-19zm0 2zm-14 10h1-1zm40-26l1-1v1h-1zm-4 59v-1zm-33-33h1zm36 33h0zm-1-53zm8-1l1-1v1h-1zm-2 4v1a2 2 0 0 1 0-1zm3 0a3 3 0 0 1 0-1 1 1 0 0 1 0 1zm19-12v1-1zm-14 10a1 1 0 0 1 1 0h-1zm-12 12v-1a1 1 0 0 1 0 1zm6-4zm0 4l-1 1 1-1zm32 24h1-1zm-100 32zm3-1l1-1v1a5 5 0 0 1-1 0zm72-51c0-1 0 0 0 0zm-7 46zm33-24v-1 1zm-96 31zm0 1a2 2 0 0 1 1-1v1a3 3 0 0 1-1 0zm5-4v1a1 1 0 0 1-1 0 2 2 0 0 1 1 0 2 2 0 0 1 0-1zm100-33l-1 1v-1h1zm-31-15v1-1zm-12 62a1 1 0 0 1 1 0h-1zm-3 3a1 1 0 0 1 1-1 1 1 0 0 1 0 1 1 1 0 0 1-1 0zm6-6v0zm33-38zm-29 33h0c-1 0 0 0 0 0zm-20 6h1a2 2 0 0 1-1 0zm-26-99a2 2 0 0 1 0-1 1 1 0 0 1 1 0 4 4 0 0 1-1 1zm44 90zm-91-42h0zm74 57h0zM78 98l-1 1v-1a2 2 0 0 1 1 0zm50-2l1-1a7 7 0 0 1-1 1zm69 55h1-1zm11-8a4 4 0 0 1 0 1 2 2 0 0 1 0-1zM106 38zm-1 102h-1 1zm38-27a3 3 0 0 1 1-1v1zm60-29h-1 1zm-20 6a2 2 0 0 1 1 0 2 2 0 0 1-1 0zm-68 26h-1a2 2 0 0 1 0-1h1a1 1 0 0 1 0 1zM93 62zm103 19h0zm-51 70v-1 1zm-35-96l-1 1 1-1zm24 46v1-1zm28-19zm-33 82a1 1 0 0 1-1 0l1-1a1 1 0 0 1 0 1zm1-117h-1 1zm-1 82h-1 1zM130 47zM97 69zm31-18zm19 100h1-1zm-4-59h0zm-11-42h1a1 1 0 0 1-1 0zm-19 14a3 3 0 0 1 0-1 3 3 0 0 1 0 1zm43 57zm42-4h1a2 2 0 0 1-1 0zm-69-18l1-1-1 1zm-19 12a1 1 0 0 1-1 1l1-1zm45 39v1h-1v-1h1zm31-48a3 3 0 0 1 0-1h1v1a2 2 0 0 1-1 0zm25 9zm-31 27h-1l1-1v1c0 1 0 0 0 0zm7-35zm-68-16a1 1 0 0 1-1 0zM78 97zm49 31a2 2 0 0 1 0 1h-1zm-5-56zm76 54l1 1h-1a2 2 0 0 1 0-1zm-19 16zm-10-77a1 1 0 0 1 0-1zm-43 8zm21-13zm-71 47l1-1v1a1 1 0 0 1-1 0zm2-1a3 3 0 0 1 0-1h1a2 2 0 0 1-1 1zm53-35a1 1 0 0 1 0 1zm-3 112a1 1 0 0 1 1-1 1 1 0 0 1 0 1h-1zm19-14h1a1 1 0 0 1-1 0zm-24-34h0zm6 48zm36-26l-1 1v-1h1zm-35 26h1a1 1 0 0 1-1 0zm3-108h1a3 3 0 0 1-1 0zm25 90zm-19 15v-1 1zm13-117zm11 63a1 1 0 0 1 0-1 1 1 0 0 1 0 1zm28 36zm-17-7h1a2 2 0 0 1-1 0zm7 15zm1 1zm19-13h-1zm-4 7zm-63 21a1 1 0 0 1 1 0h-1zm37-1h1-1zm-51-63zm56 34h-1 1zm-29-37zm-8-12l-1 1 1-1zm-4 82h-1 1zm6-65v-1 1zm-37 5a2 2 0 0 1 1 0zm40-7zm-20 5zm25-57zm34 88zm2-1l-1 1v-1a3 3 0 0 1 1 0zm-4-70a6 6 0 0 1 1-1 1 1 0 0 1 0 1 2 2 0 0 1-1 0zm-8-8a1 1 0 0 1 0 1 1 1 0 0 1 0-1zm-26 18zm-23 15zm49-10l-1 1 1-1zm-35-1h1a2 2 0 0 1-1 0zm0 28h-1v-1h1zm43 35h-1 1zM107 34h1a2 2 0 0 1-1 0zm97 72v-1 1zm-109-5a5 5 0 0 1 1-1v1a3 3 0 0 1-1 0zm3 8l1-1a1 1 0 0 1-1 1zm62 8v-1a2 2 0 0 1 0 1z" class="cls-6"/>
      </g>
      <path fill="#fff" d="M165 88l-21-20-21 20h6v21h30V88h6z"/>
      <path d="M138 77l-3 3a17 17 0 0 0-1 2c-1 1 0 0 0 0a29 29 0 0 1-4 3l-2 3a7 7 0 0 1-1 0l-2 2-2-5h10v3l-1 10v11l-3-3h29l-2 3V96 85l2 1a6 6 0 0 1 2 0l2 1h2l-1 1a6 6 0 0 0-3 0 5 5 0 0 1-2 1l2-1a30 30 0 0 1 0 5l1 13v3l1 3h-36v-3l1-6V88l2 2h-12l4-4 2-2a4 4 0 0 1 2 0l-1 1a4 4 0 0 0-1 0 27 27 0 0 0 4-2l3-3a6 6 0 0 1 1-1 3 3 0 0 0 1-1 19 19 0 0 0 3-2 10 10 0 0 1 2-3v-1c-1-1 1 0 1-1l3-2v1l2-2 1-1 1 1 5 4 7 6a6 6 0 0 1 1 1 8 8 0 0 0 2 2 8 8 0 0 1 1 2l-1-1a76 76 0 0 0 6 6 7 7 0 0 1 1 0h-1l-1-1a2 2 0 0 0-1 0s1 0 0 0l-5-4a11 11 0 0 1 2 1c1 1 1 1 0 0a18 18 0 0 0-2-2l-2-1h-1l-3-2-10-9h3l-8 8v-1z" class="cls-8"/>
      <path d="M138 72a17 17 0 0 1-3 2l-2 2a2 2 0 0 1-1 1l-1 1a34 34 0 0 1-5 5v-1a7 7 0 0 1 1 0l10-10h1zm16 2a136 136 0 0 1 5 5l-1-1a49 49 0 0 1-4-4zm-1 0a35 35 0 0 1-4-4 27 27 0 0 1 4 4zm1 0l-2-2-2-2a34 34 0 0 1 4 4zm-21 3l1-1a2 2 0 0 1-1 1zm22-2a4 4 0 0 1 1 1 5 5 0 0 1-1-1zm-13-8zm8 3l-1-1a3 3 0 0 1 1 1zm7 55h-2c-1 0 0 0 0 0l-1-1h-2a1 1 0 0 1-1 0 1 1 0 0 0-1-1l-2 1h-1l-4-1h-16-10-8l-1 1v1l-1 1h1a8 8 0 0 1 2 0 12 12 0 0 1 3-1l1 1a1 1 0 0 0 1 0 20 20 0 0 0 3 0h6l2 1h6a8 8 0 0 0 1 0 8 8 0 0 1 2 0 5 5 0 0 0 1 0h1a7 7 0 0 1 1 0 2 2 0 0 0 1 0 3 3 0 0 1 1 0 1 1 0 0 0 2 0h2a1 1 0 0 1 1 0l1-1 1 1a4 4 0 0 1 1 0v-1a7 7 0 0 1 1 0 2 2 0 0 0 1 0h3a4 4 0 0 0 1 0h3v-1zm-21 0h3a7 7 0 0 1 2 0 7 7 0 0 0 1 0h8a4 4 0 0 1 1 0l-1 1h-11-3v-1zm-6 1zm17 0zm-11 1zm-1-2zm-4 2zm10 5a8 8 0 0 0-1 0v-1a1 1 0 0 0-1-1h-1a1 1 0 0 1-1 0h-2a6 6 0 0 1-1 0h-2-7l-2-1h-2-7-3l-3 1v1l-1 1 1 1a4 4 0 0 1 1-1 6 6 0 0 1 2 0h1a10 10 0 0 0 2 1 2 2 0 0 1 1 0h9a4 4 0 0 0 1 0 4 4 0 0 1 1 0 2 2 0 0 0 1 0 2 2 0 0 0 1 0 1 1 0 0 0 1 0 1 1 0 0 1 1 0h2c1 0 0 0 0 0h3c1 0 0 0 0 0a3 3 0 0 1 1 0h3v-1l1 1v-1l1 1h1l-1-1zm-14 0h2a3 3 0 0 1 1 0 3 3 0 0 0 1 0h1a10 10 0 0 0 1 0h4-8-2zm-4 1a1 1 0 0 1 0-1 1 1 0 0 1 0 1zm12 0zm-8 0zm-1-1zm-2 1z" class="cls-8"/>
      <path d="M74 23h3v-1h-1v1l-1-1s0-1 0 0a2 2 0 0 1-2 0l1 1c1 0-1 0 0 0zM94 1a1 1 0 0 0 1 1 1 1 0 0 0-1-1c1 1 0 0 0 0zm25 4h1a1 1 0 0 0-1 0zM82 2c0-1 0-2-1-1v1a2 2 0 0 0 1 0c0-1 0 0 0 0zm12 1l1-1-1 1c1 0 0-1 0 0zm16-1c0-1 0 0 0 0zm17 1zM96 3h-1 1zm48 2zm-14 1h0zm-11 0zm15-1h1-1zM91 23zm49-14zm-28-3h1V5l-1 1zm-1-1v1l1-1h-1z" class="cls-9"/>
      <path d="M82 4l-1-1c0-1 0 1 0 0a1 1 0 0 1 1 0h1V2l1 1v1l1-1-1-1h-1a1 1 0 0 1 0-1h1c1-1-1 0 0 0h1a6 6 0 0 1 1 0 1 1 0 0 0 1 0l1 1a4 4 0 0 1-1 0h-1l1 1 1-1V1h2l-1 1c0 1 0 0 0 0v1h2v0h1V2h1l1-1v2h-1 1a3 3 0 0 1 1 0 5 5 0 0 1 2 1 5 5 0 0 1-1-1h1a6 6 0 0 1 1 0s-2 0-1-1l1 1c0 1 0 0 0 0a1 1 0 0 1 1 0h1V2c-1 1 0 1 1 1h1a4 4 0 0 1 2 0c1 0 0 0 0 0h2a1 1 0 0 1 0-1 2 2 0 0 1 1 0 3 3 0 0 0-1 1h1a3 3 0 0 0 0-1h1l1-1v1l-1 1h2a2 2 0 0 0 0-1h2l-1 1h2a4 4 0 0 0 2 0 14 14 0 0 1 2 0h2a3 3 0 0 1 0 1V3l1 1 1-1h-1V2h1V1l1 1h-1l1 1a3 3 0 0 1 0-1l1 1v1l1-1-1-1 1-1a7 7 0 0 1 0 1l1-1v1l1-1c0-1 0 0 0 0h1v1h-2a1 1 0 0 0 1 1l1 1a7 7 0 0 0 2 0V3h2c0 1 0 0 0 0a2 2 0 0 1 1 0v1h1V3h1a7 7 0 0 1-2-1l-1-1 2-1v1h1v1h1l1-1v1h-1l1 1h2c1 0 0 0 0 0a3 3 0 0 1 1 0h2a7 7 0 0 1 1 1l1 1 1 1V5l1-1c1 0 0 0 0 0V3l1 2 1-1v1l1 1h-1a2 2 0 0 1-1 0V5h-1l-1 1h-1v1h-1a1 1 0 0 0 0-1l-1 1a2 2 0 0 1 0-2 2 2 0 0 0 2 1l-1-1v1l-1-1h-1-1v1h-1a1 1 0 0 1 0-1 4 4 0 0 0 0-1l-2 1V4h1-2a2 2 0 0 0-1 0 2 2 0 0 0-1 1V4a2 2 0 0 1-1 0l-1 1a1 1 0 0 1-1 0 2 2 0 0 0-1 0 3 3 0 0 0-2 1V5a1 1 0 0 1 1-1h-1a3 3 0 0 0-1 0v1h-2l1-1h-1-2v1h-1 1l-1-1-1 1a1 1 0 0 0-1-1h-2-1a1 1 0 0 0 1 0v1h-1c0 1 0 0 0 0a3 3 0 0 1-2 0h1V4h-1v1h-1l-1-1h-1l-1 1c-1-1-1 1-1 1l-1-1V4l1-1a3 3 0 0 0-1 0l-1 1v2l-1-1v1l-1-1V4h-1c-1-1 0 0 0 0v1a2 2 0 0 0-1-1l-1 1s1 0 0 0h-1V4h-1v1h-1V4l-1 1c-1 0 0 0 0 0l-1-1-1 1h-1l-1-1a3 3 0 0 1-1 0h-1a5 5 0 0 1 0 1 2 2 0 0 0-1 0h-1-1-1 1l1-1c-1-1-1 0-1 1h-1c-1 0 0 0 0 0V4c1 0 1 0 0 0a1 1 0 0 0-1 0h0a3 3 0 0 1-1 0l-1-1a2 2 0 0 1 0 1h-1l-1 1a5 5 0 0 0 0-1l-1-1v1h-1 1zm32 1zm18-4h-1 1zm1 1v0zm-3 2l1 1-1-2v1zm-27-1v0s1 1 0 0zm-1 0v1l1-1a1 1 0 0 0-1 0zM91 4zM77 2v0zm25 19h0a5 5 0 0 0-1 0h1c1 1-1 0 0 0zm-7 1c0-1 0-1 0 0z" class="cls-9"/>
      <path d="M127 3h0zM78 2l1-1-1 1zm30 19zm37-17zM79 3a1 1 0 0 1 1-1l1 1h-1v1l1 1h1c1 0 0 1 0 0h-1a12 12 0 0 0-2 0l1 1a1 1 0 0 0-1 0V4h-2V3l1 1c1 1 0 0 0 0-1-1 0-1 1-1 0 0-1 0 0 0zm-1 1zm0-3l-1-1 1 1zm62 4v1zm4 0zm-4 1zm-1-1zM94 22v0zm47-15zm8 27v0zm-7-33v1a1 1 0 0 0 0-1zm6 1v0zM52 5v0z" class="cls-9"/>
      <path d="M145 7h2v1a5 5 0 0 0 0 1 5 5 0 0 1 1 0v1a1 1 0 0 1 1 1v-1s-1 0 0 0V9l1 1c1 0 0 0 0 0v1l-1 1h1v-1 2a2 2 0 0 0 0 1v1l1-1a14 14 0 0 1 0 2l1 1-1 1-1-1s2 1 1 2a2 2 0 0 0 0 2l1 1h-1v0h-1l-1 1h1v1a2 2 0 0 1 1 0v1l-1 1v1l1-1v3 1h-1v1h0v1h-1l1 1 1 1h-1v1l-1-1v1a5 5 0 0 1 0 1v-1h1a1 1 0 0 1 1 0v1 1l-1 1v1h-2 1a1 1 0 0 0-1-1v-1l1 1v-1h1c0 1 0 0 0 0v-1l-1 1v-1l-1 1v-1l-1-1 1-1h-1v-1-1h1v-1-1h1a2 2 0 0 1 0-1h-1a4 4 0 0 1 0-2 2 2 0 0 0 0-1 3 3 0 0 1-1 0h2v-2l-1 1v-1l-1-1h1v1l1-2a1 1 0 0 0-1 0v-1l1-1c-1-1-2-1-1-2h1v-1c0-1 0 0 0 0h-1v-1c1 0 0 0 0 0a1 1 0 0 0 1-1h-1l-1-1h1c1 1 0 1 0 0a1 1 0 0 0 0-1 1 1 0 0 0-1 0 2 2 0 0 1 1-1v-1l-2 1v-1l1-1h-1V9l-1 1V9h-1l1-1h-1c0-1 0 0 0 0h-2l1-1h3-1zm2 29h0zm1-5zm1-1zm0-3v1-1s0 1 0 0zm0 1zm0-5zm1-3v0zm-1-1c0 1 1 0 0 0 0 1 0 0 0 0zm1 0h0zm0-4h-2a4 4 0 0 0 1 0h1c0-1 0 0 0 0zM139 2h-1V1h2s0 2-1 1c-1 0 0 0 0 0zm0 0zm-1 0zM32 4a1 1 0 0 1 0 1V4s1 1 0 0zm108-2h2a2 2 0 0 1 0 1h1l1-1h-3l-1-1v1zM37 5c0 1 0 0 0 0zm36 17z" class="cls-9"/>
      <path d="M148 8a1 1 0 0 0 1 0h-1zm0 29h-1a1 1 0 0 0 1 0zM94 5h-1V4v2l1-1h-1zm53 2h0zm0 20a2 2 0 0 0 1 1s0-2-1-1zm-8-17zm0 0zm1-1l-1 1zm-1 1zM38 5l1 1-1-1zm62-4zm1 1V1c1-1 0 0 0 0a7 7 0 0 1 2 1c1 0 1 0 0 0a3 3 0 0 0-2 0c1 0 1 0 0 0zm0 0zM17 21zm87-20h-1 1zM11 21c-1 0-1 0 0 0 0 0-1 0 0 0zm89-19V1h-1l-1 1h2s-1 0 0 0zM66 21zm64-21zM46 21zm-26 1a1 1 0 0 0 1-1h-1v1zM128 3V1zm-11-1l1-1-1 1zm12-1l1 1V0l-1 1zm-23 1V1v1zM18 5h0zm98-4s1-1 0 0h-1 1s-1 0 0 0zM17 5c-1 0 0 1 0 0s0-1 0 0c-1 1 0-1 0 0zm37 17zm-41 3zm17 0zm-4-1zm26-1c0-1 0 0 0 0zm2-1zm10 3v1l1-1h-1zm-4 1h-1 1c1 0 0 0 0 0zm-6 0l1 1-1-1zm1 0a1 1 0 0 0 0 1 2 2 0 0 0 1 0c1-1 0-1-1-1 0 1 1 0 0 0zm24-1c0 1 1 0 0 0zm-6 0h-1 2zm9 0zm-1 0v0zm21-3zm0 2zm-1-2zm1 3zm0-1zm20-2l1 2a4 4 0 0 1 0 1l-1 1v-1l-1-1a4 4 0 0 1 0 1h-1-2 1l-1-1v-1c1-1 1 2 2 0h1v-1h1c1 0 0 0 0 0zm-3 3l1-1a4 4 0 0 0-1 0v1c1 0 0-1 0 0zm3-2v0zm4 1c-1-1-1 0-1 1a6 6 0 0 1-1 0l-1-1 1-1a1 1 0 0 1 1-1l1 1v1zm-1-1zm1 1zm0-1zm0 0zm0 1zm-7 2l-1 1h1v-1c-1 1 0 0 0 0zm-2-2h-1l1 1h-2c-1 0 0 0 0 0h-1a2 2 0 0 1-1-1l1 1h-1-1v-1h-1l-1 1-1-1v1h-1c0-1 1-1-1-1a5 5 0 0 1-1 0h-1a2 2 0 0 1-1 1v-1l-2 1s-1-1 0 0a1 1 0 0 1-1 0l-1-1-1 1v-1h-3v-1 1c0 1 0 0 0 0h-1l1-1v-1c0-1 0 0 0 0 0-1 0 0 0 0h2v-1h1a1 1 0 0 1-1 1 2 2 0 0 1 2 0v1a1 1 0 0 1 1-1h1a5 5 0 0 0 1 0h1c1 0 0 1 0 0h2s0-1 0 0h2a3 3 0 0 1 1 0h-1v1l1-1 1 1 1-1v-1h1v1l-1 1 1-1 1-1 1 2v-1-1h1v1h1a1 1 0 0 1 1 1h-1 1v1zm-21-2zm3 2l-1-1h-1l1 1zm1-1zm0 0zm4 1l-1-1h1v1zm1 0l1-1-1 1zm3 0v-1 1s-1 0 0 0zm3-1a1 1 0 0 1-1 0h-1l1 1 1-1s1 0 0 0zm3 0h-1l1 1v-1zm-12-1zm-60 4h-1 2-1s1-1 0 0zm52-2z" class="cls-9"/>
      <path d="M85 22h1l-1 1a4 4 0 0 1 0 2h-1-1-1c-1 0 0 0 0 0h-3a2 2 0 0 1-1 0l-1-1-1 1h-1c0 1 0 1 0 0h-2l-1-1-1 1-1-1h-1-1a3 3 0 0 0-1 0v1a3 3 0 0 1-1-1v-1l-1 2h-1-1v-1s0-1 0 0h-1v0h-1a2 2 0 0 0-2 1h-1a1 1 0 0 0-2-1l-1 1h-1c-1-1 0 0 0 0h-3a4 4 0 0 0 0 1v-1h-2s0-1 0 0a1 1 0 0 1-1 0v-1l-1 1a2 2 0 0 1-1 0v-1 1h-2a1 1 0 0 0-1 0 2 2 0 0 1-1 0 3 3 0 0 1-1 0l-1-1-2 1a4 4 0 0 1-1 0c-2 0 0-1-1-1h-1v-1a5 5 0 0 0 0 1h-1-1l-1 1h-1l-1 1v-1c0-1 1 0 0 0h-1-1l-1-1v1h-1l-1-1a8 8 0 0 1-1 1v-1h-2v-1l-1 1a1 1 0 0 0-1 1l-1-1v1l-1 1h-1l1-2-2 1v-1h-1v1a1 1 0 0 1-1 0h-1a1 1 0 0 0-1 0 2 2 0 0 0-1 0l-1-1H9l2-1H9a10 10 0 0 1-1 1H7l-2 1a1 1 0 0 1 0-1 1 1 0 0 0-1-1l1-1a1 1 0 0 0 0-1v-1a6 6 0 0 1-1-1l1-1v-1a2 2 0 0 1 0-1H4v-1h1l-1-1c-1 0-1 0 0 0l1-1H4v-1h1a6 6 0 0 0 1 0h0v-1l1-1c-1 0-2 0-1-1V8 7l1 2V8h1l1-1a2 2 0 0 0 0 1l1 1H9a6 6 0 0 0-1 1s0 1 0 0a2 2 0 0 1 1 0V9l-1 2h1v1c-1 0 0-1 0 0v1l-1-1 1 1v1l-1-1-1 1a3 3 0 0 1-1 0 2 2 0 0 0 0 1h1c0-1 0 0 0 0a4 4 0 0 1 1 1H7 6l1 1h1l-1 1a5 5 0 0 1 0 1H6l1 1v-1a1 1 0 0 1 0 1c0 1 0 0 0 0H6v1h1s0-1 0 0v1l1-1a2 2 0 0 0 0 1l1-1v1h2a8 8 0 0 1 1-1 1 1 0 0 1 1 0 4 4 0 0 1 0 1l1-1v2a4 4 0 0 0 2 0v-2l1 1-1 1c-1 0 0 0 0 0a6 6 0 0 0 1-1h1a4 4 0 0 1 1 0l1 1v-1h1a1 1 0 0 1 0-1l1 1v-1-1a2 2 0 0 0 0 1h1v2l1-1v-1l1 1c1 0 0 0 0 0l-1 1a3 3 0 0 0 1 0h1v0l1-1v-1l1 1h1l1 1h-1 1l1-1v1a4 4 0 0 1 1 0v-1h2v1a4 4 0 0 0 1 0h1v-1c0-1 1 0 0 0l2-1 1 1 1-1v1a1 1 0 0 0 1 0s-1 0 0 0h2a10 10 0 0 1 1-1l1 1v1s2-2 3-1-1 0-1 1h2v0h1a1 1 0 0 0 0-1v1l1 1h1v-1h1v-1 1l1-1 1 1a4 4 0 0 0 0-1h1c1 0 0 0 0 0v1a1 1 0 0 0 1-1h5a1 1 0 0 1 1-1v1a3 3 0 0 1 1 0c1-1 1 1 2 1v-1h2v-1 1l-1 1 3-1 1 1v-1h1v-1l1 1h-1l1 1h2a7 7 0 0 1 2 1l1-1v-1a6 6 0 0 1 1 0l-1 1h3v-1h3v1l1-1c1 0-1 0 0 0zM7 10c1-1 0-1-1-1l1 1zm-1 6H5h1zm0 2v-1 1zm1 4l-1 1s0-1 0 0l1-1zm1 1a4 4 0 0 0-2 1h1l1-1zm6 0h1a4 4 0 0 0-1 0h-1l-1-1c0-1 0 0 0 0l-1 1h2a2 2 0 0 0 1 0c1 0 0 1 0 0zm3 1h-1 1zm4-1h-1 1zm7 0zm-1 0zm0 0zm1 0zm0-1zm0 0zm5 2v-1a6 6 0 0 0-1 0l1 1c1-1 0 0 0 0zm4-1v1l-1-1zm5 1h-1zm3-1h-1l-1 1v1l1-1 1-1zm1 0zm11 0zm1-1v0zm1 3l1-2-1 1v1s-1 0 0 0zm2-1h-1s1 0 0 0zm1-1h0zm2-1zm1 0zm4 2zm0-1q1 0 0 0zm1-1v1zm-11-1c0 1 0 0 0 0z" class="cls-9"/>
      <path d="M93 23a2 2 0 0 1 1 1v1h-1a3 3 0 0 0-1 0h-1l1-1h-1v1l-2-1h-2-1-1l1-1v-1-1h1v1l1-1v1h3-1l1 1s0 1 0 0h2c1 0-1 0 0 0zm-4 1h1-1c1 0 0 0 0 0zm14 0zM76 2V1v0h-1l1 1zm27 23zm4 0zm-2 0zm-2 0h2-2c1 0 0 0 0 0zm-49-3zM33 1V0v1zm4 2zm0 0zm2-2V0v1c1 0 0 0 0 0zm-1 0a2 2 0 0 0 1 0 1 1 0 0 0-1 0zm0 2zm-1-2h-1 1s-1 1 0 0zm-4 0h0zm4 0zm0 2zm6-2V0v1s0 1 0 0zm19 1h0zm9-2v1a4 4 0 0 1 1 0 2 2 0 0 0-1-1s-1 0 0 0zm-1 2zm4 0V1v1h-1 1z" class="cls-9"/>
      <path d="M72 5a6 6 0 0 1 0-2l1-1v1h1V2h1v1l1-1 1 1h-1v1l-2 1-1-1v1c0 1 0 0 0 0h-1zm3-1h1V3l-1 1V3v1c-1 0 0-1 0 0zM51 2V1l-1-1v1a11 11 0 0 0 1 1zm1 0a1 1 0 0 0-1 0 2 2 0 0 0 1 0zm0-1h0zm7 0l1 1h1l-1-1h-1zm3 2V2l1 1h1a2 2 0 0 0 1-1l1-1a2 2 0 0 1 2 0 1 1 0 0 1 0-1v1h1a1 1 0 0 1 0-1h1v1c0 1 0 0 0 0h1v1a6 6 0 0 1-2 0 2 2 0 0 0-1 0s-1 0 0 0v1l1 1V3h1V2a1 1 0 0 0 1 1v1s1 1 0 0a1 1 0 0 1-1 0h-1l1 1a2 2 0 0 1 1 0l-1 1V5a2 2 0 0 0-1-1l-1 1h-1V4a3 3 0 0 0-1 1 5 5 0 0 0 0-1 2 2 0 0 1 0-1l1-1h-1c-1 0 0 0 0 0v1a3 3 0 0 1 0 1h-1-1c-1 0 0 0 0 0l1 1a1 1 0 0 1-1 0h-1-1a7 7 0 0 1-1 0h1V4l-2 1a2 2 0 0 0 0-1c-1 0-1 0 0 0V3h2zm-1 0c-1 0-1 0 0 0zm1 0zM59 2a1 1 0 0 0-1 0 1 1 0 0 1 0-1c1 0 1-1 0 0 0 0-1 1 1 1zM5 11V9l-1 1h1v1zm17 14a2 2 0 0 0-1 0h1zm-2 1h1c1 0 0 0 0 0h-1zM10 8L9 7l1-1V5l1-1 1-1V2l2 1h0l1-2v1h1a1 1 0 0 1 1 0h0a2 2 0 0 0-1 0l2-1a1 1 0 0 1 1-1l-1 1a2 2 0 0 0 1 1v0l1-1a6 6 0 0 0 1-1v1l-1 1s-1 0 0 0h2-2a3 3 0 0 1 1 0 3 3 0 0 1 1 0v1a1 1 0 0 1 2-1v1l-1 1h-1a1 1 0 0 0 1 1h-1l-1-2-1 1 1 1h-1c-1 0 0 0 0 0h-1-1V4h-1 1l-1-1v1h-1v1a1 1 0 0 1 0 1l-1-1a2 2 0 0 0-1 0v1h-1l1-1h-1a4 4 0 0 0-1 2V6l-1 1V6c-1 0 0 0 0 0a3 3 0 0 0-1 1v1zm9-5v1h1a1 1 0 0 0-1-1zm-5 1a1 1 0 0 0 1-1l-1 1zm-2 0l1-1h-1v1zm8 21v1zm19 1s0 1 0 0zM4 25H3a2 2 0 0 0 1 1 4 4 0 0 0 1-1H4zm3-1l-1 1 1-1zm26 2c-1 0-1 0 0 0 0 0 1 0 0 0zm2-1zm-9 2zm-2-1l-1-1v1h1v0zm3 0h-1l1 1v-1c-1-1 0 0 0 0z" class="cls-9"/>
      <path d="M9 6V5H8C7 6 9 6 9 6zm33-5zm-2 2zM24 1h-1 2 3V0l1 1h1a6 6 0 0 1 1 0h1l-1 2h1l1-1h2a2 2 0 0 0 1 0 7 7 0 0 0 0 1V2l1 1a1 1 0 0 0 1 0l1 1c0 1 0 0 0 0h1V3h1s-1 1 0 0a1 1 0 0 0 0-1V1l1-1v2h1l-1 1h2l2-2-1 1 2 1V2h1a2 2 0 0 1 2 1V2l1 1c0 1 0 0 0 0h2a2 2 0 0 0 1-1l1-1h1v1a1 1 0 0 0 1 0l1 1h2l-1 1v1l-1-1v1a1 1 0 0 1-2 0h-1V4v1h-1-1V4a5 5 0 0 0 0 1h-1a17 17 0 0 0-2 0h-1v1a1 1 0 0 1-1-1h-1l-1-1a7 7 0 0 1-2 0c-1-1 0 0 0 0a3 3 0 0 0 2 1l1 1-3-2a2 2 0 0 0-1 0l-1-1v1c-1 0 0 0 0 0a2 2 0 0 0-1 0h1a4 4 0 0 1 2 1v1l-1-1h-2a17 17 0 0 1-2 0 6 6 0 0 0-1-1 2 2 0 0 0-1 1c-1 0-2 0-1-1a6 6 0 0 1-1 0h-2l-1-1-1 2V4a1 1 0 0 0-1 0v1l-1-1a12 12 0 0 1 0 1h-2V4h-1 1l-1 1a1 1 0 0 1-1 0v1l-1-1c-1 0-2 0-1-1s1 1 0 1a7 7 0 0 0 2-1l-1-1s1 0 0 0l1-1-1-1zm33 3a2 2 0 0 1-1 1h1l1-1h-1zm-1 0V3v1zm-2 0h0zm0-1h-1 1c1 0 0 0 0 0zm-2 0v1h1l-1-1c-1 0 0 0 0 0zm-1 1zm-1 0zm0 0zm-2 1V3v2zm-1-1v0zM35 3a1 1 0 0 0-1-1l1 1zm-1 1zm-3 0c0-1-1 0 0 0zm-2-2h-1 2v1l1-1h-2zm-2 1c0 1 0 0 0 0zm-1-1c-1 0 0 0 0 0v1a3 3 0 0 0 1-1l1-1a2 2 0 0 0-1 0 1 1 0 0 1-1 1s0-1 0 0c-1 0 0-1 0 0zm14 1zM10 5V4a3 3 0 0 0 1-1 1 1 0 0 0 0-1 4 4 0 0 1-1 1 5 5 0 0 0-1 1v1h1zm30-2zM17 1h-1 1zM11 2zm49 107h1v-1 1l-1-1s0-1 0 0h-1l1 1s-1 0 0 0zM4 76zm4-12v-1a1 1 0 0 0-1 1h1zM4 82v1h1l-1-1s1 1 0 0zm1-6zm-1-8zm1-8zm1 15l-1 1h1v-1zM5 51zm3 7v0zm0 6c1 0 1 0 0 0zm0-8zm60 53zM12 52zM8 67c1 0 1 0 0 0zm0 1v-1 1z" class="cls-9"/>
      <path d="M7 83a1 1 0 0 1-1 0H5l1-1H5a3 3 0 0 1 1 0h1l-1-1H4l1 1H4a2 2 0 0 1 0-1v-1l1 1 1-1H5a3 3 0 0 0-1 0v-1c1 0 0 0 0 0h2v-1h1a3 3 0 0 1-1 0c-1 0 0 0 0 0H5v-1H4l1-1 1 1a1 1 0 0 1 0-1l1-1a8 8 0 0 1-1 0H5v-1h1v-1l-1 1a2 2 0 0 0 1-1v-2H5h0v-1H4a5 5 0 0 0 2 0 5 5 0 0 0-1 0l-1-1h2c1 0 0 0 0 0a4 4 0 0 0-1-1H4l1-1 1 1v-1c0-1 0 0 0 0H5a1 1 0 0 0 1-1 4 4 0 0 1 0-1v-1-1c0-1 0 0 0 0l-1 1c-1 1 0 0 0 0a1 1 0 0 0 0-1l-1 1v-1s-1 0 0 0v-1l1 1h1a6 6 0 0 1-1 0l-1-1h2l-1-1-1 1a1 1 0 0 1 0-1h0v-1h1v1a1 1 0 0 0 1 0v-1-1c-1 0 0 0 0 0l-1-1h1v-1l-1-1c-1 0 0 0 0 0v1a1 1 0 0 1-1 1 1 1 0 0 1-1-1l1-1h0v-1h1v1l1-1v-1H5h1v-1l-1-1h1v-1H4 3l1-1a3 3 0 0 0-1 0h1s-1-1 0 0h0l1 1a10 10 0 0 0 2 0 1 1 0 0 1 1 0v1h1a2 2 0 0 1-2 0 1 1 0 0 0 0-1l-1 1h1v1h1l1 1H8a7 7 0 0 0-1 0l1 1H7v1a3 3 0 0 0 1 0v1l-1-1v1l1 1a1 1 0 0 0 0 1v1a1 1 0 0 1-1-1 1 1 0 0 0 0 1h1v1H7v1c0 1 0 0 0 0a8 8 0 0 1 1 0v0l-1 1h1l-2 1h1v0l1 1H7h1a1 1 0 0 1 0 1H7h1v1H7v1c-1 0 0 0 0 0 1 0 1 0 0 0-1 1 1 1 1 1H7 6l1 1h1c0 1 0 0 0 0v1H7h0v1s-1 0 0 0h1l-1 1c-1 0 0 0 0 0s0 1 0 0a6 6 0 0 1 1 1H7h0v1a1 1 0 0 0 1 0l-1 1a1 1 0 0 1 0 1s-1 0 0 0h1v2l-1-1H6l1 1H6l1 1H6h1a1 1 0 0 1 0 1H6a5 5 0 0 1 1 0l1 1H7c-1 0 0 0 0 0H6l1 1zm1-17zm-4-9v0zm0 0c1 0 0 0 0 0-1 0 0 0 0 0zm3 1c0 1 1 0 0 0H6a2 2 0 0 1 1 0zM6 72h0c0 1 0-1 0 0zm0 0s0 1 0 0zm1 6zm-3 7zm70 22s0 1 0 0h-1 1c0 1-1 0 0 0zm-4 1c0-1 0-1 0 0z" class="cls-9"/>
      <path d="M6 60v0zM4 85v-1 1zm73 22zM4 51zm2 33H5v-1h1l1 1v-1h1a3 3 0 0 0 0 1v-1 1h0-1v1H6v-1s0 1 0 0zm0 0zm-3 1zm5-32zm-3-2zm3 2zm0 0zm62 55v-1 1zM9 52zM6 36v-1 1zM3 53l1-1a1 1 0 0 0-1 1zm-3-2zm8 47z" class="cls-9"/>
      <path d="M6 50c1 0 0 0 0 0l-1-1v-1h1l-1-1v1a1 1 0 0 0-1 0v-1h0l1-1v-1l-1 1v-1c1 0 1 0 0 0H3l1-1h1l-1-1v-1H3h1v-1h1l-1 1h1l1-1H5a2 2 0 0 1-1 0v-1h1v-1l-1 1v-1-1c1 0 0 0 0 0a1 1 0 0 0 1 0v-1H4h2c1-1-1-1-1-1H4 3h2v-1l1 1v-1H5a3 3 0 0 1-1 0v-1h1v-1h2-1a1 1 0 0 0 1 0v1H6 5v1l1-1h1v1h1l-1 1h1v1H7l1 1H7a1 1 0 0 1-1 0h1v2a4 4 0 0 1 1 0 3 3 0 0 1-2 0v1l1-1c-1 1 0 1 1 1H7l-1 1h2a1 1 0 0 0-1 0l-1 1c1 0 2 0 1 1H6h1l1 1H7s-1 0 0 0v1h0c-1 0 0 0 0 0s-1 0 0 0a2 2 0 0 0 1 1 3 3 0 0 1-1 0H6l2 1H7h1l-1 1h1l-1 1h1l1 1H8 7l-1-1zm2-15H7h1zm-1 2zm-1 1zm0 1c0 1 1 0 0 0zm0 0zm0 3zm-1 1v0zm1 0a2 2 0 0 0 1 0H6s1 0 0 0zm-1 1v-1H4l1 1zm1 1c-1 1 1 1 1 1a3 3 0 0 0-1-1c-1 1 0 0 0 0zm-1 9H4s-1 0 0 0v-1l1 1zm-1 0zm0 0zm3 53a3 3 0 0 1 1 0 1 1 0 0 0 0-1 3 3 0 0 0-1 1s0-1 0 0zM5 53v-1H4c-1 0 0 0 0 0H3l1 1H3h1zm3 52v-1 1zm51 3z" class="cls-9"/>
      <path d="M5 49a1 1 0 0 0-1 0h1zm2-15h0zm1 43H7h1v-1 1zM5 49H4h1zm3-10H7h1zm4 13zm0 0zm0 0zm0 0zm-5 52h1-1zM4 73zm0 0a3 3 0 0 1 0-1h1v1c0-1 0-1 0 0H4zm0 0zm27 34h-1 1zM4 71l-1 1c1 0 2 0 1-1zm23 36c1 0 0-1 0 0zM5 74H4h1zm51 33h-1zM3 58zm43 49h-1 1zm-14 1v-1c1 0 0-1 0 0v1zM5 59H4zm-1 6s0-1 0 0a1 1 0 0 0 1 0 2 2 0 0 1-1 0zm0-6v-1H3l1 1zm1 12H4h1zm7 36h-1 1zM4 65H3l1 1v-1s0 1 0 0zm9 43l-1-1c-1 0 0 2 1 1s-1 0 0 0zm36 0zm-20 3zm8 0zm-2-1zm14-1c0-1-1 0 0 0zm0-1zm6 3v0zm-3 1zm-2 0v0zm0 0a1 1 0 0 0 0 1h1l-1-1c0 1 0 0 0 0zm12-1c0 1 1 0 0 0zm-3 0zm5 0zm-1 0v0zm11-3zm0 2zm-1-2zm1 3zm-1-1zm11-2v2a7 7 0 0 1 0 1v0l-1-1a8 8 0 0 1 0 1h-1a2 2 0 0 0 0-1 1 1 0 0 1 0-1c1-1 0 2 1 0 0 1 0 0 0 0l1-1c1 0 0 0 0 0zm-2 3l1-1h-1v1c1 0 0-1 0 0zm2-2v0zm2 1c-1-1-1 0-1 1v-1-1c1 0 0 0 0 0v-1l1 1v1zm-1-1zm1 1zm0-1zm0 0zm0 1zm-4 2v0c0 1 0 0 0 0zm-1-2v1c0 1 0 0 0 0h-1a2 2 0 0 1-1-1l1 1h-1v-1h-1v1l-1-1v1l-1-1h-1a1 1 0 0 1 0 1l-1-1v1h-1v-1l-1 1v-1l-1 1a1 1 0 0 1 0-1v-1 1c0 1 0 0 0 0h-1l1-1-1-1a2 2 0 0 1 1 0c0-1 0 0 0 0l1-1a1 1 0 0 1 0 1 1 1 0 0 1 1 1 2 2 0 0 1 0-1 2 2 0 0 0 1 0h1c1 0 0 1 0 0h1s0-1 0 0h1v0l1 1v-1-1c0 1 0 1 0 0h1a2 2 0 0 1 0 1l-1 1 1-1a3 3 0 0 0 0-1l1 2v-1-1 1h1v1c0 1 0-1 0 0v1zm-10-2zm1 2v-1h-1l1 1c1 1 0 0 0 0zm1-1zm0 0zm2 1a1 1 0 0 0-1-1h1v1zm0 0v0zm2 0v-1 1s-1 0 0 0zm1-1h-1l1 1v-1c1 0 1 0 0 0zm2 0h-1l1 1v-1zm-6-1zm-31 4h1-1s1-1 0 0zm27-2z" class="cls-9"/>
      <path d="M65 108a3 3 0 0 0 0 1 8 8 0 0 1 0 2h-1-1s1 0 0 0a6 6 0 0 0-1 0 1 1 0 0 1-1 0v-1 1h-1c0 1 0 1 0 0h-1l-1-1v0h-1-1v1a5 5 0 0 1 0-1l-1-1v2h-1a5 5 0 0 1 0-1s0-1 0 0v1h-1v-1s0 1 0 0a1 1 0 0 0-1 1h-1v-1h-1v1c0 1 0 0 0 0a1 1 0 0 0-1 0c0-1 0 0 0 0h-1a7 7 0 0 0 0 1v-1h-1v-1 1l-1-1v1a1 1 0 0 1-1 0 3 3 0 0 1 0-1v1h-1a1 1 0 0 1-1 0l-1-1-1 1c-1 0 0 0 0 0l-1-1v-1a4 4 0 0 0 0 1h-1c0 1 0 1 0 0l-1 1c0-1 0-1 0 0l-1 1v-1c0-1 1 0 0 0h-1v-1 1h-1v-1l-1 1v-1h-1v-1a3 3 0 0 0 0 1 1 1 0 0 0-1 1v-1a4 4 0 0 1 0 1l-1 1v-1-1l-1 1v-1 1l-1-1v1a1 1 0 0 0-1 0l-1-1v-1l-1 1c-1 0 0 0 0 0h-1c-1 0 0 0 0 0l-1 1v-1h-1c-1 0 0 1 0 0a9 9 0 0 1 0 1l-1-1c0-1 0 0 0 0h-1v1l-1 1v-1 1c0 1 0 0 0 0v-1a11 11 0 0 0 0-1l-1-1v1l-1 1-1 1 1-1-1-1c0 1 0 0 0 0s0 1 0 0a3 3 0 0 0 0-1v-1l1 1v-1c1 0 0 0 0 0l1-1v0h1s-1 0 0 0v3l1-1h-1l1-1a2 2 0 0 1 0 1l1-1c1 0 0 0 0 0h1v0h1a1 1 0 0 0-1 1h1a2 2 0 0 0 0-1h1v-1 1c0 1 0 0 0 0l1-1c1 0 0 0 0 0v0l1 1 1-1a4 4 0 0 1 1 1v-1 1c0 1 0 0 0 0h1a6 6 0 0 0 0-1 3 3 0 0 1 0 1v1a7 7 0 0 0 1-1 1 1 0 0 1 1 0v0l1-1v-1a4 4 0 0 0 0 1h1l-1 1h1v-1 1s1 0 0 0v1a1 1 0 0 0 1 0v-1 0l1-1v1h1v1s0-1 0 0l1-1v0h1l1 1v-1h1l1-1v1h2v-1l1 1v1l1-1v1h1v0a1 1 0 0 0 1-1 5 5 0 0 0 0 1c0 1 0 0 0 0v1l1-1v-1 0l1 1a6 6 0 0 0 0-1h1l-1 1h1v-1h2c0-1 0 0 0 0l1-1v1a1 1 0 0 1 1 0v1l1-1c1 0 0 0 0 0 0 1 0 0 0 0v-1l1 1-1 1 2-1v0l1-1v2h2s1 0 0 0v-1h1v1c-1 0 0 0 0 0h1c1 1 0 0 0 0h0v-1h1a1 1 0 0 1 1 0 1 1 0 0 1-1 1h1v-1c1 0 0 0 0 0zm-47 2v0zm3 0s1 0 0 0zm1-1c0 1 0 1 0 0 0 0 0 1 0 0zm3-1v0zm1 1l-1 1h1v-1zm3 0l-1-1c0-1 0 0 0 0v1h1c1 0 0 1 0 0zm1 1c0-1 0 0 0 0h1zm3-1h-1 1zm3 0zm0 0zm0 0zm0 0zm0-1zm0 0zm3 2v-1h-1l1 1c0-1 0 0 0 0zm1-1l1 1v-1zm3 1zm2-1h-1v1a2 2 0 0 0 0 1v-1h1zm1 0c-1 0-1 0 0 0zm5 0zm0-1v0zm1 3v-2 2zm1-1h-1a1 1 0 0 0 1 0zm1-1s-1 0 0 0c0 0-1 0 0 0zm1-1zm0 0zm2 2zm0-1zm0-1v1zm-5-1c0 1 0 0 0 0z" class="cls-9"/>
      <path d="M69 109a2 2 0 0 1 1 1 2 2 0 0 1 0 1h-2v-1 1l-1-1h-2l1-1a4 4 0 0 0 0-1v-1 1l1-1-1 1h2v1s0 1 0 0h1zm-2 1h0c1 0 0 0 0 0zm7 0zM4 86v-1l-1 1h1c1 0 0 0 0 0zm70 25zm2 0zm-1 0zm-1 0h0c1 0 0 0 0 0zm-25-3zm-45 1H3h1zm2-4zm0 0zm-3 0c0-1 0-1 0 0 0-1 0 0 0 0zm1 0zm1 0zm-1 1l-1 1c1 0 2 0 1-1zm0 3v-1 1zm-1-2zm3-2zm-2-3H3h1zm1-10v1-1zm-2-4h1v-1a2 2 0 0 0-1 1zm2 0zm0-1H4h1zM8 88a12 12 0 0 1-2 0 4 4 0 0 1 0-1H5h0c-1 0 0 0 0 0v-1-1c0-1 0 0 0 0l1 1v-1l1 1c0 1 0 0 0 0v1c-1 1 0 0 0 0h1v1zm-2-2c1 1 1 0 0 0 1 1 0 0 0 0zM5 98a4 4 0 0 1-1 0h0l-1 1h1l1-1zm0 0H4h1zm-1 0l-1-1 1 1zm0-4h1l-1-1v1zm2-1H5l1-1c0 1 0 0 0 0a2 2 0 0 0-1-1 4 4 0 0 1-1 0 1 1 0 0 1 0-1 2 2 0 0 1-1 0l1-1a1 1 0 0 1-1 0h1v-1c1 0 0 0 0 0v1a1 1 0 0 0 1 1h1a1 1 0 0 0 0-1v-1H5h2-1v1h1a1 1 0 0 1 1-1v1H7l1 1H7l1 1a9 9 0 0 0-1 0 3 3 0 0 1-1-1H5 4l1 1h1a6 6 0 0 1 1 0H6l1 1 1-1-1 1 1 1H7l1 1a5 5 0 0 0-1 0H5l1-1zm0 0s0 1 0 0zm0 0zM5 94a1 1 0 0 0 0 1 2 2 0 0 1-1-1H3h2zm14 17v1c-1 0 0 0 0 0v-1zm14 0c0 1 1 0 0 0zm-1 1h0zm-16-4l1 2h-1-1v1h-1v-1h-1l1 1-1 1a2 2 0 0 1 0-1 1 1 0 0 1-1-1v1l-1 1v-1a2 2 0 0 0 0-1s0-1 0 0l-1 1a13 13 0 0 0-1 2v-1l1-1v-1a7 7 0 0 0-1 0l1 1a1 1 0 0 1-1 0v-1h0a2 2 0 0 1 0-1l1-1a3 3 0 0 0 0-1c0-1 0 0 0 0a5 5 0 0 1 0 2h1a1 1 0 0 1 0-1 1 1 0 0 1 0-1v1a5 5 0 0 0 0-1v1h1c1 0-1 0 0 0v1c-1 0 0 0 0 0h1v-2c0-1 0 0 0 0a4 4 0 0 0 1 1v-1 1c-1 0 0 0 0 0h2v1h-1l1-1c1 0 0 1 0 0zm-5 1zm2 0v1c0 1 0 0 0 0l1-1zm2 1l-1 1 1-1zm17 1v1zm10 1s0 1 0 0zm-17 0a1 1 0 0 0 0-1v1zm1-2v0zm13 2c-1 0-1 0 0 0zm1-1zm-5 2zm-1-1v-1 2a1 1 0 0 0 0-1zm2 0h-1l1 1v-1c-1-1 0 0 0 0z" class="cls-9"/>
      <path d="M16 111c0-1 0-1 0 0v0zm-12-8zm2 1zm2 7v1H7s0-1 0 0H6 4v-1a3 3 0 0 1 0-1l2-1v-1H5c0 1 0 0 0 0v-1-1h1a2 2 0 0 0-1 0l1-1v-1h0c-1 1 0 0 0 0l-1-1h1a2 2 0 0 0-2 0s0 1 0 0H3h2v-1l1 1-1-1-1-1h1l1-1H5a1 1 0 0 1 0-1h0v-1h1l-1-1-1-1a2 2 0 0 0 1-1 2 2 0 0 0 1-1h2l-1 1h1v1a1 1 0 0 1-1 0h1v1a1 1 0 0 1-1 0 1 1 0 0 0 1 0v1a1 1 0 0 0-1 0 4 4 0 0 0 0 1h2a1 1 0 0 1-1 0v1l-1 1v1c0 1 0 0 0 0l1-1s0-1 0 0l-1 1a3 3 0 0 1-1 0v1h1c0 1 0 0 0 0a2 2 0 0 1 1-1v1l-1 1a1 1 0 0 0 0 1 1 1 0 0 1 0 1v1l-1 1 1-1v1l1-1a3 3 0 0 1-1 1v1l1-1s-1 1 0 0a9 9 0 0 1 1-1l-1 1a1 1 0 0 0 0 1v-1c0-1 0 0 0 0a6 6 0 0 1 1 0 1 1 0 0 1 0-1h1a6 6 0 0 1 0-1v1l-1 1-1 1v1a3 3 0 0 0-1 1h1zM7 95h1a6 6 0 0 0-2 0h1zm0 1H6h1zm-1 1h1v-1l-1 1zm0 0v-1 1zm0 1h1v-1c-1 0-2 0-1 1s0-1 0 0zm1 0zm0 1zm0 0zm0 1H6h1zm0 0H6c-1 0 0 0 0 0h1zm-1 7a2 2 0 0 0-1 0h1zm1 0zm-1 1c-1 1 0 1 0 0zm-2 3a1 1 0 0 0 1 0c0-1 0 0 0 0v-1-1l-1 1v1zm3-2l-1 1 1-1c0 1 0 0 0 0zm0 2v-1c0-1 0 0 0 0a3 3 0 0 1-1 1H5a1 1 0 0 0 1 0h1zm-1-7zm10 7c-1 0 0 0 0 0h-1l-1 1h2v-1zm-10-7zm6 8zm2 0z" class="cls-9"/>
      <circle cx="19" cy="14" r="3" fill="#ffbec0"/>
      <circle cx="27" cy="14" r="3" fill="#ffbe23"/>
      <circle cx="36" cy="14" r="3" class="cls-1"/>
      <g class="cls-12">
        <path d="M25 44h17v46H25z" class="cls-13"/>
        <path d="M30 46h-2v1a1 1 0 0 0-1 0l1 2a3 3 0 0 1 0 1v9a36 36 0 0 0 1 5 20 20 0 0 1 0 3v4a17 17 0 0 1 0 4 2 2 0 0 0 0 1 16 16 0 0 1 1 6 12 12 0 0 1 0 2v1a2 2 0 0 1 1 0l6 2a10 10 0 0 0 3 0l2 2a39 39 0 0 1 0 4l-2 1a11 11 0 0 1-1 0l-6-1H23a2 2 0 0 1-1 0 12 12 0 0 0 1-3 14 14 0 0 1 0-2v-4-1l1-2-1-1-1-4h1l-1-5a7 7 0 0 1-1-3 3 3 0 0 0 0-1 33 33 0 0 1 0-8l1-3v-2-1a3 3 0 0 0 0 1 2 2 0 0 0 1 0 2 2 0 0 0-1-2 2 2 0 0 1 0-1v-1a4 4 0 0 1-1 0v-3a42 42 0 0 1 0-5 5 5 0 0 0 0-1v-1h13a8 8 0 0 0 2 0h10v21l1 3a4 4 0 0 1-1 2 9 9 0 0 0 0 3v1a11 11 0 0 0 0 4 6 6 0 0 1 0 2l1 6a8 8 0 0 1 0 2v6a1 1 0 0 1-1 0l-5-2a2 2 0 0 1-1-1 24 24 0 0 1-1-4v-1a13 13 0 0 1 0-2v-1a1 1 0 0 1 1-1l-1-1a4 4 0 0 1 0-3 2 2 0 0 0 0-1 2 2 0 0 1 0-1v-1a11 11 0 0 1 0-4 2 2 0 0 0 0-2v-3a6 6 0 0 1 1-4 2 2 0 0 0 0-2v-1a9 9 0 0 1-1-3 9 9 0 0 1 0-1 5 5 0 0 1 0-1 1 1 0 0 1 0-1v-1h1v-1a2 2 0 0 0 0-1h-1v0h-1a4 4 0 0 0-1 0 3 3 0 0 1-1 0h-5z" class="cls-13"/>
      </g>
      <g class="cls-12">
        <path d="M65 44h17v14H65z" class="cls-13"/>
        <path d="M78 57h1v-1a1 1 0 0 0 0-1l-1-1v-3-1a1 1 0 0 0 0-1h-1l-1 1a4 4 0 0 1-1 0h-1a13 13 0 0 0-2-1h-2a25 25 0 0 1-3-1 3 3 0 0 0-2-1v-1-4-1a3 3 0 0 1 1 0h3a23 23 0 0 0 4 1h3l1 1h2l3-1a9 9 0 0 1 2-1 5 5 0 0 0 1 2 3 3 0 0 1 0 2 2 2 0 0 0 0 1 16 16 0 0 1 0 5 16 16 0 0 1-1 2 10 10 0 0 0 0 1 2 2 0 0 0 0 1 2 2 0 0 1 1 1 23 23 0 0 1 1 5 2 2 0 0 0 0 1l-2 1a53 53 0 0 1-6 0 6 6 0 0 0-2 0H60v-2a5 5 0 0 1 0-1 8 8 0 0 0 0-3v-1a5 5 0 0 0 0-2v-1a2 2 0 0 1 0-2v-3l-1-3 1-1 6 1 1 1v2a5 5 0 0 1 0 1v2a1 1 0 0 1 0 1 2 2 0 0 0 0 1v3h3a1 1 0 0 1 1 0h1v1h1v-1h2l1 1h2c1 0 0 0 0 0z" class="cls-13"/>
      </g>
      <g class="cls-12">
        <path d="M65 78h16v12H65z" class="cls-13"/>
        <path d="M68 80h-1v1l1 2a10 10 0 0 0 0 2h1v1h1v-1a3 3 0 0 1 1 0h1a11 11 0 0 0 2 0h2a21 21 0 0 1 3 2 3 3 0 0 0 1 0l1 2v4l-1 1a2 2 0 0 1-1 0l-2-1a19 19 0 0 0-3 0 1 1 0 0 0-1 0l-1-1c-1 0 0 0 0 0h-2l-1-1-1 1-3 1v-1a13 13 0 0 1-3 1 3 3 0 0 1-1-2 1 1 0 0 0 0-1v-5a3 3 0 0 1 1-1v-1a10 10 0 0 0 0-1 2 2 0 0 0 1 0 2 2 0 0 0-1-1 2 2 0 0 1 0-1 20 20 0 0 1-1-5 1 1 0 0 0 0-1h2a43 43 0 0 1 5 0 19 19 0 0 0 2 0h15a4 4 0 0 1 0 1 6 6 0 0 0 0 3v1a8 8 0 0 0 0 3v2l1 3v3h-6l-1-1-1-2a4 4 0 0 1 0-1v-1c1 0 1 0 0 0a1 1 0 0 1 0-1v-1c0-1 0 0 0 0v-1-1l1-1-1 1-1-1h-1v1h-1a1 1 0 0 1-1 0h-1v-1c0-1 0 0 0 0h-1v0h-2c-1 0 0 1 0 0h-1a8 8 0 0 1-1 0z" class="cls-13"/>
      </g>
    </g>
  </g>
</svg>
